<svg viewBox="0 0 1925 1840" fill="white" xmlns="http://www.w3.org/2000/svg">
<g filter="url(#shad)"><path d="M92 1736L106 1428H494C523 1428 537 1414 537 1385V1115C524 1128 509 1141 493 1154C477 1166 459 1177 438 1187C416 1198 395 1207 378 1212C361 1218 342 1223 320 1227C299 1231 278 1233 256 1233C222 1233 192 1228 165 1218C139 1209 116 1195 95 1177C52 1140 24 1085 11 1009C8 990 5 970 3 949C1 928 0 905 0 882V346C0 302 5 262 14 225C24 189 36 158 52 132C67 106 86 82 109 62C133 41 160 26 189 16C203 11 219 8 235 5C251 2 268 0 285 0C305 0 326 3 348 8C370 11 391 18 411 28C431 38 451 52 470 68C490 83 508 99 524 115C542 133 559 156 577 182L595 168C590 159 584 149 577 138C571 126 566 114 562 104C558 95 554 85 549 72C545 60 542 49 540 39C538 30 537 21 537 15H860V1449C860 1526 844 1587 814 1633C783 1679 737 1709 676 1725C646 1732 611 1736 573 1736H92ZM552 803V430C552 401 545 375 533 354C526 343 518 334 507 329C497 322 487 317 479 314C466 310 452 308 437 308C425 308 412 310 398 314C385 317 374 322 365 329C356 336 348 345 341 354C335 363 331 374 328 387C324 403 322 417 322 430V803C322 832 329 858 341 879C348 890 356 899 367 906C377 912 387 916 397 919C408 923 422 925 437 925C449 925 462 923 476 920C489 916 501 911 510 903C519 896 526 889 532 880C538 871 544 859 547 844C550 830 552 816 552 803Z"/><path d="M1499 387V333C1499 288 1470 265 1414 265C1365 265 1341 289 1341 336C1341 340 1341 346 1342 351C1343 356 1347 362 1352 370C1358 380 1367 391 1380 404C1392 417 1408 431 1427 447C1437 456 1447 466 1460 476C1473 487 1488 498 1504 509C1557 550 1599 584 1632 611C1664 638 1695 667 1725 698C1747 722 1766 747 1781 774C1796 800 1807 825 1812 850C1818 877 1821 904 1821 933C1821 1044 1786 1129 1715 1188C1645 1246 1543 1276 1408 1276C1303 1276 1218 1257 1152 1220C1114 1199 1084 1173 1063 1144C1043 1113 1029 1084 1021 1056C1010 1018 1004 978 1004 936V824H1284V907C1284 933 1290 954 1304 970C1312 982 1320 990 1327 995C1334 999 1344 1002 1357 1005C1362 1007 1368 1008 1374 1009C1381 1010 1387 1010 1394 1010C1405 1010 1416 1010 1426 1008C1436 1006 1447 1001 1460 995C1477 985 1489 972 1494 955C1497 943 1499 934 1499 926C1499 916 1497 907 1494 897C1491 888 1486 878 1479 867C1472 859 1460 847 1443 831C1426 816 1410 802 1394 788C1383 780 1372 771 1360 761C1347 752 1333 741 1318 730C1273 695 1233 663 1196 632C1161 602 1132 574 1110 548C1087 521 1069 496 1056 472C1042 448 1033 423 1027 396C1021 370 1019 343 1019 316C1019 106 1147 0 1403 0C1450 0 1495 5 1536 13C1578 21 1613 32 1642 48C1702 81 1743 128 1764 190C1773 219 1778 254 1778 294V387H1499Z"/></g>
<defs>
<filter id="shad" x="0" y="0.453125" width="1925" height="1839.55" filterUnits="userSpaceOnUse" color-interpolation-filters="sRGB">
<feFlood flood-opacity="0" result="BackgroundImageFix"/>
<feColorMatrix in="SourceAlpha" type="matrix" values="0 0 0 0 0 0 0 0 0 0 0 0 0 0 0 0 0 0 127 0" result="hardAlpha"/>
<feOffset dx="100" dy="100"/>
<feGaussianBlur stdDeviation="2"/>
<feComposite in2="hardAlpha" operator="out"/>
<feColorMatrix type="matrix" values="0 0 0 0 0 0 0 0 0 0 0 0 0 0 0 0 0 0 1 0"/>
<feBlend mode="normal" in2="BackgroundImageFix" result="effect1_dropShadow_21_27"/>
<feBlend mode="normal" in="SourceGraphic" in2="effect1_dropShadow_21_27" result="shape"/>
</filter>
</defs>
</svg>