<svg viewBox="0 0 480 480" fill="none" xmlns="http://www.w3.org/2000/svg">
<rect width="480" height="480" rx="240" fill="url(#paint0_linear_36_7)"/>
<path d="M152.326 357.642L153.861 324.64H195.467C198.537 324.64 200.072 323.105 200.072 320.035V291.114C198.639 292.547 197.053 293.928 195.313 295.258C193.573 296.589 191.628 297.766 189.479 298.789C187.023 300.017 184.873 300.938 183.031 301.552C181.189 302.166 179.09 302.678 176.736 303.087C174.485 303.496 172.233 303.701 169.981 303.701C166.297 303.701 163.021 303.189 160.156 302.166C157.392 301.143 154.884 299.659 152.633 297.714C148.027 293.826 145.059 287.839 143.728 279.755C143.319 277.708 143.012 275.559 142.807 273.308C142.602 271.057 142.5 268.652 142.5 266.093V208.684C142.5 203.977 143.012 199.679 144.035 195.79C145.059 191.902 146.389 188.576 148.027 185.813C149.665 182.948 151.712 180.44 154.168 178.291C156.727 176.04 159.593 174.403 162.765 173.379C164.301 172.868 165.938 172.458 167.678 172.151C169.418 171.844 171.209 171.691 173.052 171.691C175.201 171.691 177.453 171.947 179.807 172.458C182.161 172.868 184.413 173.584 186.562 174.607C188.711 175.733 190.81 177.166 192.857 178.905C195.006 180.543 196.951 182.231 198.691 183.971C200.533 185.915 202.426 188.32 204.371 191.185L206.213 189.65C205.702 188.729 205.087 187.655 204.371 186.427C203.655 185.097 203.092 183.869 202.682 182.743C202.273 181.822 201.812 180.696 201.301 179.366C200.891 178.036 200.584 176.859 200.379 175.835C200.175 174.812 200.072 173.942 200.072 173.226H234.616V326.942C234.616 335.129 232.978 341.678 229.703 346.59C226.428 351.502 221.515 354.777 214.964 356.414C211.689 357.233 208.004 357.642 203.91 357.642H152.326ZM201.608 257.651V217.741C201.608 214.569 200.942 211.857 199.612 209.605C198.895 208.377 197.974 207.456 196.848 206.842C195.722 206.126 194.699 205.614 193.778 205.307C192.447 204.898 190.963 204.693 189.325 204.693C187.995 204.693 186.613 204.898 185.18 205.307C183.747 205.614 182.57 206.126 181.649 206.842C180.626 207.661 179.756 208.582 179.039 209.605C178.425 210.526 177.965 211.703 177.657 213.136C177.248 214.773 177.043 216.308 177.043 217.741V257.651C177.043 260.823 177.709 263.535 179.039 265.786C179.756 267.014 180.677 267.987 181.803 268.703C182.929 269.317 184.003 269.777 185.027 270.084C186.255 270.494 187.688 270.698 189.325 270.698C190.656 270.698 192.038 270.545 193.471 270.238C194.904 269.829 196.132 269.215 197.155 268.396C198.076 267.68 198.844 266.861 199.458 265.94C200.175 264.917 200.738 263.637 201.147 262.102C201.454 260.567 201.608 259.084 201.608 257.651Z" fill="white"/>
<path d="M303.064 213.136V207.303C303.064 202.493 300.044 200.088 294.006 200.088C288.786 200.088 286.176 202.596 286.176 207.61C286.176 208.122 286.227 208.684 286.329 209.298C286.432 209.81 286.79 210.475 287.404 211.294C288.018 212.317 288.991 213.545 290.321 214.978C291.652 216.308 293.34 217.843 295.387 219.583C296.411 220.504 297.588 221.527 298.919 222.653C300.351 223.779 301.938 224.955 303.678 226.183C309.307 230.584 313.862 234.217 317.342 237.082C320.822 239.947 324.148 243.068 327.321 246.445C329.675 249.004 331.671 251.716 333.308 254.581C334.946 257.344 336.072 260.056 336.686 262.716C337.3 265.582 337.607 268.549 337.607 271.619C337.607 283.49 333.82 292.598 326.246 298.942C318.775 305.185 307.823 308.306 293.392 308.306C282.133 308.306 272.973 306.31 265.91 302.319C261.816 300.068 258.644 297.356 256.392 294.184C254.242 290.909 252.758 287.788 251.94 284.82C250.711 280.727 250.097 276.429 250.097 271.926V259.953H280.035V268.856C280.035 271.619 280.751 273.871 282.184 275.61C283.105 276.838 283.924 277.708 284.641 278.22C285.459 278.629 286.534 278.987 287.865 279.294C288.479 279.499 289.093 279.653 289.707 279.755C290.423 279.857 291.14 279.908 291.856 279.908C293.085 279.908 294.21 279.806 295.234 279.601C296.36 279.397 297.588 278.936 298.919 278.22C300.761 277.197 301.989 275.764 302.603 273.922C302.91 272.694 303.064 271.671 303.064 270.852C303.064 269.829 302.91 268.805 302.603 267.782C302.296 266.759 301.733 265.684 300.914 264.558C300.198 263.637 298.919 262.358 297.076 260.721C295.336 259.084 293.596 257.549 291.856 256.116C290.73 255.195 289.502 254.223 288.172 253.199C286.841 252.176 285.357 251.05 283.719 249.822C278.909 246.138 274.559 242.659 270.67 239.384C266.883 236.11 263.812 233.091 261.458 230.328C259.002 227.463 257.057 224.751 255.624 222.192C254.191 219.634 253.168 216.922 252.554 214.057C251.94 211.294 251.633 208.429 251.633 205.461C251.633 182.948 265.348 171.691 292.778 171.691C297.895 171.691 302.654 172.151 307.055 173.072C311.559 173.891 315.346 175.119 318.416 176.756C324.864 180.338 329.214 185.404 331.466 191.953C332.49 195.125 333.001 198.86 333.001 203.158V213.136H303.064Z" fill="white"/>
<path d="M138.321 324.642L136.821 357.642H122.357C118.263 357.642 114.525 357.233 111.25 356.414C104.699 354.777 99.7864 351.502 96.5112 346.59C93.236 341.678 91.6071 335.079 91.6071 326.892V153.106C91.6071 144.92 93.236 138.32 96.5112 133.408C99.7864 128.496 104.699 125.222 111.25 123.584C114.525 122.766 118.263 122.356 122.357 122.356L357.75 122.357C361.844 122.357 365.582 122.766 368.857 123.584C375.408 125.222 380.321 128.496 383.596 133.408C386.871 138.32 388.5 144.92 388.5 153.107V326.892C388.5 335.079 386.871 341.678 383.596 346.59C380.321 351.502 375.408 354.777 368.857 356.414C365.582 357.233 361.844 357.642 357.75 357.642L235.393 357.642C238.607 357.642 250.071 354.428 250.071 324.642L350.86 324.64C353.93 324.64 355.5 323.105 355.5 320.035L355.5 159.964C355.5 156.894 353.93 155.359 350.86 155.359L129.248 155.359C126.177 155.359 124.607 156.894 124.607 159.964L124.607 320.035C124.607 323.105 126.177 324.64 129.248 324.64L138.321 324.642Z" fill="white"/>
<defs>
<linearGradient id="paint0_linear_36_7" x1="481.661" y1="1.28568" x2="7.01782" y2="475.929" gradientUnits="userSpaceOnUse">
<stop stop-color="#252545"/>
<stop offset="1" stop-color="#0D0D19"/>
</linearGradient>
</defs>
</svg>