<svg viewBox="0 0 2771 2196" xmlns="http://www.w3.org/2000/svg"><path d="M567 2196L581 1888H969C998 1888 1012 1874 1012 1845V1575C999 1588 984 1601 968 1614C952 1626 934 1637 913 1647C891 1658 870 1667 853 1672C836 1678 817 1683 795 1687C774 1691 753 1693 731 1693C697 1693 667 1688 640 1678C614 1669 591 1655 570 1637C527 1600 499 1545 486 1469C483 1450 480 1430 478 1409C476 1388 475 1365 475 1342V806C475 762 480 722 489 685C499 649 511 618 527 592C542 566 561 542 584 522C608 501 635 486 664 476C678 471 694 468 710 465C726 462 743 460 760 460C780 460 801 463 823 468C845 471 866 478 886 488C906 498 926 512 945 528C965 543 983 559 999 575C1017 593 1034 616 1052 642L1070 628C1065 619 1059 609 1052 598C1046 586 1041 574 1037 564C1033 555 1029 545 1024 532C1020 520 1017 509 1015 499C1013 490 1012 481 1012 475H1335V1909C1335 1986 1319 2047 1289 2093C1258 2139 1212 2169 1151 2185C1121 2192 1086 2196 1048 2196H567ZM1027 1263V890C1027 861 1020 835 1008 814C1001 803 993 794 982 789C972 782 962 777 954 774C941 770 927 768 912 768C900 768 887 770 873 774C860 777 849 782 840 789C831 796 823 805 816 814C810 823 806 834 803 847C799 863 797 877 797 890V1263C797 1292 804 1318 816 1339C823 1350 831 1359 842 1366C852 1372 862 1376 872 1379C883 1383 897 1385 912 1385C924 1385 937 1383 951 1380C964 1376 976 1371 985 1363C994 1356 1001 1349 1007 1340C1013 1331 1019 1319 1022 1304C1025 1290 1027 1276 1027 1263Z"/><path d="M1974 847V793C1974 748 1945 725 1889 725C1840 725 1816 749 1816 796C1816 800 1816 806 1817 811C1818 816 1822 822 1827 830C1833 840 1842 851 1855 864C1867 877 1883 891 1902 907C1912 916 1922 926 1935 936C1948 947 1963 958 1979 969C2032 1010 2074 1044 2107 1071C2139 1098 2170 1127 2200 1158C2222 1182 2241 1207 2256 1234C2271 1260 2282 1285 2287 1310C2293 1337 2296 1364 2296 1393C2296 1504 2261 1589 2190 1648C2120 1706 2018 1736 1883 1736C1778 1736 1693 1717 1627 1680C1589 1659 1559 1633 1538 1604C1518 1573 1504 1544 1496 1516C1485 1478 1479 1438 1479 1396V1284H1759V1367C1759 1393 1765 1414 1779 1430C1787 1442 1795 1450 1802 1455C1809 1459 1819 1462 1832 1465C1837 1467 1843 1468 1849 1469C1856 1470 1862 1470 1869 1470C1880 1470 1891 1470 1901 1468C1911 1466 1922 1461 1935 1455C1952 1445 1964 1432 1969 1415C1972 1403 1974 1394 1974 1386C1974 1376 1972 1367 1969 1357C1966 1348 1961 1338 1954 1327C1947 1319 1935 1307 1918 1291C1901 1276 1885 1262 1869 1248C1858 1240 1847 1231 1835 1221C1822 1212 1808 1201 1793 1190C1748 1155 1708 1123 1671 1092C1636 1062 1607 1034 1585 1008C1562 981 1544 956 1531 932C1517 908 1508 883 1502 856C1496 830 1494 803 1494 776C1494 566 1622 460 1878 460C1925 460 1970 465 2011 473C2053 481 2088 492 2117 508C2177 541 2218 588 2239 650C2248 679 2253 714 2253 754V847H1974Z"/><path d="M436 1888L422 2196H287C249 2196 214 2192 183 2185C122 2169 76 2139 46 2093C15 2047 0 1985 0 1909V287C0 211 15 149 46 103C76 57 122 27 183 11C214 4 249 -0 287 -0L2484 0C2522 0 2557 4 2588 11C2649 27 2695 57 2725 103C2756 149 2771 211 2771 287V1909C2771 1985 2756 2047 2725 2093C2695 2139 2649 2169 2588 2185C2557 2192 2522 2196 2484 2196L1342 2196C1372 2196 1479 2166 1479 1888L2420 1888C2448 1888 2463 1874 2463 1845L2463 351C2463 322 2448 308 2420 308L351 308C323 308 308 322 308 351L308 1845C308 1874 323 1888 351 1888L436 1888Z"/></svg>