<svg viewBox="0 0 9180 2196" xmlns="http://www.w3.org/2000/svg"><path d="M567 2196L581 1888H969C998 1888 1012 1874 1012 1845V1575C999 1588 984 1601 968 1614C952 1626 934 1637 913 1647C891 1658 870 1667 853 1672C836 1678 817 1683 795 1687C774 1691 753 1693 731 1693C697 1693 667 1688 640 1678C614 1669 591 1655 570 1637C527 1600 499 1545 486 1469C483 1450 480 1430 478 1409C476 1388 475 1365 475 1342V806C475 762 480 722 489 685C499 649 511 618 527 592C542 566 561 542 584 522C608 501 635 486 664 476C678 471 694 468 710 465C726 462 743 460 760 460C780 460 801 463 823 468C845 471 866 478 886 488C906 498 926 512 945 528C965 543 983 559 999 575C1017 593 1034 616 1052 642L1069 628C1065 619 1059 609 1052 598C1046 586 1041 574 1037 564C1033 555 1029 545 1024 532C1020 519 1017 509 1015 499C1013 490 1012 481 1012 475H1335V1909C1335 1986 1319 2047 1289 2093C1258 2139 1212 2169 1151 2185C1121 2192 1086 2196 1048 2196H567ZM1027 1263V890C1027 861 1020 835 1008 814C1001 803 993 794 982 789C972 782 962 777 954 774C941 770 927 768 912 768C899 768 887 770 873 774C860 777 849 782 840 789C831 796 823 805 816 814C810 823 806 834 803 847C799 863 797 877 797 890V1263C797 1292 804 1318 816 1339C823 1350 831 1359 842 1366C852 1372 862 1376 872 1379C883 1383 897 1385 912 1385C924 1385 937 1383 951 1380C964 1376 976 1371 985 1363C994 1356 1001 1349 1007 1340C1013 1331 1019 1319 1022 1304C1025 1290 1027 1276 1027 1263Z"/><path d="M1479 475H1801C1801 486 1800 495 1798 503C1796 511 1793 522 1788 535C1783 549 1781 558 1780 561C1779 564 1777 567 1774 571C1772 574 1768 583 1761 599C1756 610 1750 619 1744 628L1761 642C1776 619 1791 599 1805 582C1821 565 1840 548 1863 532C1901 505 1947 488 2000 481C2025 477 2054 475 2086 475H2142L2128 783H2037C1962 783 1904 795 1864 819C1822 844 1801 880 1801 925L1801 1721H1479V475Z"/><path d="M2236 1721V475H2558V1721H2236Z"/><path d="M3547 1721H3225C3225 1715 3225 1708 3226 1700C3228 1690 3231 1679 3236 1665C3241 1653 3245 1642 3248 1634C3250 1625 3256 1613 3265 1598C3268 1593 3271 1588 3273 1584C3276 1578 3279 1573 3282 1568L3265 1554C3254 1575 3240 1596 3223 1617C3206 1637 3188 1653 3170 1667C3151 1682 3130 1695 3107 1705C3084 1716 3061 1723 3037 1727C3025 1730 3012 1732 2998 1733C2985 1735 2972 1736 2958 1736C2778 1736 2687 1615 2687 1373V819C2687 725 2705 649 2740 589C2757 562 2776 538 2800 519C2822 500 2850 485 2882 475C2911 465 2942 460 2977 460C2992 460 3010 462 3030 466C3051 469 3068 473 3083 478C3104 487 3120 496 3132 503C3144 510 3160 520 3179 534C3194 546 3210 561 3225 578V375H3547V1721ZM3239 1297V899C3239 867 3233 840 3220 817C3217 811 3209 803 3199 794C3189 785 3178 778 3166 774C3154 770 3139 768 3124 768C3111 768 3098 770 3086 774C3073 777 3062 783 3053 791C3043 799 3035 808 3028 817C3023 826 3018 838 3015 854C3012 870 3010 885 3010 899V1297C3010 1329 3016 1355 3028 1377C3032 1385 3039 1394 3048 1403C3059 1412 3071 1418 3084 1422C3096 1426 3109 1428 3124 1428C3138 1428 3151 1426 3163 1423C3175 1419 3187 1413 3197 1405C3206 1397 3213 1389 3219 1380C3226 1371 3231 1358 3235 1342C3238 1326 3239 1311 3239 1297Z"/><path d="M4150 847V793C4150 748 4121 725 4065 725C4016 725 3992 749 3992 796C3992 800 3992 806 3993 811C3994 816 3998 822 4003 830C4009 839 4018 851 4031 864C4043 877 4059 891 4078 907C4087 916 4098 926 4111 936C4124 947 4139 958 4155 969C4208 1010 4250 1044 4283 1071C4315 1098 4346 1127 4376 1158C4398 1182 4417 1207 4432 1234C4447 1260 4458 1285 4463 1310C4469 1337 4472 1364 4472 1393C4472 1504 4437 1589 4366 1648C4296 1706 4194 1736 4059 1736C3954 1736 3869 1717 3803 1679C3765 1659 3735 1633 3714 1604C3694 1573 3680 1544 3672 1516C3661 1478 3655 1438 3655 1396V1284H3935V1367C3935 1393 3941 1414 3955 1430C3963 1442 3971 1450 3978 1455C3985 1459 3995 1462 4008 1465C4013 1467 4019 1468 4025 1469C4032 1470 4038 1470 4045 1470C4056 1470 4067 1470 4076 1468C4087 1466 4098 1461 4111 1455C4128 1445 4139 1432 4145 1415C4148 1403 4150 1394 4150 1386C4150 1376 4148 1367 4145 1357C4142 1348 4137 1338 4129 1327C4123 1319 4111 1307 4094 1291C4077 1276 4061 1262 4045 1248C4034 1240 4023 1231 4011 1221C3998 1212 3984 1201 3969 1189C3924 1155 3883 1123 3847 1092C3812 1062 3783 1034 3761 1008C3738 981 3720 956 3707 932C3693 908 3684 883 3678 856C3672 830 3670 803 3670 776C3670 566 3798 460 4054 460C4101 460 4146 465 4187 473C4229 481 4264 492 4293 508C4353 541 4394 588 4415 650C4424 679 4429 714 4429 754V847H4150Z"/><path d="M5912 1406V475H6234V1349C6234 1369 6239 1386 6248 1400C6251 1405 6256 1410 6263 1415C6270 1419 6279 1423 6287 1425C6296 1427 6304 1428 6312 1428C6319 1428 6326 1427 6333 1426C6339 1424 6347 1422 6354 1420C6363 1418 6370 1416 6376 1413C6382 1409 6389 1405 6399 1400C6403 1398 6406 1396 6409 1395C6413 1392 6417 1389 6420 1386V475H6743V1721H6420C6420 1712 6421 1702 6423 1693C6425 1683 6428 1672 6432 1658C6434 1649 6437 1637 6442 1624C6447 1610 6451 1599 6456 1589C6459 1585 6462 1580 6465 1575C6467 1570 6469 1566 6472 1562L6461 1554C6443 1577 6426 1598 6408 1618C6390 1638 6372 1655 6353 1668C6333 1683 6313 1695 6293 1705C6274 1715 6253 1722 6230 1727C6219 1730 6208 1732 6197 1733C6186 1735 6175 1736 6164 1736C6104 1736 6052 1716 6008 1678C5987 1660 5969 1637 5955 1609C5941 1582 5931 1552 5923 1519C5916 1485 5912 1447 5912 1406Z"/><path d="M6886 475H7208C7208 479 7207 487 7205 499C7203 511 7201 519 7198 526C7194 537 7190 547 7187 558C7183 568 7177 581 7169 595C7167 601 7164 607 7161 612C7158 617 7155 622 7151 628L7168 642C7186 616 7203 594 7220 578C7236 561 7254 544 7274 528C7292 513 7312 501 7334 491C7356 480 7378 472 7399 468C7409 466 7419 464 7430 463C7442 461 7453 460 7465 460C7493 460 7521 465 7549 475C7578 483 7603 497 7624 515C7666 553 7693 607 7707 675C7710 693 7712 711 7714 730C7716 749 7717 769 7717 790V1721H7394V847C7394 836 7393 827 7391 821C7390 815 7386 806 7380 796C7376 790 7370 785 7363 780C7355 775 7348 772 7343 771C7333 769 7325 768 7317 768C7309 768 7302 769 7295 771C7289 772 7282 774 7274 776C7265 778 7258 780 7252 784C7247 787 7240 791 7230 796C7226 798 7222 800 7218 803C7215 805 7212 807 7208 810V1721H6886V475Z"/><path d="M8705 1721H8383C8383 1715 8383 1708 8384 1700C8386 1690 8389 1679 8394 1665C8399 1653 8403 1642 8406 1634C8408 1625 8414 1613 8423 1598C8426 1593 8428 1588 8431 1584C8434 1578 8437 1573 8440 1568L8423 1554C8412 1575 8398 1596 8381 1617C8364 1637 8346 1653 8328 1667C8309 1682 8288 1695 8265 1705C8242 1716 8219 1723 8195 1727C8182 1730 8170 1732 8156 1733C8143 1735 8129 1736 8116 1736C7936 1736 7845 1615 7845 1373V819C7845 725 7863 649 7898 589C7915 562 7934 538 7957 519C7980 500 8008 485 8040 475C8069 465 8100 460 8135 460C8150 460 8168 462 8188 466C8209 469 8226 473 8241 478C8262 487 8278 496 8289 503C8302 510 8318 520 8337 534C8352 546 8368 561 8383 578V375H8705V1721ZM8397 1297V899C8397 867 8391 840 8378 817C8374 811 8367 803 8357 794C8347 785 8336 778 8324 774C8311 770 8298 768 8282 768C8269 768 8256 770 8244 774C8231 777 8220 783 8211 791C8201 799 8193 808 8186 817C8181 826 8176 838 8173 854C8170 870 8168 885 8168 899V1297C8168 1329 8174 1355 8186 1377C8190 1385 8197 1394 8206 1403C8217 1412 8229 1418 8242 1422C8254 1426 8267 1428 8282 1428C8296 1428 8309 1426 8321 1423C8333 1419 8345 1413 8355 1405C8364 1397 8371 1389 8377 1380C8384 1371 8389 1358 8393 1342C8395 1326 8397 1311 8397 1297Z"/><path d="M5175 461C5527 461 5812 746 5812 1098C5812 1450 5527 1735 5175 1735C4823 1735 4538 1450 4538 1098C4538 746 4823 461 5175 461ZM4659 1172C4659 1296 4702 1396 4797 1487C4889 1575 5013 1613 5101 1613C5090 1613 4930 1589 4812 1472C4686 1345 4659 1193 4659 1172ZM4762 1098C4762 1222 4776 1322 4871 1413C4963 1501 5087 1511 5175 1511C5090 1511 4977 1482 4888 1396C4795 1307 4762 1199 4762 1098ZM5175 785C5002 785 4862 925 4862 1098C4862 1271 5002 1411 5175 1411C5348 1411 5488 1271 5488 1098C5488 925 5348 785 5175 785ZM5172 686C5257 686 5369 714 5459 801C5551 890 5585 998 5585 1099C5585 975 5571 875 5476 784C5384 696 5260 686 5172 686ZM5246 584C5257 584 5417 608 5535 725C5661 852 5688 1004 5688 1025C5688 901 5645 801 5550 710C5458 622 5334 584 5246 584Z"/><circle cx="5175" cy="1098" r="48"/><path d="M436 1888L422 2196H287C249 2196 214 2192 183 2185C122 2169 76 2139 46 2093C15 2047 0 1985 0 1909V287C0 211 15 149 46 103C76 57 122 27 183 11C214 4 249 -0 287 -0L3058 0H3225C3132 0 3081 106 3081 308L351 308C323 308 308 322 308 351L308 1845C308 1874 323 1888 351 1888L436 1888Z"/><path d="M3590 308L8239 308C8239 68 8306 0 8383 0H8239H3512C3474 0 3439 4 3408 11C3347 27 3301 57 3271 103C3240 149 3225 211 3225 287V407H3547V351C3547 322 3562 308 3590 308Z"/><path d="M8829 1888L1479 1888C1479 2166 1372 2196 1342 2196L1479 2196H8893C8931 2196 8966 2192 8997 2185C9058 2169 9104 2139 9134 2093C9165 2047 9180 1985 9180 1909V287C9180 211 9165 149 9134 103C9104 57 9058 27 8997 11C8966 4 8931 0 8893 0H8670C8632 0 8597 4 8566 11C8505 27 8459 57 8429 103C8398 149 8383 211 8383 287V407H8705V351C8705 322 8719 308 8748 308H8829C8857 308 8872 322 8872 351L8872 1845C8872 1874 8857 1888 8829 1888Z"/></svg>