<svg viewBox="0 226 1850 903" fill="black" xmlns="http://www.w3.org/2000/svg">
	<!-- logo -->
	<g opacity="0" style="transform-origin:center; transform-box:fill-box;">
		<animate attributeName="opacity" values="0;1" begin=".45s" dur=".1s" fill="freeze"/>
		<animateTransform
			attributeName="transform" type="scale" begin=".45s" dur=".1s" from=".9" to="1" fill="freeze"
			calcMode="spline" keyTimes="0;1" keySplines=".25 .1 .25 1"
		/>
		<!-- "gridsound" -->
		<g>
			<path d="M114.206 902.549L117.093 840.474H195.349C201.125 840.474 204.012 837.587 204.012 831.813V777.416C201.317 780.11 198.333 782.709 195.061 785.211C191.788 787.713 188.13 789.927 184.087 791.852C179.467 794.161 175.424 795.894 171.959 797.048C168.494 798.203 164.548 799.166 160.12 799.936C155.884 800.705 151.649 801.09 147.414 801.09C140.484 801.09 134.323 800.128 128.933 798.203C123.735 796.279 119.019 793.488 114.783 789.83C106.12 782.516 100.537 771.256 98.0347 756.05C97.2647 752.201 96.6872 748.159 96.3021 743.924C95.9171 739.69 95.7246 735.166 95.7246 730.354V622.374C95.7246 613.52 96.6872 605.436 98.6123 598.122C100.537 590.807 103.04 584.552 106.12 579.355C109.2 573.965 113.051 569.25 117.671 565.208C122.484 560.973 127.874 557.893 133.842 555.969C136.73 555.006 139.81 554.236 143.082 553.659C146.355 553.081 149.724 552.793 153.189 552.793C157.232 552.793 161.467 553.274 165.895 554.236C170.323 555.006 174.558 556.354 178.601 558.278C182.644 560.396 186.59 563.09 190.44 566.363C194.483 569.442 198.141 572.618 201.413 575.89C204.879 579.547 208.44 584.071 212.098 589.46L215.563 586.573C214.601 584.84 213.445 582.819 212.098 580.51C210.75 578.007 209.691 575.698 208.921 573.58C208.151 571.848 207.285 569.731 206.323 567.229C205.552 564.726 204.975 562.513 204.59 560.588C204.205 558.663 204.012 557.027 204.012 555.68H268.985V844.805C268.985 860.204 265.905 872.522 259.744 881.761C253.584 891 244.344 897.16 232.023 900.239C225.862 901.779 218.932 902.549 211.232 902.549H114.206ZM206.9 714.475V639.408C206.9 633.441 205.649 628.341 203.146 624.106C201.798 621.796 200.066 620.064 197.948 618.909C195.831 617.562 193.906 616.599 192.173 616.022C189.67 615.252 186.879 614.867 183.799 614.867C181.296 614.867 178.697 615.252 176.002 616.022C173.307 616.599 171.093 617.562 169.36 618.909C167.435 620.449 165.799 622.181 164.451 624.106C163.296 625.838 162.43 628.052 161.852 630.747C161.082 633.826 160.697 636.714 160.697 639.408V714.475C160.697 720.442 161.949 725.543 164.451 729.777C165.799 732.087 167.531 733.915 169.649 735.263C171.767 736.418 173.788 737.284 175.713 737.861C178.023 738.631 180.718 739.016 183.799 739.016C186.301 739.016 188.9 738.727 191.595 738.15C194.291 737.38 196.601 736.225 198.526 734.685C200.258 733.338 201.702 731.798 202.857 730.066C204.205 728.141 205.264 725.735 206.034 722.848C206.611 719.961 206.9 717.17 206.9 714.475Z"/>
			<path d="M298.056 555.724H362.947C362.947 557.842 362.766 559.722 362.381 561.454C361.996 562.994 361.322 565.111 360.36 567.806C359.397 570.693 358.82 572.426 358.627 573.003C358.434 573.58 358.049 574.254 357.472 575.024C357.087 575.601 356.221 577.526 354.873 580.798C353.91 582.916 352.755 584.84 351.408 586.573L354.873 589.46C357.953 584.84 360.937 580.798 363.825 577.334C366.905 573.869 370.755 570.501 375.376 567.229C383.076 561.839 392.317 558.375 403.097 556.835C408.102 556.065 413.836 555.724 420.381 555.724H431.667L428.797 617.754H410.605C395.397 617.754 383.75 620.16 375.664 624.972C367.194 630.169 362.958 637.291 362.958 646.337L362.947 806.825H298.056V555.724Z"/>
			<path d="M450.548 806.865V555.68H515.52V806.865H450.548Z"/>
			<path d="M714.826 806.865H649.853C649.853 805.71 649.95 804.266 650.142 802.534C650.527 800.609 651.201 798.3 652.164 795.605C653.126 793.103 653.896 790.985 654.474 789.253C655.051 787.521 656.206 785.115 657.939 782.035C658.516 781.073 659.094 780.11 659.672 779.148C660.249 777.993 660.827 776.934 661.404 775.972L657.939 773.085C655.821 777.319 653.03 781.554 649.565 785.788C646.099 789.83 642.538 793.199 638.88 795.894C635.03 798.973 630.795 801.572 626.174 803.689C621.554 805.806 616.838 807.25 612.025 808.02C609.522 808.597 606.923 808.982 604.228 809.175C601.533 809.56 598.838 809.752 596.143 809.752C559.758 809.752 541.566 785.403 541.566 736.706V624.972C541.566 606.109 545.127 590.711 552.25 578.777C555.523 573.195 559.469 568.48 564.09 564.63C568.71 560.781 574.293 557.797 580.838 555.68C586.613 553.755 592.966 552.793 599.897 552.793C602.977 552.793 606.538 553.178 610.581 553.948C614.816 554.525 618.378 555.295 621.266 556.257C625.501 558.182 628.773 559.914 631.083 561.454C633.586 562.802 636.763 564.823 640.613 567.517C643.693 570.02 646.838 573.017 649.919 576.481V535.572H714.826V806.865ZM652.741 721.404V641.141C652.741 634.789 651.49 629.303 648.987 624.684C648.217 623.336 646.773 621.796 644.656 620.064C642.731 618.139 640.517 616.792 638.014 616.022C635.511 615.252 632.72 614.867 629.64 614.867C626.945 614.867 624.346 615.252 621.843 616.022C619.34 616.599 617.126 617.754 615.201 619.487C613.276 621.026 611.64 622.759 610.292 624.684C609.137 626.416 608.271 628.918 607.693 632.19C606.923 635.27 606.538 638.253 606.538 641.141V721.404C606.538 727.756 607.79 733.145 610.292 737.572C611.062 739.112 612.41 740.845 614.335 742.769C616.453 744.502 618.859 745.753 621.554 746.523C623.864 747.293 626.56 747.678 629.64 747.678C632.335 747.678 634.934 747.389 637.436 746.811C639.939 746.042 642.249 744.79 644.367 743.058C646.099 741.518 647.543 739.882 648.698 738.15C650.046 736.225 651.105 733.627 651.875 730.354C652.452 727.275 652.741 724.291 652.741 721.404Z"/>
			<path d="M836.232 630.747V619.775C836.232 610.729 830.553 606.206 819.195 606.206C809.377 606.206 804.468 610.921 804.468 620.353C804.468 621.315 804.564 622.374 804.757 623.529C804.949 624.491 805.623 625.742 806.778 627.282C807.933 629.207 809.762 631.517 812.265 634.211C814.767 636.714 817.944 639.601 821.794 642.873C823.719 644.605 825.933 646.53 828.436 648.647C831.131 650.764 834.115 652.978 837.388 655.288C847.976 663.564 856.542 670.397 863.088 675.787C869.633 681.176 875.89 687.047 881.858 693.399C886.285 698.211 890.039 703.311 893.12 708.701C896.2 713.898 898.317 718.998 899.473 724.003C900.628 729.392 901.205 734.974 901.205 740.748C901.205 763.076 894.082 780.206 879.836 792.14C865.783 803.881 845.184 809.752 818.04 809.752C796.864 809.752 779.634 805.999 766.351 798.492C758.65 794.257 752.682 789.157 748.447 783.19C744.404 777.031 741.613 771.16 740.073 765.578C737.763 757.879 736.608 749.795 736.608 741.326V718.806H792.917V735.551C792.917 740.748 794.265 744.983 796.96 748.255C798.693 750.565 800.233 752.201 801.58 753.163C803.12 753.933 805.142 754.607 807.644 755.184C808.8 755.569 809.955 755.858 811.11 756.05C812.457 756.243 813.805 756.339 815.152 756.339C817.463 756.339 819.58 756.147 821.505 755.762C823.623 755.377 825.933 754.511 828.436 753.163C831.901 751.238 834.211 748.544 835.366 745.079C835.944 742.769 836.232 740.845 836.232 739.305C836.232 737.38 835.944 735.455 835.366 733.53C834.789 731.606 833.73 729.585 832.19 727.467C830.842 725.735 828.436 723.329 824.971 720.249C821.698 717.17 818.425 714.283 815.152 711.588C813.035 709.856 810.725 708.027 808.222 706.102C805.719 704.177 802.928 702.06 799.848 699.75C790.8 692.821 782.618 686.277 775.303 680.117C768.18 673.958 762.404 668.28 757.977 663.083C753.356 657.694 749.699 652.593 747.003 647.781C744.308 642.969 742.383 637.868 741.228 632.479C740.073 627.282 739.495 621.893 739.495 616.311C739.495 573.965 765.292 552.793 816.885 552.793C826.511 552.793 835.462 553.659 843.74 555.391C852.211 556.931 859.334 559.241 865.109 562.32C877.237 569.057 885.419 578.585 889.654 590.904C891.58 596.87 892.542 603.896 892.542 611.98V630.747H836.232Z"/>
			<path d="M1042.89 552.903C1113.79 552.903 1171.26 610.377 1171.26 681.274C1171.26 752.171 1113.79 809.645 1042.89 809.645C971.996 809.645 914.521 752.172 914.521 681.274C914.522 610.376 971.996 552.903 1042.89 552.903ZM938.906 696.187C938.906 721.176 947.496 741.247 966.717 759.667C985.194 777.376 1010.15 785.059 1027.98 785.059C1025.66 785.059 993.418 780.223 969.739 756.543C944.247 731.051 938.906 700.42 938.906 696.187ZM959.664 681.274C959.664 706.263 962.41 726.334 981.63 744.754C1000.11 762.463 1025.06 764.503 1042.89 764.503C1025.66 764.503 1003.05 758.661 985.056 741.329C966.333 723.301 959.664 701.628 959.664 681.274ZM1042.89 618.197C1008.06 618.197 979.816 646.437 979.816 681.274C979.816 716.111 1008.06 744.351 1042.89 744.351C1077.73 744.351 1105.97 716.111 1105.97 681.274C1105.97 646.437 1077.73 618.197 1042.89 618.197ZM1042.19 598.145C1059.42 598.145 1082.03 603.989 1100.03 621.321C1118.75 639.349 1125.42 661.021 1125.42 681.375C1125.42 656.386 1122.67 636.315 1103.45 617.894C1084.97 600.185 1060.02 598.145 1042.19 598.145ZM1057.1 577.589C1059.42 577.59 1091.66 582.426 1115.34 606.105C1140.83 631.598 1146.17 662.23 1146.17 666.462C1146.17 641.473 1137.58 621.403 1118.36 602.982C1099.89 585.273 1074.94 577.589 1057.1 577.589Z"/>
			<circle cx="1042.89" cy="681.274" r="9.6732"/>
			<path d="M1191.36 743.347V555.68H1256.33V731.798C1256.33 735.84 1257.3 739.305 1259.22 742.192C1259.8 743.154 1260.76 744.117 1262.11 745.079C1263.65 746.042 1265.28 746.715 1267.02 747.1C1268.75 747.485 1270.39 747.678 1271.93 747.678C1273.47 747.678 1274.91 747.581 1276.26 747.389C1277.61 747.004 1279.05 746.619 1280.59 746.234C1282.32 745.849 1283.77 745.368 1284.92 744.79C1286.08 744.021 1287.62 743.154 1289.54 742.192C1290.31 741.807 1290.98 741.422 1291.56 741.037C1292.33 740.46 1293.1 739.882 1293.87 739.305V555.68H1358.85V806.865H1293.87C1293.87 804.94 1294.06 803.015 1294.45 801.09C1294.83 799.166 1295.41 796.856 1296.18 794.161C1296.57 792.236 1297.24 789.927 1298.2 787.232C1299.17 784.537 1300.13 782.228 1301.09 780.303C1301.67 779.34 1302.25 778.378 1302.82 777.416C1303.21 776.453 1303.69 775.587 1304.27 774.817L1301.96 773.085C1298.49 777.704 1294.93 782.035 1291.27 786.077C1287.81 790.119 1284.15 793.488 1280.3 796.182C1276.26 799.069 1272.21 801.572 1268.17 803.689C1264.32 805.614 1260.09 807.057 1255.47 808.02C1253.35 808.597 1251.13 808.982 1248.82 809.175C1246.71 809.56 1244.49 809.752 1242.18 809.752C1230.05 809.752 1219.56 805.902 1210.71 798.203C1206.47 794.546 1202.91 789.927 1200.02 784.345C1197.33 778.763 1195.21 772.7 1193.67 766.156C1192.13 759.226 1191.36 751.623 1191.36 743.347Z"/>
			<path d="M1387.63 555.68H1452.6C1452.6 556.45 1452.41 558.086 1452.03 560.588C1451.64 562.898 1451.16 564.726 1450.58 566.074C1449.81 568.191 1449.04 570.308 1448.27 572.426C1447.5 574.543 1446.35 577.045 1444.81 579.932C1444.23 581.087 1443.65 582.242 1443.07 583.397C1442.5 584.359 1441.82 585.418 1441.05 586.573L1444.52 589.46C1448.18 584.071 1451.64 579.74 1454.91 576.468C1458.19 573.003 1461.84 569.635 1465.89 566.363C1469.55 563.475 1473.59 560.973 1478.02 558.856C1482.44 556.739 1486.77 555.199 1491.01 554.236C1493.13 553.851 1495.25 553.563 1497.36 553.37C1499.67 552.985 1501.98 552.793 1504.29 552.793C1510.07 552.793 1515.75 553.755 1521.33 555.68C1527.11 557.412 1532.11 560.107 1536.35 563.764C1544.82 571.463 1550.4 582.242 1553.1 596.1C1553.67 599.565 1554.15 603.222 1554.54 607.072C1554.92 610.921 1555.12 614.963 1555.12 619.198V806.865H1490.14V630.747C1490.14 628.437 1489.95 626.705 1489.57 625.55C1489.18 624.202 1488.41 622.47 1487.26 620.353C1486.49 619.198 1485.33 618.139 1483.79 617.177C1482.25 616.215 1480.9 615.637 1479.75 615.445C1477.82 615.06 1476.09 614.867 1474.55 614.867C1473.01 614.867 1471.57 615.06 1470.22 615.445C1468.87 615.637 1467.43 615.926 1465.89 616.311C1464.15 616.696 1462.71 617.273 1461.56 618.043C1460.4 618.621 1458.86 619.39 1456.94 620.353C1456.17 620.738 1455.4 621.219 1454.63 621.796C1454.05 622.181 1453.37 622.663 1452.6 623.24V806.865H1387.63V555.68Z"/>
			<path d="M1754.28 806.865H1689.3C1689.3 805.71 1689.4 804.266 1689.59 802.534C1689.98 800.609 1690.65 798.3 1691.61 795.605C1692.58 793.103 1693.35 790.985 1693.92 789.253C1694.5 787.521 1695.66 785.115 1697.39 782.035C1697.97 781.073 1698.54 780.11 1699.12 779.148C1699.7 777.993 1700.28 776.934 1700.85 775.972L1697.39 773.085C1695.27 777.319 1692.48 781.554 1689.01 785.788C1685.55 789.83 1681.99 793.199 1678.33 795.894C1674.48 798.973 1670.24 801.572 1665.62 803.689C1661 805.806 1656.29 807.25 1651.47 808.02C1648.97 808.597 1646.37 808.982 1643.68 809.175C1640.98 809.56 1638.29 809.752 1635.59 809.752C1599.21 809.752 1581.02 785.403 1581.02 736.706V624.972C1581.02 606.109 1584.58 590.711 1591.7 578.777C1594.97 573.195 1598.92 568.48 1603.54 564.63C1608.16 560.781 1613.74 557.797 1620.29 555.68C1626.06 553.755 1632.42 552.793 1639.35 552.793C1642.43 552.793 1645.99 553.178 1650.03 553.948C1654.27 554.525 1657.83 555.295 1660.72 556.257C1664.95 558.182 1668.22 559.914 1670.53 561.454C1673.04 562.802 1676.21 564.823 1680.06 567.517C1683.14 570.02 1686.3 573.017 1689.38 576.481V535.572H1754.28V806.865ZM1692.19 721.404V641.141C1692.19 634.789 1690.94 629.303 1688.44 624.684C1687.67 623.336 1686.22 621.796 1684.11 620.064C1682.18 618.139 1679.97 616.792 1677.46 616.022C1674.96 615.252 1672.17 614.867 1669.09 614.867C1666.39 614.867 1663.8 615.252 1661.29 616.022C1658.79 616.599 1656.58 617.754 1654.65 619.487C1652.73 621.026 1651.09 622.759 1649.74 624.684C1648.59 626.416 1647.72 628.918 1647.14 632.19C1646.37 635.27 1645.99 638.253 1645.99 641.141V721.404C1645.99 727.756 1647.24 733.145 1649.74 737.572C1650.51 739.112 1651.86 740.845 1653.78 742.769C1655.9 744.502 1658.31 745.753 1661 746.523C1663.31 747.293 1666.01 747.678 1669.09 747.678C1671.78 747.678 1674.38 747.389 1676.89 746.811C1679.39 746.042 1681.7 744.79 1683.82 743.058C1685.55 741.518 1686.99 739.882 1688.15 738.15C1689.5 736.225 1690.55 733.627 1691.32 730.354C1691.9 727.275 1692.19 724.291 1692.19 721.404Z"/>
		</g>
		<!-- rect around -->
		<g>
			<path d="M87.865 840.479L85.0436 902.549H57.8379C50.1375 902.549 43.1062 901.779 36.9459 900.24C24.6251 897.16 15.3845 891 9.22412 881.761C3.06384 872.522 0.00012207 860.11 0.00012207 844.711V517.838C0.00012207 502.439 3.06384 490.027 9.22412 480.788C15.3845 471.549 24.6249 465.389 36.9457 462.31C43.1061 460.77 50.1373 460 57.8378 460L616.264 460H649.918C631.177 460 620.899 481.261 620.899 522.07L70.798 522.074C65.0226 522.074 62.0698 524.961 62.0698 530.735L62.0699 831.814C62.0699 837.588 65.0226 840.475 70.798 840.475L87.865 840.479Z"/>
			<path d="M723.537 522.074L1660.36 522.07C1660.36 473.603 1673.77 460 1689.38 460H1660.36H707.756C700.056 460 693.024 460.77 686.864 462.31C674.543 465.389 665.303 471.549 659.142 480.788C652.982 490.027 649.918 502.439 649.918 517.838V542.021H714.809V530.735C714.809 524.961 717.762 522.074 723.537 522.074Z"/>
			<path d="M1779.2 840.475L298.056 840.479C298.056 896.503 276.492 902.549 270.447 902.549L298.056 902.549H1792.16C1799.86 902.549 1806.89 901.779 1813.05 900.24C1825.37 897.16 1834.62 891 1840.78 881.761C1846.94 872.522 1850 860.11 1850 844.711V517.838C1850 502.439 1846.94 490.027 1840.78 480.788C1834.62 471.549 1825.38 465.389 1813.05 462.31C1806.89 460.77 1799.86 460 1792.16 460H1747.22C1739.52 460 1732.49 460.77 1726.33 462.31C1714.01 465.389 1704.77 471.549 1698.61 480.788C1692.45 490.027 1689.38 502.439 1689.38 517.838V542.021H1754.28V530.735C1754.28 524.961 1757.23 522.074 1763 522.074H1779.2C1784.98 522.074 1787.93 524.961 1787.93 530.735L1787.93 831.814C1787.93 837.588 1784.98 840.475 1779.2 840.475Z"/>
		</g>
	</g>
	<!-- "g", "r", "i", ... -->
	<g>
		<animate attributeName="opacity" values="1;0" begin=".5s" dur=".1s" fill="freeze"/>
		<path opacity="0" d="M114.475 441.824L117.362 379.761H195.592C201.365 379.761 204.252 376.874 204.252 371.101V317.78C201.558 320.475 198.575 323.073 195.303 325.574C192.031 328.076 188.375 330.289 184.333 332.214C179.715 334.523 175.673 336.255 172.209 337.41C168.745 338.564 164.8 339.527 160.374 340.296C156.14 341.066 151.906 341.451 147.672 341.451C140.744 341.451 134.586 340.489 129.197 338.564C124.001 336.64 119.286 333.85 115.052 330.193C106.392 322.88 100.811 311.622 98.3094 296.419C97.5396 292.57 96.9622 288.529 96.5773 284.295C96.1924 280.061 96 275.539 96 270.728V162.766C96 153.914 96.9622 145.831 98.8867 138.518C100.811 131.206 103.313 124.951 106.392 119.755C109.471 114.367 113.32 109.652 117.939 105.61C122.75 101.377 128.139 98.2975 134.105 96.3731C136.991 95.4109 140.071 94.6411 143.342 94.0638C146.614 93.4864 149.982 93.1978 153.446 93.1978C157.487 93.1978 161.721 93.6789 166.147 94.6411C170.573 95.4109 174.807 96.758 178.849 98.6824C182.89 100.799 186.835 103.494 190.684 106.765C194.726 109.844 198.382 113.02 201.654 116.291C205.118 119.948 208.678 124.47 212.335 129.858L215.799 126.972C214.836 125.24 213.682 123.219 212.335 120.91C210.987 118.408 209.929 116.099 209.159 113.982C208.389 112.25 207.523 110.133 206.561 107.631C205.791 105.129 205.214 102.916 204.829 100.992C204.444 99.0673 204.252 97.4315 204.252 96.0844H269.203V384.091C269.203 399.487 266.124 411.803 259.965 421.04C253.807 430.278 244.57 436.436 232.253 439.515C226.095 441.055 219.166 441.824 211.469 441.824H114.475ZM207.139 254.851V179.798C207.139 173.832 205.888 168.732 203.386 164.498C202.039 162.189 200.307 160.457 198.19 159.302C196.073 157.955 194.148 156.993 192.416 156.416C189.914 155.646 187.124 155.261 184.045 155.261C181.543 155.261 178.945 155.646 176.251 156.416C173.556 156.993 171.343 157.955 169.611 159.302C167.687 160.842 166.051 162.574 164.704 164.498C163.549 166.23 162.683 168.444 162.106 171.138C161.336 174.217 160.951 177.104 160.951 179.798V254.851C160.951 260.817 162.202 265.917 164.704 270.15C166.051 272.46 167.783 274.288 169.9 275.635C172.017 276.79 174.038 277.656 175.962 278.233C178.271 279.003 180.966 279.388 184.045 279.388C186.547 279.388 189.145 279.099 191.839 278.522C194.533 277.752 196.843 276.597 198.767 275.058C200.499 273.711 201.942 272.171 203.097 270.439C204.444 268.515 205.503 266.109 206.272 263.222C206.85 260.336 207.139 257.545 207.139 254.851Z">
			<animate attributeName="opacity" values="0;1" begin="0s" dur=".1s" fill="freeze"/>
			<animateTransform
				attributeName="transform" type="translate" begin="0s" dur=".1s" from="0,0" to="0,460" fill="freeze"
				calcMode="spline" keyTimes="0;1" keySplines=".25 .1 .25 1"
			/>
		</path>
		<path opacity="0" d="M298.193 96.0845H363.144C363.144 98.2014 362.952 100.126 362.567 101.858C362.182 103.397 361.509 105.514 360.546 108.208C359.584 111.095 359.007 112.827 358.814 113.404C358.622 113.982 358.237 114.655 357.66 115.425C357.275 116.002 356.409 117.927 355.062 121.198C354.099 123.315 352.945 125.24 351.598 126.972L355.062 129.858C358.141 125.24 361.124 121.198 364.01 117.734C367.09 114.27 370.939 110.903 375.557 107.631C383.255 102.243 392.493 98.7787 403.27 97.2391C408.273 96.4694 414.047 96.0845 420.59 96.0845H431.848L428.962 158.148H410.775C395.572 158.148 383.929 160.553 375.846 165.364C367.378 170.56 363.144 177.681 363.144 186.726V347.224H298.193V96.0845Z">
			<animate attributeName="opacity" values="0;1" begin=".05s" dur=".1s" fill="freeze"/>
			<animateTransform
				attributeName="transform" type="translate" begin=".05s" dur=".1s" from="0,0" to="0,460" fill="freeze"
				calcMode="spline" keyTimes="0;1" keySplines=".25 .1 .25 1"
			/>
		</path>
		<path opacity="0" d="M450.704 347.225V96.0846H515.655V347.225H450.704ZM447.24 36.9493C447.24 28.6742 449.55 21.2651 454.168 14.722C456.093 11.6429 458.595 8.94866 461.674 6.63933C464.945 4.32998 468.313 2.6942 471.777 1.73198C475.434 0.577326 479.283 0 483.324 0C487.173 0 490.926 0.577326 494.582 1.73198C498.239 2.6942 501.703 4.32998 504.974 6.63933C511.133 11.258 515.367 17.32 517.676 24.8253C518.831 28.6742 519.408 32.7155 519.408 36.9493C519.408 47.5338 516.04 56.4824 509.305 63.7953C502.569 71.1082 493.909 74.7646 483.324 74.7646C475.049 74.7646 467.928 72.3591 461.962 67.548C458.883 65.2387 456.285 62.6407 454.168 59.754C452.051 56.6749 450.319 53.0184 448.972 48.7846C447.818 45.1282 447.24 41.1831 447.24 36.9493Z">
			<animate attributeName="opacity" values="0;1" begin=".1s" dur=".1s" fill="freeze"/>
			<animateTransform
				attributeName="transform" type="translate" begin=".1s" dur=".1s" from="0,0" to="0,460" fill="freeze"
				calcMode="spline" keyTimes="0;1" keySplines=".25 .1 .25 1"
			/>
		</path>
		<path opacity="0" d="M714.896 347.225H649.945C649.945 346.07 650.041 344.627 650.234 342.895C650.619 340.97 651.292 338.661 652.255 335.967C653.217 333.465 653.987 331.348 654.564 329.616C655.141 327.884 656.296 325.478 658.028 322.399C658.605 321.437 659.183 320.475 659.76 319.513C660.337 318.358 660.915 317.3 661.492 316.337L658.028 313.451C655.911 317.684 653.121 321.918 649.656 326.152C646.192 330.193 642.632 333.561 638.976 336.255C635.127 339.334 630.893 341.932 626.274 344.049C621.655 346.166 616.94 347.61 612.129 348.379C609.627 348.957 607.029 349.342 604.335 349.534C601.641 349.919 598.947 350.111 596.252 350.111C559.88 350.111 541.693 325.767 541.693 277.079V165.365C541.693 146.505 545.254 131.11 552.374 119.178C555.646 113.597 559.591 108.882 564.21 105.033C568.828 101.184 574.409 98.2016 580.953 96.0847C586.726 94.1603 593.077 93.198 600.005 93.198C603.084 93.198 606.644 93.5829 610.686 94.3527C614.92 94.93 618.48 95.6998 621.367 96.662C625.601 98.5865 628.872 100.318 631.182 101.858C633.683 103.205 636.859 105.226 640.708 107.92C643.787 110.422 646.866 113.405 649.945 116.869V0.824707H714.896V347.225ZM652.832 261.779V181.53C652.832 175.179 651.581 169.695 649.079 165.076C648.309 163.729 646.866 162.189 644.749 160.457C642.825 158.533 640.611 157.186 638.11 156.416C635.608 155.646 632.817 155.261 629.738 155.261C627.044 155.261 624.446 155.646 621.944 156.416C619.442 156.993 617.229 158.148 615.305 159.88C613.38 161.42 611.744 163.152 610.397 165.076C609.242 166.808 608.376 169.31 607.799 172.581C607.029 175.66 606.644 178.643 606.644 181.53V261.779C606.644 268.13 607.895 273.518 610.397 277.945C611.167 279.484 612.514 281.216 614.439 283.141C616.555 284.873 618.961 286.124 621.655 286.893C623.965 287.663 626.659 288.048 629.738 288.048C632.432 288.048 635.03 287.759 637.532 287.182C640.034 286.412 642.343 285.161 644.46 283.429C646.192 281.89 647.636 280.254 648.79 278.522C650.138 276.598 651.196 274 651.966 270.728C652.543 267.649 652.832 264.666 652.832 261.779Z">
			<animate attributeName="opacity" values="0;1" begin=".15s" dur=".1s" fill="freeze"/>
			<animateTransform
				attributeName="transform" type="translate" begin=".15s" dur=".1s" from="0,0" to="0,460" fill="freeze"
				calcMode="spline" keyTimes="0;1" keySplines=".25 .1 .25 1"
			/>
		</path>
		<path opacity="0" d="M836.262 171.138V160.168C836.262 151.124 830.584 146.601 819.23 146.601C809.415 146.601 804.508 151.316 804.508 160.746C804.508 161.708 804.604 162.766 804.796 163.921C804.989 164.883 805.662 166.134 806.817 167.674C807.972 169.598 809.8 171.908 812.302 174.602C814.804 177.104 817.979 179.99 821.828 183.262C823.752 184.994 825.966 186.918 828.467 189.035C831.162 191.152 834.145 193.365 837.416 195.674C848.001 203.95 856.565 210.781 863.108 216.17C869.651 221.558 875.906 227.428 881.872 233.778C886.298 238.59 890.051 243.689 893.13 249.078C896.209 254.274 898.326 259.374 899.481 264.377C900.635 269.766 901.213 275.346 901.213 281.12C901.213 303.443 894.092 320.571 879.851 332.502C865.802 344.242 845.21 350.111 818.075 350.111C796.906 350.111 779.682 346.358 766.403 338.853C758.705 334.619 752.739 329.52 748.505 323.554C744.464 317.396 741.674 311.526 740.134 305.945C737.825 298.247 736.67 290.165 736.67 281.697V259.181H792.961V275.924C792.961 281.12 794.308 285.354 797.002 288.625C798.734 290.934 800.274 292.57 801.621 293.532C803.161 294.302 805.181 294.976 807.683 295.553C808.838 295.938 809.992 296.227 811.147 296.419C812.494 296.612 813.841 296.708 815.189 296.708C817.498 296.708 819.615 296.515 821.539 296.13C823.656 295.746 825.966 294.88 828.467 293.532C831.932 291.608 834.241 288.914 835.396 285.45C835.973 283.14 836.262 281.216 836.262 279.676C836.262 277.752 835.973 275.828 835.396 273.903C834.818 271.979 833.76 269.958 832.22 267.841C830.873 266.109 828.467 263.704 825.003 260.624C821.732 257.545 818.46 254.659 815.189 251.964C813.072 250.232 810.762 248.404 808.26 246.48C805.759 244.555 802.968 242.438 799.889 240.129C790.844 233.201 782.665 226.658 775.352 220.5C768.231 214.342 762.458 208.664 758.032 203.468C753.413 198.08 749.756 192.98 747.062 188.169C744.368 183.358 742.443 178.258 741.289 172.87C740.134 167.674 739.557 162.285 739.557 156.704C739.557 114.367 765.345 93.1978 816.921 93.1978C826.543 93.1978 835.492 94.0638 843.767 95.7958C852.235 97.3353 859.355 99.6446 865.129 102.724C877.253 109.459 885.432 118.985 889.666 131.302C891.59 137.268 892.553 144.292 892.553 152.374V171.138H836.262Z">
			<animate attributeName="opacity" values="0;1" begin=".2s" dur=".1s" fill="freeze"/>
			<animateTransform
				attributeName="transform" type="translate" begin=".2s" dur=".1s" from="0,0" to="0,460" fill="freeze"
				calcMode="spline" keyTimes="0;1" keySplines=".25 .1 .25 1"
			/>
		</path>
		<path opacity="0" d="M1043.18 348.825C1028.5 348.825 1014.78 346.619 1002.03 342.209C989.282 337.607 977.884 331.47 967.839 323.8C957.407 316.13 948.231 307.117 940.31 296.762C932.583 286.407 926.498 274.326 922.055 260.519C917.805 247.863 915.68 234.344 915.68 219.962C915.68 206.155 917.805 192.828 922.055 179.98C926.305 167.132 932.293 155.434 940.021 144.888C948.134 133.957 957.504 124.657 968.129 116.986C978.947 109.316 990.441 103.467 1002.61 99.4404C1008.99 97.3311 1015.55 95.7011 1022.32 94.5506C1029.08 93.4 1036.03 92.8247 1043.18 92.8247C1056.9 92.8247 1070.23 95.03 1083.17 99.4404C1096.3 103.851 1108.09 109.795 1118.52 117.274C1128.76 124.945 1137.84 134.149 1145.76 144.888C1153.87 155.434 1160.05 167.132 1164.3 179.98C1166.24 186.308 1167.78 192.828 1168.94 199.539C1170.1 206.251 1170.68 213.058 1170.68 219.962C1170.68 231.467 1168.84 243.836 1165.17 257.067C1161.7 270.299 1155.32 283.339 1146.05 296.187C1138.32 306.925 1129.05 316.225 1118.23 324.088C1107.41 331.95 1095.82 337.99 1083.46 342.209C1077.08 344.318 1070.51 345.948 1063.75 347.099C1056.99 348.249 1050.13 348.825 1043.18 348.825ZM1043.47 286.982C1049.84 286.982 1056.22 285.927 1062.59 283.818C1069.16 281.709 1074.96 278.545 1079.98 274.326C1086.36 269.34 1091.28 263.971 1094.76 258.218C1098.43 252.273 1100.94 246.808 1102.29 241.822C1103.26 238.563 1104.03 235.207 1104.61 231.755C1105.19 228.112 1105.48 224.468 1105.48 220.825C1105.48 213.346 1104.42 206.347 1102.29 199.827C1100.17 193.115 1097.27 186.979 1093.6 181.418C1090.32 176.816 1086.16 172.405 1081.14 168.187C1076.12 163.776 1070.03 160.324 1062.88 157.831C1056.51 155.722 1050.04 154.667 1043.47 154.667C1029.56 154.667 1017.29 158.79 1006.67 167.036C1001.65 170.871 997.106 175.665 993.049 181.418C988.992 186.979 985.998 193.019 984.066 199.539C983.1 202.799 982.327 206.251 981.748 209.894C981.168 213.538 980.879 217.181 980.879 220.825C980.879 226.769 981.748 233.097 983.487 239.809C985.225 246.521 988.413 253.232 993.049 259.944C996.72 265.313 1001.07 270.011 1006.09 274.038C1011.11 278.065 1017 281.229 1023.76 283.53C1030.14 285.831 1036.71 286.982 1043.47 286.982Z">
			<animate attributeName="opacity" values="0;1" begin=".25s" dur=".1125s" fill="freeze"/>
			<animateTransform
				attributeName="transform" type="translate" begin=".25s" dur=".1125s" from="0,0" to="0,460" fill="freeze"
				calcMode="spline" keyTimes="0;1" keySplines=".25 .1 .25 1"
			/>
		</path>
		<path opacity="0" d="M1191.27 283.718V96.0845H1256.22V272.171C1256.22 276.212 1257.18 279.676 1259.11 282.563C1259.69 283.525 1260.65 284.488 1262 285.45C1263.54 286.412 1265.17 287.086 1266.9 287.47C1268.64 287.855 1270.27 288.048 1271.81 288.048C1273.35 288.048 1274.79 287.952 1276.14 287.759C1277.49 287.374 1278.93 286.989 1280.47 286.604C1282.2 286.22 1283.65 285.738 1284.8 285.161C1285.96 284.391 1287.5 283.525 1289.42 282.563C1290.19 282.178 1290.86 281.793 1291.44 281.408C1292.21 280.831 1292.98 280.254 1293.75 279.676V96.0845H1358.7V347.224H1293.75C1293.75 345.3 1293.94 343.376 1294.33 341.451C1294.71 339.527 1295.29 337.217 1296.06 334.523C1296.44 332.599 1297.12 330.289 1298.08 327.595C1299.04 324.901 1300 322.592 1300.97 320.667C1301.54 319.705 1302.12 318.743 1302.7 317.78C1303.08 316.818 1303.56 315.952 1304.14 315.182L1301.83 313.45C1298.37 318.069 1294.81 322.399 1291.15 326.44C1287.69 330.482 1284.03 333.85 1280.18 336.544C1276.14 339.43 1272.1 341.932 1268.06 344.049C1264.21 345.974 1259.98 347.417 1255.36 348.379C1253.24 348.956 1251.03 349.341 1248.72 349.534C1246.6 349.919 1244.39 350.111 1242.08 350.111C1229.95 350.111 1219.47 346.262 1210.61 338.564C1206.38 334.908 1202.82 330.289 1199.93 324.708C1197.24 319.128 1195.12 313.066 1193.58 306.522C1192.04 299.594 1191.27 291.993 1191.27 283.718Z">
			<animate attributeName="opacity" values="0;1" begin=".3s" dur=".125s" fill="freeze"/>
			<animateTransform
				attributeName="transform" type="translate" begin=".3s" dur=".125s" from="0,0" to="0,460" fill="freeze"
				calcMode="spline" keyTimes="0;1" keySplines=".25 .1 .25 1"
			/>
		</path>
		<path opacity="0" d="M1387.48 96.0844H1452.43C1452.43 96.8542 1452.24 98.49 1451.85 100.992C1451.47 103.301 1450.99 105.129 1450.41 106.476C1449.64 108.593 1448.87 110.71 1448.1 112.827C1447.33 114.944 1446.17 117.446 1444.64 120.332C1444.06 121.487 1443.48 122.642 1442.9 123.796C1442.33 124.759 1441.65 125.817 1440.88 126.972L1444.35 129.858C1448 124.47 1451.47 120.14 1454.74 116.868C1458.01 113.404 1461.67 110.037 1465.71 106.765C1469.36 103.878 1473.41 101.377 1477.83 99.2598C1482.26 97.1429 1486.59 95.6033 1490.82 94.6411C1492.94 94.2562 1495.06 93.9675 1497.17 93.7751C1499.48 93.3902 1501.79 93.1978 1504.1 93.1978C1509.88 93.1978 1515.55 94.16 1521.13 96.0844C1526.91 97.8164 1531.91 100.511 1536.14 104.167C1544.61 111.865 1550.19 122.642 1552.89 136.498C1553.46 139.962 1553.95 143.618 1554.33 147.467C1554.72 151.316 1554.91 155.357 1554.91 159.591V347.224H1489.96V171.138C1489.96 168.828 1489.76 167.096 1489.38 165.942C1488.99 164.595 1488.22 162.863 1487.07 160.746C1486.3 159.591 1485.15 158.533 1483.61 157.57C1482.07 156.608 1480.72 156.031 1479.56 155.838C1477.64 155.454 1475.91 155.261 1474.37 155.261C1472.83 155.261 1471.39 155.454 1470.04 155.838C1468.69 156.031 1467.25 156.32 1465.71 156.704C1463.98 157.089 1462.53 157.667 1461.38 158.436C1460.22 159.014 1458.68 159.784 1456.76 160.746C1455.99 161.131 1455.22 161.612 1454.45 162.189C1453.87 162.574 1453.2 163.055 1452.43 163.632V347.224H1387.48V96.0844Z">
			<animate attributeName="opacity" values="0;1" begin=".35s" dur=".15s" fill="freeze"/>
			<animateTransform
				attributeName="transform" type="translate" begin=".35s" dur=".15s" from="0,0" to="0,460" fill="freeze"
				calcMode="spline" keyTimes="0;1" keySplines=".25 .1 .25 1"
			/>
		</path>
		<path opacity="0" d="M1754 347.225H1689.05C1689.05 346.07 1689.14 344.627 1689.34 342.895C1689.72 340.97 1690.4 338.661 1691.36 335.967C1692.32 333.465 1693.09 331.348 1693.67 329.616C1694.24 327.884 1695.4 325.478 1697.13 322.399C1697.71 321.437 1698.29 320.475 1698.86 319.513C1699.44 318.358 1700.02 317.3 1700.6 316.337L1697.13 313.451C1695.01 317.684 1692.22 321.918 1688.76 326.152C1685.3 330.193 1681.74 333.561 1678.08 336.255C1674.23 339.334 1670 341.932 1665.38 344.049C1660.76 346.166 1656.04 347.61 1651.23 348.379C1648.73 348.957 1646.13 349.342 1643.44 349.534C1640.74 349.919 1638.05 350.111 1635.36 350.111C1598.98 350.111 1580.8 325.767 1580.8 277.079V165.365C1580.8 146.505 1584.36 131.11 1591.48 119.178C1594.75 113.597 1598.69 108.882 1603.31 105.033C1607.93 101.184 1613.51 98.2016 1620.06 96.0847C1625.83 94.1603 1632.18 93.198 1639.11 93.198C1642.19 93.198 1645.75 93.5829 1649.79 94.3527C1654.02 94.93 1657.58 95.6998 1660.47 96.662C1664.7 98.5865 1667.98 100.318 1670.29 101.858C1672.79 103.205 1675.96 105.226 1679.81 107.92C1682.89 110.422 1685.97 113.405 1689.05 116.869V0.824707H1754V347.225ZM1691.94 261.779V181.53C1691.94 175.179 1690.68 169.695 1688.18 165.076C1687.41 163.729 1685.97 162.189 1683.85 160.457C1681.93 158.533 1679.71 157.186 1677.21 156.416C1674.71 155.646 1671.92 155.261 1668.84 155.261C1666.15 155.261 1663.55 155.646 1661.05 156.416C1658.55 156.993 1656.33 158.148 1654.41 159.88C1652.48 161.42 1650.85 163.152 1649.5 165.076C1648.35 166.808 1647.48 169.31 1646.9 172.581C1646.13 175.66 1645.75 178.643 1645.75 181.53V261.779C1645.75 268.13 1647 273.518 1649.5 277.945C1650.27 279.484 1651.62 281.216 1653.54 283.141C1655.66 284.873 1658.06 286.124 1660.76 286.893C1663.07 287.663 1665.76 288.048 1668.84 288.048C1671.54 288.048 1674.13 287.759 1676.64 287.182C1679.14 286.412 1681.45 285.161 1683.56 283.429C1685.3 281.89 1686.74 280.254 1687.89 278.522C1689.24 276.598 1690.3 274 1691.07 270.728C1691.65 267.649 1691.94 264.666 1691.94 261.779Z">
			<animate attributeName="opacity" values="0;1" begin=".4s" dur=".2s" fill="freeze"/>
			<animateTransform
				attributeName="transform" type="translate" begin=".4s" dur=".2s" from="0,0" to="0,460" fill="freeze"
				calcMode="spline" keyTimes="0;1" keySplines=".25 .1 .25 1"
			/>
		</path>
	</g>
</svg>
