<svg viewBox="0 0 1976 638" fill="white" xmlns="http://www.w3.org/2000/svg">
<path d="M1976 637.191V564.191H1734.86V637.191H1976Z"/>
<path d="M1955.55 362.191V289.191H1756.39V362.191H1955.55Z"/>
<path d="M1976 84.1912V11.1912H1734.86V84.1912H1976Z"/>
<path d="M798 11.1912H888L788 637.191H664L593 167.191L524 637.191H399L315 11.1912H392L462 555.191L543 11.1912H644L724 555.191L798 11.1912Z"/>
<path d="M1271.38 637.191H1180.38L1086.38 89.1912L1001.38 637.191H910.375L1021.38 11.1912H1152.38L1271.38 637.191Z"/>
<path d="M1554.14 11.1912H1647.14L1534.14 637.191H1406.14L1293.14 11.1912H1386.14L1470.14 554.191L1554.14 11.1912Z"/>
<g opacity="0.55">
<path d="M1713 362.192V289.192H1956V362.192H1713Z"/>
<path d="M1669.48 11.1968L1595 11.1953L1649 362.195L1723.5 362.195L1669.48 11.1968Z"/>
<path d="M1293.52 11.3653L1365.67 22.4594L1271.38 637.188L1199.23 626.094L1293.52 11.3653Z"/>
<path d="M888.864 11.3653L816.712 22.4594L911 637.188L983.152 626.094L888.864 11.3653Z"/>
<path d="M285.516 11.197L360 11.1956L306 362.196L231.5 362.195L285.516 11.197Z"/>
<path d="M243 362.191V289.191H0V362.191H243Z"/>
</g>
</svg>