<svg width="647" height="1128" viewBox="0 0 647 1128" fill="none" xmlns="http://www.w3.org/2000/svg">
<path d="M35.5251 688.631L0.369629 562.993L2.09859 485.19C1.13806 469.437 63.419 436.779 320.227 432.169C577.035 427.558 642.774 462.906 643.542 481.156L647 550.891L604.353 610.828L531.16 843.661L508.684 793.521L498.31 889.767L449.323 942.788L408.404 681.139L381.317 1069.58L355.959 1033.27L273.545 1127.21L162.892 851.153L125.431 981.978L60.3069 653.476L35.5251 688.631Z" fill="#AB576F"/>
<path d="M0.945464 540.106C55.0493 560.63 187.097 575.838 328.871 576.991C470.646 578.144 624.523 564.888 645.847 545.87C644.695 529.733 645.271 507.833 642.389 477.288C599.742 435.793 453.531 434.231 391.114 434.064C231.063 433.635 21.1166 443.285 2.67438 481.322C4.3396 497.439 -2.40043 516.677 0.945464 540.106Z" fill="#85C28D"/>
<path d="M249.916 862.269L356.535 1032.28L325.99 1065.13L249.916 862.269Z" fill="black" fill-opacity="0.15"/>
<path d="M124.278 979.838L60.3065 654.218L107.565 592.551L124.278 979.838Z" fill="black" fill-opacity="0.15"/>
<path d="M43.0169 563.159C25.151 620.791 36.1011 688.22 36.1011 688.22L0.945557 566.617V480.745C0.945557 480.745 25.0043 459.088 93.733 448.471C164.62 437.521 258.56 434.64 258.56 434.64C258.56 434.64 121.973 450.777 57.4249 488.237C38.4063 495.73 34.3721 542.988 43.0169 563.159Z" fill="black" fill-opacity="0.15"/>
<path d="M450.475 942.954L408.98 682.457L435.491 655.37L508.683 793.111L440.677 700.323L450.475 942.954Z" fill="black" fill-opacity="0.15"/>
<g opacity="0.15">
<path d="M408.98 682.457L381.317 1063.4L372.096 717.036L340.974 686.491L436.644 655.947L408.98 682.457Z" fill="white"/>
<path d="M580.147 609.841L530.007 843.827L603.2 612.146L646.424 552.209L641.237 483.051C645.271 466.914 610.116 438.098 410.133 432.334C577.266 449.048 588.984 468.643 599.166 485.932L604.929 555.667L580.147 609.841Z" fill="white"/>
<path d="M278.939 733.75L253.005 725.681L243.207 767.176L257.615 782.16L293.923 756.226L278.939 733.75Z" fill="white"/>
<path d="M153.878 818.469L124.485 981.567L162.522 851.319L153.878 818.469Z" fill="white"/>
</g>
<path d="M72.6245 423.589C59.8609 432.889 58.2107 486.262 109.538 467.127L137.934 457.549L155.626 461.314C167.36 463.106 187.848 452.103 189.077 437.868C190.49 421.505 175.941 415.616 164.965 422.28C164.965 422.28 165.284 391.366 146.033 398.015C144.577 379.904 133.263 373.367 111.057 381.464C92.5764 388.203 101.362 412.473 102.169 423.871C97.6391 419.902 85.388 414.289 72.6245 423.589Z" fill="#378253"/>
<path d="M104.6 459.204L86.1753 449.932L106.701 453.674L102.063 441.822L118.276 451.135L119.755 441.491L136.623 456.201L146.824 439.782L148.708 451.767L164.629 445.459L158.197 456.398L175.259 453.951L167.115 461.9C170.509 464.665 177.162 469.933 179.032 470.878C179.41 470.971 179.566 471.024 179.449 471.026C179.366 471.027 179.224 470.976 179.032 470.878C176.576 470.276 164.772 467.974 158.36 466.742L155.132 471.481L150.056 466.118L144.035 469.349L137.359 467.135L133.534 469.546C131.678 468.801 127.426 467.191 127.426 467.191L120.823 469.784L115.209 465.211L110.918 471.707L106.394 466.383L90.9469 468.475L104.6 459.204Z" fill="#3C875B"/>
<path d="M472.896 307.169C466.447 320.24 450.261 367.538 486.727 427.37L512.169 430.307L531.444 432.04C545.677 432.019 554.749 423.084 568.521 398.32C596.869 347.347 587.383 253.757 558.931 275.7C558.931 275.7 598.329 161.785 563.816 181.747C572.726 132.917 594.767 104.261 569.182 91.6919C541.121 77.9057 526.739 144.949 532.04 181.871C525.014 166.245 508.194 169.933 497.752 201.497C487.309 233.06 499.47 273.156 511.768 285.284C501.254 283.717 479.345 294.098 472.896 307.169Z" fill="#6DCB86"/>
<path d="M469.083 381.042C435.461 393.43 436.865 328.586 442.823 299.518C447.25 277.921 451.007 294.162 456.339 291.93C451.223 286.221 430.693 243.192 433.393 220.249C435.444 202.824 445.02 179.885 459.863 190.349C440.456 174.464 460.224 120.846 477.769 137.259C495.635 153.972 493.906 168.956 484.082 185.161C515.23 162.04 497.857 255.716 497.857 255.716C502.53 233.49 511.077 248.86 512.953 298.937C514.585 342.502 505.633 379.616 499.212 376.226L489.362 367.879L469.083 381.042Z" fill="#4CA864"/>
<path d="M354.798 486.295L119.264 469.699L113.629 235.978L237.759 215.112L457.867 230.241L458.162 449.534L354.798 486.295Z" fill="#6C6C6C"/>
<path d="M113.651 237.38L353.006 256.04L358.891 487.327L119.536 468.667L113.651 237.38Z" fill="black" fill-opacity="0.25"/>
<path d="M304.736 392.188C305.387 432.978 272.973 463.114 232.339 459.497C191.704 455.881 158.235 419.882 157.584 379.092C156.933 338.302 189.346 308.166 229.981 311.782C270.616 315.399 304.085 351.397 304.736 392.188Z" fill="black" fill-opacity="0.21"/>
<path d="M184.12 324.087C179.786 327.341 174.914 331.257 172.234 335.138C165.563 334.544 160.068 328.634 159.961 321.937C159.854 315.24 165.176 310.293 171.847 310.886C178.519 311.48 184.014 317.39 184.12 324.087Z" fill="black" fill-opacity="0.21"/>
<path d="M299.41 333.346C299.517 340.043 294.196 344.99 287.524 344.397C284.154 339.383 281.927 337.225 275.251 331.196C275.144 324.499 280.466 319.551 287.137 320.145C293.809 320.739 299.304 326.649 299.41 333.346Z" fill="black" fill-opacity="0.21"/>
<path d="M186.508 439.324C186.615 446.021 181.293 450.969 174.622 450.375C167.95 449.781 162.456 443.871 162.349 437.174C162.242 430.477 167.563 425.53 174.235 426.123C178.177 432.64 180.935 433.692 186.508 439.324Z" fill="black" fill-opacity="0.21"/>
<path d="M301.811 449.413C301.918 456.11 296.596 461.058 289.925 460.464C283.254 459.871 277.759 453.96 277.652 447.263C283.615 443.02 284.694 441.906 289.538 436.213C296.209 436.806 301.704 442.717 301.811 449.413Z" fill="black" fill-opacity="0.21"/>
<ellipse cx="61.7178" cy="61.7178" rx="61.7178" ry="61.7178" transform="matrix(0.996063 0.0886442 0.0159583 0.999873 168.219 318.58)" fill="black" fill-opacity="0.18"/>
<circle cx="28.7415" cy="28.7415" r="28.7415" transform="matrix(0.996063 0.0886442 0.0159583 0.999873 208.737 354.842)" fill="black" fill-opacity="0.24"/>
<path d="M123.767 287.113L342.265 304.461L345.03 477.679L126.531 460.331L123.767 287.113Z" fill="black" fill-opacity="0.32"/>
<path d="M127.537 289.442L127.642 296.02L134.204 296.489L134.099 289.911L127.537 289.442Z" fill="black" fill-opacity="0.2"/>
<path d="M141.208 290.419L141.313 296.997L147.875 297.466L147.77 290.888L141.208 290.419Z" fill="black" fill-opacity="0.2"/>
<path d="M154.879 291.395L154.984 297.973L161.546 298.442L161.441 291.864L154.879 291.395Z" fill="black" fill-opacity="0.2"/>
<path d="M168.55 292.372L168.655 298.95L175.217 299.418L175.112 292.841L168.55 292.372Z" fill="black" fill-opacity="0.2"/>
<path d="M182.22 293.348L182.325 299.926L188.887 300.395L188.782 293.817L182.22 293.348Z" fill="black" fill-opacity="0.2"/>
<path d="M195.891 294.325L195.996 300.903L202.558 301.371L202.453 294.794L195.891 294.325Z" fill="black" fill-opacity="0.2"/>
<path d="M209.562 295.301L209.667 301.879L216.229 302.348L216.124 295.77L209.562 295.301Z" fill="black" fill-opacity="0.2"/>
<path d="M223.233 296.278L223.338 302.856L229.9 303.324L229.795 296.747L223.233 296.278Z" fill="black" fill-opacity="0.2"/>
<path d="M236.904 297.254L237.009 303.832L243.571 304.301L243.466 297.723L236.904 297.254Z" fill="black" fill-opacity="0.2"/>
<path d="M250.574 298.231L250.679 304.809L257.241 305.277L257.136 298.7L250.574 298.231Z" fill="black" fill-opacity="0.2"/>
<path d="M264.245 299.207L264.35 305.785L270.912 306.254L270.807 299.676L264.245 299.207Z" fill="black" fill-opacity="0.2"/>
<path d="M277.916 300.184L278.021 306.762L284.583 307.23L284.478 300.653L277.916 300.184Z" fill="black" fill-opacity="0.2"/>
<path d="M291.587 301.16L291.692 307.738L298.254 308.207L298.149 301.629L291.587 301.16Z" fill="black" fill-opacity="0.2"/>
<path d="M305.258 302.137L305.363 308.715L311.925 309.183L311.82 302.605L305.258 302.137Z" fill="black" fill-opacity="0.2"/>
<path d="M318.929 303.113L319.034 309.691L325.596 310.16L325.491 303.582L318.929 303.113Z" fill="black" fill-opacity="0.2"/>
<path d="M332.599 304.09L332.704 310.668L339.266 311.136L339.161 304.558L332.599 304.09Z" fill="black" fill-opacity="0.2"/>
<path d="M341.891 475.583L341.786 469.005L335.224 468.537L335.329 475.115L341.891 475.583Z" fill="black" fill-opacity="0.2"/>
<path d="M328.22 474.607L328.115 468.029L321.553 467.56L321.658 474.138L328.22 474.607Z" fill="black" fill-opacity="0.2"/>
<path d="M314.549 473.63L314.444 467.052L307.882 466.584L307.987 473.162L314.549 473.63Z" fill="black" fill-opacity="0.2"/>
<path d="M300.879 472.654L300.774 466.076L294.212 465.607L294.317 472.185L300.879 472.654Z" fill="black" fill-opacity="0.2"/>
<path d="M287.208 471.677L287.103 465.099L280.541 464.631L280.646 471.209L287.208 471.677Z" fill="black" fill-opacity="0.2"/>
<path d="M273.537 470.701L273.432 464.123L266.87 463.654L266.975 470.232L273.537 470.701Z" fill="black" fill-opacity="0.2"/>
<path d="M259.866 469.724L259.761 463.146L253.199 462.678L253.304 469.256L259.866 469.724Z" fill="black" fill-opacity="0.2"/>
<path d="M246.195 468.748L246.09 462.17L239.528 461.701L239.633 468.279L246.195 468.748Z" fill="black" fill-opacity="0.2"/>
<path d="M232.524 467.771L232.419 461.193L225.857 460.725L225.962 467.303L232.524 467.771Z" fill="black" fill-opacity="0.2"/>
<path d="M218.854 466.795L218.749 460.217L212.187 459.748L212.292 466.326L218.854 466.795Z" fill="black" fill-opacity="0.2"/>
<path d="M205.183 465.818L205.078 459.24L198.516 458.772L198.621 465.35L205.183 465.818Z" fill="black" fill-opacity="0.2"/>
<path d="M191.512 464.842L191.407 458.264L184.845 457.795L184.95 464.373L191.512 464.842Z" fill="black" fill-opacity="0.2"/>
<path d="M177.841 463.865L177.736 457.288L171.174 456.819L171.279 463.397L177.841 463.865Z" fill="black" fill-opacity="0.2"/>
<path d="M164.17 462.889L164.065 456.311L157.503 455.842L157.608 462.42L164.17 462.889Z" fill="black" fill-opacity="0.2"/>
<path d="M150.5 461.912L150.395 455.335L143.833 454.866L143.938 461.444L150.5 461.912Z" fill="black" fill-opacity="0.2"/>
<path d="M136.829 460.936L136.724 454.358L130.162 453.889L130.267 460.467L136.829 460.936Z" fill="black" fill-opacity="0.2"/>
<path d="M127.756 303.146L127.861 309.724L134.423 310.193L134.318 303.615L127.756 303.146Z" fill="black" fill-opacity="0.2"/>
<path d="M141.427 304.123L141.532 310.701L148.094 311.169L147.989 304.592L141.427 304.123Z" fill="black" fill-opacity="0.2"/>
<path d="M155.097 305.099L155.202 311.677L161.764 312.146L161.659 305.568L155.097 305.099Z" fill="black" fill-opacity="0.2"/>
<path d="M168.768 306.076L168.873 312.654L175.435 313.122L175.33 306.545L168.768 306.076Z" fill="black" fill-opacity="0.2"/>
<path d="M182.439 307.052L182.544 313.63L189.106 314.099L189.001 307.521L182.439 307.052Z" fill="black" fill-opacity="0.2"/>
<path d="M196.11 308.029L196.215 314.607L202.777 315.075L202.672 308.498L196.11 308.029Z" fill="black" fill-opacity="0.2"/>
<path d="M209.781 309.005L209.886 315.583L216.448 316.052L216.343 309.474L209.781 309.005Z" fill="black" fill-opacity="0.2"/>
<path d="M223.452 309.982L223.557 316.56L230.119 317.028L230.014 310.45L223.452 309.982Z" fill="black" fill-opacity="0.2"/>
<path d="M237.122 310.958L237.227 317.536L243.789 318.005L243.684 311.427L237.122 310.958Z" fill="black" fill-opacity="0.2"/>
<path d="M250.793 311.935L250.898 318.513L257.46 318.981L257.355 312.403L250.793 311.935Z" fill="black" fill-opacity="0.2"/>
<path d="M264.464 312.911L264.569 319.489L271.131 319.958L271.026 313.38L264.464 312.911Z" fill="black" fill-opacity="0.2"/>
<path d="M278.135 313.888L278.24 320.466L284.802 320.934L284.697 314.356L278.135 313.888Z" fill="black" fill-opacity="0.2"/>
<path d="M291.806 314.864L291.911 321.442L298.473 321.911L298.368 315.333L291.806 314.864Z" fill="black" fill-opacity="0.2"/>
<path d="M305.477 315.841L305.581 322.419L312.143 322.887L312.038 316.309L305.477 315.841Z" fill="black" fill-opacity="0.2"/>
<path d="M319.147 316.817L319.252 323.395L325.814 323.864L325.709 317.286L319.147 316.817Z" fill="black" fill-opacity="0.2"/>
<path d="M332.818 317.794L332.923 324.372L339.485 324.84L339.38 318.262L332.818 317.794Z" fill="black" fill-opacity="0.2"/>
<path d="M341.672 461.879L341.567 455.301L335.005 454.833L335.11 461.411L341.672 461.879Z" fill="black" fill-opacity="0.2"/>
<path d="M328.001 460.903L327.897 454.325L321.335 453.856L321.439 460.434L328.001 460.903Z" fill="black" fill-opacity="0.2"/>
<path d="M314.331 459.926L314.226 453.348L307.664 452.88L307.769 459.458L314.331 459.926Z" fill="black" fill-opacity="0.2"/>
<path d="M300.66 458.95L300.555 452.372L293.993 451.903L294.098 458.481L300.66 458.95Z" fill="black" fill-opacity="0.2"/>
<path d="M286.989 457.973L286.884 451.396L280.322 450.927L280.427 457.505L286.989 457.973Z" fill="black" fill-opacity="0.2"/>
<path d="M273.318 456.997L273.213 450.419L266.651 449.95L266.756 456.528L273.318 456.997Z" fill="black" fill-opacity="0.2"/>
<path d="M259.647 456.02L259.542 449.443L252.98 448.974L253.085 455.552L259.647 456.02Z" fill="black" fill-opacity="0.2"/>
<path d="M245.977 455.044L245.872 448.466L239.31 447.997L239.415 454.575L245.977 455.044Z" fill="black" fill-opacity="0.2"/>
<path d="M232.306 454.067L232.201 447.49L225.639 447.021L225.744 453.599L232.306 454.067Z" fill="black" fill-opacity="0.2"/>
<path d="M218.635 453.091L218.53 446.513L211.968 446.044L212.073 452.622L218.635 453.091Z" fill="black" fill-opacity="0.2"/>
<path d="M204.964 452.114L204.859 445.537L198.297 445.068L198.402 451.646L204.964 452.114Z" fill="black" fill-opacity="0.2"/>
<path d="M191.293 451.138L191.188 444.56L184.626 444.091L184.731 450.669L191.293 451.138Z" fill="black" fill-opacity="0.2"/>
<path d="M177.622 450.161L177.517 443.584L170.955 443.115L171.06 449.693L177.622 450.161Z" fill="black" fill-opacity="0.2"/>
<path d="M163.952 449.185L163.847 442.607L157.285 442.138L157.39 448.716L163.952 449.185Z" fill="black" fill-opacity="0.2"/>
<path d="M150.281 448.209L150.176 441.631L143.614 441.162L143.719 447.74L150.281 448.209Z" fill="black" fill-opacity="0.2"/>
<path d="M136.61 447.232L136.505 440.654L129.943 440.185L130.048 446.763L136.61 447.232Z" fill="black" fill-opacity="0.2"/>
<path d="M129.829 433.059L136.391 433.528L136.286 426.95L129.724 426.482L129.829 433.059Z" fill="black" fill-opacity="0.2"/>
<path d="M129.611 419.355L136.173 419.824L136.068 413.246L129.506 412.778L129.611 419.355Z" fill="black" fill-opacity="0.2"/>
<path d="M129.392 405.652L135.954 406.12L135.849 399.542L129.287 399.074L129.392 405.652Z" fill="black" fill-opacity="0.2"/>
<path d="M129.173 391.948L135.735 392.416L135.63 385.839L129.068 385.37L129.173 391.948Z" fill="black" fill-opacity="0.2"/>
<path d="M128.954 378.244L135.516 378.712L135.411 372.135L128.849 371.666L128.954 378.244Z" fill="black" fill-opacity="0.2"/>
<path d="M128.736 364.54L135.298 365.009L135.193 358.431L128.631 357.962L128.736 364.54Z" fill="black" fill-opacity="0.2"/>
<path d="M128.517 350.836L135.079 351.305L134.974 344.727L128.412 344.258L128.517 350.836Z" fill="black" fill-opacity="0.2"/>
<path d="M128.298 337.132L134.86 337.601L134.755 331.023L128.193 330.554L128.298 337.132Z" fill="black" fill-opacity="0.2"/>
<path d="M128.08 323.428L134.642 323.897L134.537 317.319L127.975 316.85L128.08 323.428Z" fill="black" fill-opacity="0.2"/>
<path d="M141.645 317.827L141.75 324.405L148.312 324.873L148.207 318.295L141.645 317.827Z" fill="black" fill-opacity="0.2"/>
<path d="M155.316 318.803L155.421 325.381L161.983 325.85L161.878 319.272L155.316 318.803Z" fill="black" fill-opacity="0.2"/>
<path d="M168.987 319.78L169.092 326.358L175.654 326.826L175.549 320.248L168.987 319.78Z" fill="black" fill-opacity="0.2"/>
<path d="M182.658 320.756L182.763 327.334L189.325 327.803L189.22 321.225L182.658 320.756Z" fill="black" fill-opacity="0.2"/>
<path d="M196.329 321.733L196.434 328.311L202.996 328.779L202.891 322.201L196.329 321.733Z" fill="black" fill-opacity="0.2"/>
<path d="M209.999 322.709L210.104 329.287L216.666 329.756L216.561 323.178L209.999 322.709Z" fill="black" fill-opacity="0.2"/>
<path d="M223.67 323.686L223.775 330.264L230.337 330.732L230.232 324.154L223.67 323.686Z" fill="black" fill-opacity="0.2"/>
<path d="M237.341 324.662L237.446 331.24L244.008 331.709L243.903 325.131L237.341 324.662Z" fill="black" fill-opacity="0.2"/>
<path d="M251.012 325.639L251.117 332.217L257.679 332.685L257.574 326.107L251.012 325.639Z" fill="black" fill-opacity="0.2"/>
<path d="M264.683 326.615L264.788 333.193L271.35 333.662L271.245 327.084L264.683 326.615Z" fill="black" fill-opacity="0.2"/>
<path d="M278.354 327.592L278.459 334.169L285.021 334.638L284.916 328.06L278.354 327.592Z" fill="black" fill-opacity="0.2"/>
<path d="M292.024 328.568L292.129 335.146L298.691 335.615L298.586 329.037L292.024 328.568Z" fill="black" fill-opacity="0.2"/>
<path d="M305.695 329.545L305.8 336.122L312.362 336.591L312.257 330.013L305.695 329.545Z" fill="black" fill-opacity="0.2"/>
<path d="M319.366 330.521L319.471 337.099L326.033 337.568L325.928 330.99L319.366 330.521Z" fill="black" fill-opacity="0.2"/>
<path d="M333.037 331.498L333.142 338.075L339.704 338.544L339.599 331.966L333.037 331.498Z" fill="black" fill-opacity="0.2"/>
<path d="M341.454 448.175L341.349 441.598L334.787 441.129L334.892 447.707L341.454 448.175Z" fill="black" fill-opacity="0.2"/>
<path d="M327.783 447.199L327.678 440.621L321.116 440.152L321.221 446.73L327.783 447.199Z" fill="black" fill-opacity="0.2"/>
<path d="M314.112 446.222L314.007 439.645L307.445 439.176L307.55 445.754L314.112 446.222Z" fill="black" fill-opacity="0.2"/>
<path d="M300.441 445.246L300.336 438.668L293.774 438.199L293.879 444.777L300.441 445.246Z" fill="black" fill-opacity="0.2"/>
<path d="M286.77 444.269L286.665 437.692L280.103 437.223L280.208 443.801L286.77 444.269Z" fill="black" fill-opacity="0.2"/>
<path d="M273.099 443.293L272.995 436.715L266.433 436.246L266.537 442.824L273.099 443.293Z" fill="black" fill-opacity="0.2"/>
<path d="M259.429 442.316L259.324 435.739L252.762 435.27L252.867 441.848L259.429 442.316Z" fill="black" fill-opacity="0.2"/>
<path d="M245.758 441.34L245.653 434.762L239.091 434.293L239.196 440.871L245.758 441.34Z" fill="black" fill-opacity="0.2"/>
<path d="M232.087 440.364L231.982 433.786L225.42 433.317L225.525 439.895L232.087 440.364Z" fill="black" fill-opacity="0.2"/>
<path d="M218.416 439.387L218.311 432.809L211.749 432.34L211.854 438.918L218.416 439.387Z" fill="black" fill-opacity="0.2"/>
<path d="M204.745 438.411L204.64 431.833L198.078 431.364L198.183 437.942L204.745 438.411Z" fill="black" fill-opacity="0.2"/>
<path d="M191.075 437.434L190.97 430.856L184.408 430.387L184.513 436.965L191.075 437.434Z" fill="black" fill-opacity="0.2"/>
<path d="M177.404 436.458L177.299 429.88L170.737 429.411L170.842 435.989L177.404 436.458Z" fill="black" fill-opacity="0.2"/>
<path d="M163.733 435.481L163.628 428.903L157.066 428.435L157.171 435.012L163.733 435.481Z" fill="black" fill-opacity="0.2"/>
<path d="M150.062 434.505L149.957 427.927L143.395 427.458L143.5 434.036L150.062 434.505Z" fill="black" fill-opacity="0.2"/>
<path d="M143.281 420.332L149.843 420.801L149.738 414.223L143.176 413.754L143.281 420.332Z" fill="black" fill-opacity="0.2"/>
<path d="M143.063 406.628L149.625 407.097L149.52 400.519L142.958 400.05L143.063 406.628Z" fill="black" fill-opacity="0.2"/>
<path d="M142.844 392.924L149.406 393.393L149.301 386.815L142.739 386.346L142.844 392.924Z" fill="black" fill-opacity="0.2"/>
<path d="M142.625 379.22L149.187 379.689L149.082 373.111L142.52 372.642L142.625 379.22Z" fill="black" fill-opacity="0.2"/>
<path d="M142.407 365.516L148.969 365.985L148.864 359.407L142.302 358.938L142.407 365.516Z" fill="black" fill-opacity="0.2"/>
<path d="M142.188 351.812L148.75 352.281L148.645 345.703L142.083 345.235L142.188 351.812Z" fill="black" fill-opacity="0.2"/>
<path d="M141.969 338.109L148.531 338.577L148.426 331.999L141.864 331.531L141.969 338.109Z" fill="black" fill-opacity="0.2"/>
<path d="M155.535 332.507L155.64 339.085L162.202 339.554L162.097 332.976L155.535 332.507Z" fill="black" fill-opacity="0.2"/>
<path d="M169.206 333.484L169.311 340.062L175.873 340.53L175.768 333.952L169.206 333.484Z" fill="black" fill-opacity="0.2"/>
<path d="M182.877 334.46L182.982 341.038L189.544 341.507L189.439 334.929L182.877 334.46Z" fill="black" fill-opacity="0.2"/>
<path d="M196.547 335.437L196.652 342.014L203.214 342.483L203.109 335.905L196.547 335.437Z" fill="black" fill-opacity="0.2"/>
<path d="M210.218 336.413L210.323 342.991L216.885 343.46L216.78 336.882L210.218 336.413Z" fill="black" fill-opacity="0.2"/>
<path d="M223.889 337.39L223.994 343.967L230.556 344.436L230.451 337.858L223.889 337.39Z" fill="black" fill-opacity="0.2"/>
<path d="M237.56 338.366L237.665 344.944L244.227 345.413L244.122 338.835L237.56 338.366Z" fill="black" fill-opacity="0.2"/>
<path d="M251.231 339.343L251.336 345.92L257.898 346.389L257.793 339.811L251.231 339.343Z" fill="black" fill-opacity="0.2"/>
<path d="M264.901 340.319L265.006 346.897L271.568 347.366L271.463 340.788L264.901 340.319Z" fill="black" fill-opacity="0.2"/>
<path d="M278.572 341.296L278.677 347.873L285.239 348.342L285.134 341.764L278.572 341.296Z" fill="black" fill-opacity="0.2"/>
<path d="M292.243 342.272L292.348 348.85L298.91 349.319L298.805 342.741L292.243 342.272Z" fill="black" fill-opacity="0.2"/>
<path d="M305.914 343.249L306.019 349.826L312.581 350.295L312.476 343.717L305.914 343.249Z" fill="black" fill-opacity="0.2"/>
<path d="M319.585 344.225L319.69 350.803L326.252 351.272L326.147 344.694L319.585 344.225Z" fill="black" fill-opacity="0.2"/>
<path d="M333.256 345.201L333.361 351.779L339.923 352.248L339.818 345.67L333.256 345.201Z" fill="black" fill-opacity="0.2"/>
<path d="M341.235 434.472L341.13 427.894L334.568 427.425L334.673 434.003L341.235 434.472Z" fill="black" fill-opacity="0.2"/>
<path d="M327.564 433.495L327.459 426.917L320.897 426.448L321.002 433.026L327.564 433.495Z" fill="black" fill-opacity="0.2"/>
<path d="M313.893 432.519L313.788 425.941L307.226 425.472L307.331 432.05L313.893 432.519Z" fill="black" fill-opacity="0.2"/>
<path d="M300.222 431.542L300.117 424.964L293.555 424.495L293.66 431.073L300.222 431.542Z" fill="black" fill-opacity="0.2"/>
<path d="M286.552 430.566L286.447 423.988L279.885 423.519L279.99 430.097L286.552 430.566Z" fill="black" fill-opacity="0.2"/>
<path d="M272.881 429.589L272.776 423.011L266.214 422.543L266.319 429.12L272.881 429.589Z" fill="black" fill-opacity="0.2"/>
<path d="M259.21 428.613L259.105 422.035L252.543 421.566L252.648 428.144L259.21 428.613Z" fill="black" fill-opacity="0.2"/>
<path d="M245.539 427.636L245.434 421.058L238.872 420.59L238.977 427.167L245.539 427.636Z" fill="black" fill-opacity="0.2"/>
<path d="M231.868 426.66L231.763 420.082L225.201 419.613L225.306 426.191L231.868 426.66Z" fill="black" fill-opacity="0.2"/>
<path d="M218.197 425.683L218.093 419.105L211.531 418.637L211.635 425.214L218.197 425.683Z" fill="black" fill-opacity="0.2"/>
<path d="M204.527 424.707L204.422 418.129L197.86 417.66L197.965 424.238L204.527 424.707Z" fill="black" fill-opacity="0.2"/>
<path d="M190.856 423.73L190.751 417.152L184.189 416.684L184.294 423.261L190.856 423.73Z" fill="black" fill-opacity="0.2"/>
<path d="M177.185 422.754L177.08 416.176L170.518 415.707L170.623 422.285L177.185 422.754Z" fill="black" fill-opacity="0.2"/>
<path d="M163.514 421.777L163.409 415.199L156.847 414.731L156.952 421.308L163.514 421.777Z" fill="black" fill-opacity="0.2"/>
<path d="M156.733 407.605L163.295 408.073L163.191 401.495L156.629 401.027L156.733 407.605Z" fill="black" fill-opacity="0.2"/>
<path d="M156.515 393.901L163.077 394.369L162.972 387.791L156.41 387.323L156.515 393.901Z" fill="black" fill-opacity="0.2"/>
<path d="M156.296 380.197L162.858 380.665L162.753 374.088L156.191 373.619L156.296 380.197Z" fill="black" fill-opacity="0.2"/>
<path d="M156.077 366.493L162.639 366.962L162.534 360.384L155.972 359.915L156.077 366.493Z" fill="black" fill-opacity="0.2"/>
<path d="M155.859 352.789L162.421 353.258L162.316 346.68L155.754 346.211L155.859 352.789Z" fill="black" fill-opacity="0.2"/>
<path d="M169.424 347.188L169.529 353.765L176.091 354.234L175.986 347.656L169.424 347.188Z" fill="black" fill-opacity="0.2"/>
<path d="M183.095 348.164L183.2 354.742L189.762 355.211L189.657 348.633L183.095 348.164Z" fill="black" fill-opacity="0.2"/>
<path d="M196.766 349.141L196.871 355.718L203.433 356.187L203.328 349.609L196.766 349.141Z" fill="black" fill-opacity="0.2"/>
<path d="M210.437 350.117L210.542 356.695L217.104 357.164L216.999 350.586L210.437 350.117Z" fill="black" fill-opacity="0.2"/>
<path d="M224.108 351.093L224.213 357.671L230.775 358.14L230.67 351.562L224.108 351.093Z" fill="black" fill-opacity="0.2"/>
<path d="M237.779 352.07L237.884 358.648L244.446 359.117L244.341 352.539L237.779 352.07Z" fill="black" fill-opacity="0.2"/>
<path d="M251.449 353.046L251.554 359.624L258.116 360.093L258.011 353.515L251.449 353.046Z" fill="black" fill-opacity="0.2"/>
<path d="M265.12 354.023L265.225 360.601L271.787 361.07L271.682 354.492L265.12 354.023Z" fill="black" fill-opacity="0.2"/>
<path d="M278.791 354.999L278.896 361.577L285.458 362.046L285.353 355.468L278.791 354.999Z" fill="black" fill-opacity="0.2"/>
<path d="M292.462 355.976L292.567 362.554L299.129 363.023L299.024 356.445L292.462 355.976Z" fill="black" fill-opacity="0.2"/>
<path d="M306.133 356.952L306.238 363.53L312.8 363.999L312.695 357.421L306.133 356.952Z" fill="black" fill-opacity="0.2"/>
<path d="M319.803 357.929L319.908 364.507L326.47 364.975L326.365 358.398L319.803 357.929Z" fill="black" fill-opacity="0.2"/>
<path d="M333.474 358.905L333.579 365.483L340.141 365.952L340.036 359.374L333.474 358.905Z" fill="black" fill-opacity="0.2"/>
<path d="M341.016 420.768L340.911 414.19L334.349 413.721L334.454 420.299L341.016 420.768Z" fill="black" fill-opacity="0.2"/>
<path d="M327.345 419.791L327.24 413.213L320.678 412.745L320.783 419.322L327.345 419.791Z" fill="black" fill-opacity="0.2"/>
<path d="M313.675 418.815L313.57 412.237L307.008 411.768L307.113 418.346L313.675 418.815Z" fill="black" fill-opacity="0.2"/>
<path d="M300.004 417.838L299.899 411.26L293.337 410.792L293.442 417.369L300.004 417.838Z" fill="black" fill-opacity="0.2"/>
<path d="M286.333 416.862L286.228 410.284L279.666 409.815L279.771 416.393L286.333 416.862Z" fill="black" fill-opacity="0.2"/>
<path d="M272.662 415.885L272.557 409.307L265.995 408.839L266.1 415.416L272.662 415.885Z" fill="black" fill-opacity="0.2"/>
<path d="M258.991 414.909L258.886 408.331L252.324 407.862L252.429 414.44L258.991 414.909Z" fill="black" fill-opacity="0.2"/>
<path d="M245.32 413.932L245.215 407.354L238.653 406.886L238.758 413.463L245.32 413.932Z" fill="black" fill-opacity="0.2"/>
<path d="M231.65 412.956L231.545 406.378L224.983 405.909L225.088 412.487L231.65 412.956Z" fill="black" fill-opacity="0.2"/>
<path d="M217.979 411.979L217.874 405.401L211.312 404.933L211.417 411.511L217.979 411.979Z" fill="black" fill-opacity="0.2"/>
<path d="M204.308 411.003L204.203 404.425L197.641 403.956L197.746 410.534L204.308 411.003Z" fill="black" fill-opacity="0.2"/>
<path d="M190.637 410.026L190.532 403.448L183.97 402.98L184.075 409.558L190.637 410.026Z" fill="black" fill-opacity="0.2"/>
<path d="M176.966 409.05L176.861 402.472L170.299 402.003L170.404 408.581L176.966 409.05Z" fill="black" fill-opacity="0.2"/>
<path d="M170.186 394.877L176.748 395.346L176.643 388.768L170.081 388.299L170.186 394.877Z" fill="black" fill-opacity="0.2"/>
<path d="M169.967 381.173L176.529 381.642L176.424 375.064L169.862 374.595L169.967 381.173Z" fill="black" fill-opacity="0.2"/>
<path d="M169.748 367.469L176.31 367.938L176.205 361.36L169.643 360.891L169.748 367.469Z" fill="black" fill-opacity="0.2"/>
<path d="M183.314 361.868L183.419 368.446L189.981 368.915L189.876 362.337L183.314 361.868Z" fill="black" fill-opacity="0.2"/>
<path d="M196.985 362.844L197.09 369.422L203.652 369.891L203.547 363.313L196.985 362.844Z" fill="black" fill-opacity="0.2"/>
<path d="M210.656 363.821L210.761 370.399L217.323 370.868L217.218 364.29L210.656 363.821Z" fill="black" fill-opacity="0.2"/>
<path d="M224.326 364.797L224.431 371.375L230.993 371.844L230.888 365.266L224.326 364.797Z" fill="black" fill-opacity="0.2"/>
<path d="M237.997 365.774L238.102 372.352L244.664 372.82L244.559 366.243L237.997 365.774Z" fill="black" fill-opacity="0.2"/>
<path d="M251.668 366.75L251.773 373.328L258.335 373.797L258.23 367.219L251.668 366.75Z" fill="black" fill-opacity="0.2"/>
<path d="M265.339 367.727L265.444 374.305L272.006 374.773L271.901 368.196L265.339 367.727Z" fill="black" fill-opacity="0.2"/>
<path d="M279.01 368.703L279.115 375.281L285.677 375.75L285.572 369.172L279.01 368.703Z" fill="black" fill-opacity="0.2"/>
<path d="M292.681 369.68L292.786 376.258L299.348 376.726L299.243 370.149L292.681 369.68Z" fill="black" fill-opacity="0.2"/>
<path d="M306.351 370.656L306.456 377.234L313.018 377.703L312.913 371.125L306.351 370.656Z" fill="black" fill-opacity="0.2"/>
<path d="M320.022 371.633L320.127 378.211L326.689 378.679L326.584 372.102L320.022 371.633Z" fill="black" fill-opacity="0.2"/>
<path d="M333.693 372.609L333.798 379.187L340.36 379.656L340.255 373.078L333.693 372.609Z" fill="black" fill-opacity="0.2"/>
<path d="M340.474 386.782L333.912 386.313L334.017 392.891L340.579 393.36L340.474 386.782Z" fill="black" fill-opacity="0.2"/>
<path d="M340.692 400.486L334.13 400.017L334.235 406.595L340.797 407.064L340.692 400.486Z" fill="black" fill-opacity="0.2"/>
<path d="M327.127 406.087L327.022 399.509L320.46 399.041L320.565 405.619L327.127 406.087Z" fill="black" fill-opacity="0.2"/>
<path d="M313.456 405.111L313.351 398.533L306.789 398.064L306.894 404.642L313.456 405.111Z" fill="black" fill-opacity="0.2"/>
<path d="M299.785 404.134L299.68 397.556L293.118 397.088L293.223 403.666L299.785 404.134Z" fill="black" fill-opacity="0.2"/>
<path d="M286.114 403.158L286.009 396.58L279.447 396.111L279.552 402.689L286.114 403.158Z" fill="black" fill-opacity="0.2"/>
<path d="M272.443 402.181L272.338 395.603L265.776 395.135L265.881 401.713L272.443 402.181Z" fill="black" fill-opacity="0.2"/>
<path d="M258.773 401.205L258.668 394.627L252.106 394.158L252.211 400.736L258.773 401.205Z" fill="black" fill-opacity="0.2"/>
<path d="M245.102 400.228L244.997 393.65L238.435 393.182L238.54 399.76L245.102 400.228Z" fill="black" fill-opacity="0.2"/>
<path d="M231.431 399.252L231.326 392.674L224.764 392.205L224.869 398.783L231.431 399.252Z" fill="black" fill-opacity="0.2"/>
<path d="M217.76 398.275L217.655 391.697L211.093 391.229L211.198 397.807L217.76 398.275Z" fill="black" fill-opacity="0.2"/>
<path d="M204.089 397.299L203.984 390.721L197.422 390.252L197.527 396.83L204.089 397.299Z" fill="black" fill-opacity="0.2"/>
<path d="M190.418 396.322L190.313 389.744L183.751 389.276L183.856 395.854L190.418 396.322Z" fill="black" fill-opacity="0.2"/>
<path d="M183.638 382.15L190.2 382.618L190.095 376.041L183.533 375.572L183.638 382.15Z" fill="black" fill-opacity="0.2"/>
<path d="M197.204 376.548L197.309 383.126L203.871 383.595L203.766 377.017L197.204 376.548Z" fill="black" fill-opacity="0.2"/>
<path d="M210.874 377.525L210.979 384.103L217.541 384.571L217.436 377.994L210.874 377.525Z" fill="black" fill-opacity="0.2"/>
<path d="M224.545 378.501L224.65 385.079L231.212 385.548L231.107 378.97L224.545 378.501Z" fill="black" fill-opacity="0.2"/>
<path d="M238.216 379.478L238.321 386.056L244.883 386.524L244.778 379.947L238.216 379.478Z" fill="black" fill-opacity="0.2"/>
<path d="M251.887 380.454L251.992 387.032L258.554 387.501L258.449 380.923L251.887 380.454Z" fill="black" fill-opacity="0.2"/>
<path d="M265.558 381.431L265.663 388.009L272.225 388.477L272.12 381.899L265.558 381.431Z" fill="black" fill-opacity="0.2"/>
<path d="M279.228 382.407L279.333 388.985L285.895 389.454L285.79 382.876L279.228 382.407Z" fill="black" fill-opacity="0.2"/>
<path d="M292.899 383.384L293.004 389.962L299.566 390.43L299.461 383.852L292.899 383.384Z" fill="black" fill-opacity="0.2"/>
<path d="M306.57 384.36L306.675 390.938L313.237 391.407L313.132 384.829L306.57 384.36Z" fill="black" fill-opacity="0.2"/>
<path d="M320.241 385.337L320.346 391.915L326.908 392.383L326.803 385.805L320.241 385.337Z" fill="black" fill-opacity="0.2"/>
<path d="M123.728 250.378L342.209 266.63L342.795 303.356L124.314 287.105L123.728 250.378Z" fill="#77A74D"/>
<circle cx="145.995" cy="271.406" r="8.96452" transform="rotate(-0.914385 145.995 271.406)" fill="white" fill-opacity="0.39" stroke="black" stroke-width="4"/>
<circle cx="173.438" cy="273.161" r="8.96452" transform="rotate(-0.914385 173.438 273.161)" fill="white" fill-opacity="0.39" stroke="black" stroke-width="4"/>
<circle cx="200.898" cy="276.013" r="8.96452" transform="rotate(-0.914385 200.898 276.013)" fill="white" fill-opacity="0.39" stroke="black" stroke-width="4"/>
<circle cx="228.341" cy="277.768" r="8.96452" transform="rotate(-0.914385 228.341 277.768)" fill="white" fill-opacity="0.39" stroke="black" stroke-width="4"/>
<circle cx="255.784" cy="279.523" r="8.96452" transform="rotate(-0.914385 255.784 279.523)" fill="white" fill-opacity="0.39" stroke="black" stroke-width="4"/>
<circle cx="283.226" cy="281.278" r="8.96452" transform="rotate(-0.914385 283.226 281.278)" fill="white" fill-opacity="0.39" stroke="black" stroke-width="4"/>
<path d="M303.386 273.281L334.127 275.531L334.424 294.169L303.684 291.918L303.386 273.281Z" fill="black"/>
<path d="M202.32 227.586L231.424 230.411C233.17 225.266 244.329 216.347 277.836 218.31C314.607 220.465 319.158 230.81 324.734 236.61L353.827 238.733" stroke="black" stroke-width="10"/>
<path d="M219.806 223.908L248.91 226.734C250.656 221.588 261.815 212.669 295.322 214.633C332.093 216.787 336.644 227.132 342.22 232.932L371.313 235.056" stroke="black" stroke-width="10"/>
<path d="M220.262 218.133L202.783 222.25L235.351 235.986L252.849 232.965L220.262 218.133Z" fill="black"/>
<path d="M353.362 243.971L314.146 225.955L326.675 220.821L349.342 232.521L370.851 240.403L353.362 243.971Z" fill="black"/>
<path d="M375.38 265.793L443.908 247.238L445.004 344.274L377.024 366.203L375.38 265.793Z" fill="black" fill-opacity="0.21"/>
<path d="M287.53 269.34L301.43 249.88C330.156 266.538 420.872 316.674 450.159 310.345C458.025 308.645 441.819 292.275 446.684 281.85C453.634 272.815 465.449 259.61 465.449 259.61C465.449 259.61 600.669 430.592 597.499 436.139C583.599 460.464 547.459 479.924 512.014 479.924C492.504 479.924 459.194 474.364 436.259 461.854C406.121 445.415 386.219 430.579 377.879 411.119C367.248 386.313 383.439 357.604 374.404 349.265C365.369 340.925 332.01 326.33 308.38 309.65C289.476 296.306 286.603 277.216 287.53 269.34Z" fill="#A30000"/>
<path d="M238.185 92.1154C238.185 92.1154 256.949 100.456 268.069 104.626C277.104 65.7058 224.285 1.76569 224.285 1.76569C224.285 1.76569 220.81 5.24067 218.725 8.02067C213.165 14.2756 219.42 21.2256 225.675 46.2455C229.972 63.4355 222.895 67.0955 224.285 79.6054C225.146 87.3615 232.625 90.0301 238.185 92.1154Z" fill="#818181"/>
<path d="M262.51 101.845L265.29 94.2004L400.814 287.41L394.559 299.225L262.51 101.845Z" fill="#46332E"/>
<path d="M458.267 289.645C440.886 291.245 429.189 271.317 408.751 270.622C400.006 272.23 394.004 271.855 387.764 278.006C381.524 284.156 376.959 286.025 364.418 278.736C352.739 271.947 337.913 255.079 330.034 249.843C322.155 244.608 304.083 241.565 299.766 251.957C295.448 262.35 314.02 284.431 324.285 295.948C334.55 307.464 372.087 325.371 385.13 334.41C398.173 343.448 399.418 351.349 396.647 362.905L396.614 363.042C394.393 372.301 393.407 376.414 396.71 388.534C401.775 407.124 426.961 433.156 455.129 444.919C483.694 456.848 509.247 461.241 545.222 457.892C572.505 455.352 592.006 446.316 598.573 435.318C605.141 424.32 606.894 409.038 596.055 389.695C580.654 362.21 571.153 360.172 545.261 345.192C529.163 335.877 522.197 330.029 517.47 319.763C512.743 309.496 515.959 297.763 510.039 284.356C504.119 270.949 495.171 260.829 473.483 257.867C451.796 254.905 471.871 288.392 458.267 289.645Z" fill="#D20001"/>
<path d="M476.914 396.312C476.914 396.312 491.5 397.191 503.666 395.697C519.463 393.758 527.471 391.172 539.881 391.785C549.809 392.275 560.964 397.742 564.022 400.037C568.46 402.697 578.448 407.025 582.895 403.061C588.453 398.105 579.522 383.254 558.652 363.843C540.898 347.33 532.89 349.915 516.739 336.409C500.587 322.904 503.27 307.085 502.366 299.719C501.461 292.353 496.199 273.559 484.406 271.48C473.689 269.592 475.699 278.425 477.062 281.996C480.072 288.926 481.469 302.819 453.832 298.735C421.109 293.899 405.81 284.335 396.974 290.227C388.138 296.119 406.719 309.326 413.57 314.894C420.421 320.462 429.76 333.737 430.962 348.544C432.163 363.351 431.465 367.71 442.626 380.76C455.844 396.215 476.914 396.312 476.914 396.312Z" fill="white"/>
<path d="M472.483 394.551C468.787 389.646 470.733 385.064 476.828 384.315L503.359 381.057C509.455 380.309 517.393 383.678 521.089 388.583L524.65 393.309C528.346 398.214 526.401 402.797 520.305 403.545L493.774 406.803C487.679 407.552 479.741 404.182 476.045 399.277L472.483 394.551Z" fill="#D3D3D3"/>
<path d="M498.963 364.506C501.811 368.286 494.871 372.486 483.463 373.887C472.054 375.288 460.496 373.359 457.648 369.579C454.8 365.799 461.739 361.599 473.148 360.198C484.556 358.798 496.114 360.726 498.963 364.506Z" fill="#D9D9D9"/>
<path d="M467.501 319.232C470.349 323.012 463.41 327.212 452.001 328.612C440.593 330.013 429.035 328.085 426.187 324.305C423.338 320.525 430.278 316.325 441.686 314.924C453.095 313.523 464.653 315.452 467.501 319.232Z" fill="#D9D9D9"/>
<path d="M263.98 93.1936L293.751 89.5382L449.598 298.998L410.953 303.209L263.98 93.1936Z" fill="#684B43"/>
<path d="M264.956 93.6079C264.956 93.6079 231.48 82.6566 230.152 73.8468C228.491 62.8346 236.241 58.1443 233.514 51.0018L225.964 49.7923C225.449 51.4579 222.788 54.562 216.263 53.6541C209.737 52.7462 207.43 48.6855 207.091 46.7686C207.281 44.965 208.854 41.5317 213.626 42.2276C218.399 42.9234 223.84 47.5607 225.964 49.7923L233.514 51.0018C232.447 48.207 230.237 40.7485 227.882 32.4657L221.577 31.6375C221.062 33.303 218.401 36.4071 211.875 35.4992C205.35 34.5913 203.042 30.5306 202.704 28.6138C202.894 26.8102 204.466 23.3769 209.239 24.0727C214.011 24.7686 219.453 29.4058 221.577 31.6375L227.882 32.4657C226.205 26.5687 224.455 20.2538 222.991 14.9067L215.974 13.6319C215.459 15.2974 212.798 18.4015 206.273 17.4936C199.747 16.5857 197.439 12.525 197.101 10.6082C197.291 8.80457 198.864 5.37127 203.636 6.06712C208.409 6.76296 213.85 11.4002 215.974 13.6319L222.991 14.9067C222.308 12.4088 221.687 10.122 221.165 8.18768C220.9 5.19363 222.878 -0.461476 232.909 0.870535C245.448 2.53555 251.232 11.9732 254.806 18.4777C258.38 24.9822 259.672 35.5056 277.13 44.5782C294.587 53.6509 313.24 59.9062 301.276 70.4549C289.311 81.0037 290.397 79.8022 294.119 90.0271L264.956 93.6079Z" fill="#B1B1B1"/>
<path d="M276.764 111.92L307.142 108.19L309.352 111.123L278.974 114.853L276.764 111.92Z" fill="white"/>
<path d="M292.734 133.994L323.72 130.189L325.93 133.122L294.944 136.927L292.734 133.994Z" fill="white"/>
<path d="M307.359 155.164L339.56 151.21L341.771 154.144L309.57 158.097L307.359 155.164Z" fill="white"/>
<path d="M321.616 175.846L355.033 171.743L357.243 174.676L323.827 178.779L321.616 175.846Z" fill="white"/>
<path d="M336.113 195.964L369.529 191.861L371.739 194.794L338.323 198.897L336.113 195.964Z" fill="white"/>
<path d="M350.002 216.157L384.633 211.905L386.843 214.838L352.212 219.09L350.002 216.157Z" fill="white"/>
<path d="M363.393 234.808L398.632 230.482L400.842 233.415L365.603 237.742L363.393 234.808Z" fill="white"/>
<path d="M374.703 251.579L410.549 247.178L412.76 250.111L394.836 252.312L376.913 254.512L374.703 251.579Z" fill="white"/>
<path d="M384.41 265.342L420.864 260.866L423.075 263.799L386.621 268.275L384.41 265.342Z" fill="white"/>
<path d="M393.381 278.127L430.442 273.577L432.653 276.51L395.591 281.06L393.381 278.127Z" fill="white"/>
<path d="M401.615 289.935L439.284 285.309L441.494 288.243L403.825 292.868L401.615 289.935Z" fill="white"/>
<path d="M250.822 56.3539C252.857 59.0539 251.786 61.5766 248.431 61.9886C245.075 62.4006 240.706 60.5458 238.671 57.8459C236.636 55.146 237.707 52.6232 241.063 52.2112C244.418 51.7992 248.788 53.654 250.822 56.3539Z" fill="black"/>
<path d="M243.856 34.777C245.89 37.477 244.82 39.9997 241.464 40.4117C238.109 40.8237 233.739 38.969 231.705 36.269C229.67 33.5691 230.741 31.0464 234.096 30.6343C237.452 30.2223 241.821 32.0771 243.856 34.777Z" fill="black"/>
<path d="M239.707 16.0588C241.742 18.7587 240.671 21.2815 237.316 21.6935C233.96 22.1055 229.591 20.2507 227.556 17.5508C225.522 14.8508 226.592 12.3281 229.948 11.9161C233.303 11.5041 237.673 13.3588 239.707 16.0588Z" fill="black"/>
<g opacity="0.96">
<path d="M245.135 56.6705L491.729 398.205" stroke="black" stroke-width="2"/>
<path d="M238.184 35.1256L501.457 395.422" stroke="black" stroke-width="2"/>
<line x1="234.819" y1="17.1568" x2="512.818" y2="393.846" stroke="black" stroke-width="2"/>
</g>
<path d="M119.403 461.984L101.867 451.124L121.982 456.66L118.407 444.445L133.737 455.151L136.06 445.675L151.565 461.815L163.174 446.359L163.994 458.464L180.409 453.584L173.038 463.913L190.249 462.98L181.436 470.18C184.573 473.233 190.736 479.067 192.516 480.174C192.884 480.3 193.035 480.366 192.917 480.358C192.835 480.352 192.698 480.288 192.516 480.174C190.122 479.358 178.567 476.024 172.289 474.232L168.655 478.667L164.072 472.878L157.789 475.566L151.335 472.772L147.312 474.836C145.529 473.93 141.435 471.952 141.435 471.952L134.63 473.952L129.441 468.902L124.594 474.995L120.556 469.292L104.985 470.015L119.403 461.984Z" fill="#2C7149"/>
<path d="M358.162 478.127L375.694 487.752L361.964 495.899L376.492 498.888L380.658 504.136L385.137 498.184L386.977 507.408L396.952 500.621C396.952 500.621 402.604 507.755 404.379 508.546L408.9 498.641L420.3 504.981L422.999 496.757L436.341 503.665L431.975 493.532L448.18 492.739L436.155 490.011L442.783 481.197L428.053 487.564L431.635 471.927L419.018 482.744L412.456 470.744L406.816 482.693L400.058 468.698L393.584 485.463L382.151 473.422L377.994 482.614L358.162 478.127Z" fill="#287247"/>
<path d="M406.214 512.265C389.145 517.176 323.157 525.563 278.201 512.264C258.286 506.372 288.629 397.356 338.888 398.338C389.146 399.32 423.282 507.354 406.214 512.265Z" fill="url(#paint0_linear_10_3)"/>
<path d="M321.332 474.937C325.125 459.223 331.763 426.813 294.781 428.777C298.574 421.902 304.263 416.01 309.005 411.099C341.245 408.153 345.038 433.688 344.09 449.402C386.761 443.509 405.726 498.509 392.451 515.205L392.451 515.205C385.813 516.187 379.175 517.169 368.744 518.151C381.072 503.419 366.848 469.045 321.332 474.937Z" fill="#8D8CC4"/>
<path d="M274.98 505.67L292.572 513.218L278.898 519.418L293.444 521.822L297.643 525.902L302.082 521.336L303.983 528.471L313.911 523.296C313.911 523.296 319.609 528.842 321.389 529.464L325.844 521.846L337.283 526.817L339.928 520.485L353.313 525.907L348.88 518.054L365.077 517.548L353.036 515.363L359.604 508.601L344.92 513.42L348.398 501.369L335.854 509.638L329.214 500.328L323.654 509.518L316.805 498.667L310.443 511.569L298.933 502.195L294.837 509.266L274.98 505.67Z" fill="#1E914E"/>
<defs>
<linearGradient id="paint0_linear_10_3" x1="385.813" y1="494.58" x2="272.97" y2="493.665" gradientUnits="userSpaceOnUse">
<stop stop-color="#8483B8"/>
<stop offset="1" stop-color="#555483"/>
</linearGradient>
</defs>
</svg>
