<svg width="832" height="891" viewBox="0 0 832 891" fill="none" xmlns="http://www.w3.org/2000/svg">
<path d="M445 856L374 601.741L301.5 720.741L280 591.741L189.5 683.241L142 501.241L429.5 447.241L753 422.241L723 639.241L675 595.241L650 772.241L608.5 680.741L586 828.5L558.5 794.741L536.5 891L490.5 886L466.5 846L445 856Z" fill="#964D66"/>
<path d="M98 505.241L51.5 572.741L11.5 483.741L10 423L14.5 407L27.5 365L47.5 355.5L79 182.5L157.75 181.75L197.5 207.5L236.875 207.125L255 333.741L298 361L314 393L331 352L322 332.5L323 309.241C323 309.241 384.623 278.243 386.5 276.741C390.5 273.541 676.833 284.741 819.5 290.741L818 365.741L755.5 560.241L721.5 473.741L685 679.241L622.5 645.741L563.5 511.241L482 714.741L437 607.741L379 774.741L350 693.241L304 821.241L281 734.741L235 595.241L177 536.241L166 577.741L134.5 614.241L98 505.241Z" fill="#AB576F"/>
<path d="M8.00758 451.054C4.67424 438.221 1.30758 410.254 14.5076 401.054C14.0076 397.221 25.8076 388.354 77.0076 383.554C141.008 377.554 214.073 379.726 278.008 383.554C310.5 385.5 307.107 387.37 334 399C352.5 407 348.5 415.5 350.508 451.054C338 463.741 316 469.241 270 475.241C211.913 482.818 161.446 477.192 103 473.241C53.9924 469.928 17.5 464.741 8.00758 451.054Z" fill="#85C28D"/>
<path d="M327.5 278.241C347.251 262.648 429 240.241 566 240.241C675.018 240.241 772 253.241 808 264.241C832.028 271.583 837 334.241 822 349.741C807 365.241 745.338 381.161 668 391.5C595 401.259 495 401.39 431 381.5C408.78 374.595 391.66 367.5 370 359C351.261 351.646 328.5 347.5 324 335.741C320 324.241 318 285.741 327.5 278.241Z" fill="#85C28D"/>
<path d="M331 353L315 390C331.5 397 336 399 344.5 405.5C351.5 417 349 443 350.5 451C354.5 451 362.5 481 362.5 481L363.5 508.5L379 548.5L463.5 559.5L396 508L471.5 544.5L495.5 444.5C495.5 444.5 524.281 404.399 526.5 397C519.5 394.5 522 356.5 527 355L576 328C539.833 302.667 457.7 252.2 418.5 253C369.5 254 332 275 327.5 278.5C318.7 283.7 319 319.5 324 336.5L331 353Z" fill="black" fill-opacity="0.2"/>
<path d="M11.5001 484L51.5001 572.5L54.5 541L69 523.5L66 501.5C82 499 60.0001 477 72.5001 470.5C62.5001 467.5 67.0001 435.5 75.5001 433C52.0001 421 52.0001 386 69 385C138.738 380.898 214 379.833 243 381L157 182L78.5 182.5L41.5001 390C41.5001 390 22 390 14 401C3.00004 408.5 2.00006 447.5 11.0001 454.5L11.5001 484Z" fill="black" fill-opacity="0.2"/>
<path d="M767.5 402L756 559.5L818 365.5C818 365.5 818.694 357.888 819 353C832 343 840 290.5 814 266.5C753 246 607.5 240 607.5 240C607.5 240 764.5 249 779 299.5C793.5 323 783 368 783 368L767.5 402Z" fill="white" fill-opacity="0.15"/>
<path d="M362.5 481C362.5 481 354 453.5 351.5 450C348 439.5 355 401.5 335 399.5C300 376 242 382.5 190 380C253.5 385.5 270.528 386.409 286.5 417.5C294 420 300.5 468 291 472.5L324 490L328.5 519.5L360.5 532L379.5 548L364 509L362.5 481Z" fill="white" fill-opacity="0.15"/>
<path d="M369 744.5L379.5 774L437.5 607.5L369 744.5Z" fill="white" fill-opacity="0.15"/>
<path d="M377.5 616L304.5 821L294.5 782.5L377.5 616Z" fill="white" fill-opacity="0.15"/>
<path d="M721.5 474.5L651.5 661.5L685 679.5L721.5 474.5Z" fill="white" fill-opacity="0.15"/>
<path d="M605 492.5L616 467.5L623.5 470L616 495L640.5 524.5L624 556L617 545.5L618.5 516.5L605 492.5Z" fill="white" fill-opacity="0.15"/>
<path d="M520.5 16.0645C520.5 7.19233 527.692 0 536.564 0C545.386 0 552.557 7.11363 552.628 15.935L552.935 53.8966C552.968 58.015 556.873 60.9984 560.855 59.9475C563.599 59.2232 565.523 56.7562 565.555 53.9182L565.874 26.1429C565.944 20.0157 570.839 15.0364 576.964 14.8607C583.505 14.6731 588.866 20.0108 588.706 26.553L587.411 79.5161C587.182 88.8678 579.536 96.3299 570.181 96.3299C560.684 96.3299 552.976 104.013 552.946 113.511L552.55 240.025C552.522 248.856 545.356 256 536.525 256C527.675 256 520.5 248.825 520.5 239.975V151.803C520.5 141.991 512.449 134.088 502.638 134.27C492.914 134.451 484.9 126.683 484.777 116.958L484.149 67.2336C484.066 60.6824 489.258 55.2781 495.807 55.0981C502.507 54.9139 508.056 60.2578 508.125 66.9594L508.428 96.5479C508.466 100.249 511.795 103.044 515.446 102.442C518.361 101.961 520.5 99.4407 520.5 96.4861V16.0645Z" fill="url(#paint0_linear_16_80)"/>
<path d="M255.852 254.957C255.852 247.934 261.545 242.241 268.567 242.241C275.537 242.241 281.207 247.852 281.282 254.821L281.479 273.274C281.512 276.409 284.387 278.741 287.461 278.128C289.773 277.666 291.449 275.654 291.485 273.296L291.687 259.99C291.761 255.146 295.653 251.228 300.497 251.123C305.66 251.011 309.86 255.255 309.693 260.417L308.847 286.572C308.609 293.953 302.556 299.814 295.17 299.814C287.635 299.814 281.518 305.906 281.486 313.441L281.2 382.62C281.171 389.599 275.505 395.241 268.526 395.241C261.527 395.241 255.852 389.567 255.852 382.568V336.44C255.852 328.658 249.486 322.38 241.704 322.489C234.014 322.597 227.687 316.462 227.558 308.772L227.158 284.798C227.07 279.582 231.217 275.278 236.432 275.169C241.689 275.06 246.029 279.254 246.101 284.511L246.294 298.813C246.333 301.661 248.838 303.843 251.665 303.491C254.057 303.192 255.852 301.159 255.852 298.748V254.957Z" fill="url(#paint1_linear_16_80)"/>
<path d="M705.5 46.0308C705.5 37.1772 712.677 30 721.531 30C730.36 30 737.527 37.1397 737.561 45.9691L737.971 152.341C737.986 156.309 741.619 159.276 745.51 158.498C748.422 157.916 750.532 155.381 750.577 152.412L750.834 135.479C750.926 129.351 755.85 124.395 761.978 124.261C768.51 124.119 773.823 129.489 773.612 136.019L772.541 169.224C772.24 178.575 764.572 186 755.216 186C745.688 186 737.947 193.688 737.881 203.215L737.61 242.556C737.549 251.379 730.379 258.5 721.555 258.5C712.688 258.5 705.5 251.312 705.5 242.445V166.9C705.5 157.055 697.446 149.113 687.602 149.252C677.873 149.389 669.869 141.627 669.707 131.899L669.199 101.432C669.089 94.8341 674.334 89.3889 680.931 89.2514C687.582 89.1129 693.073 94.4184 693.163 101.07L693.409 119.244C693.457 122.848 696.628 125.609 700.204 125.162C703.23 124.784 705.5 122.212 705.5 119.163V46.0308Z" fill="url(#paint2_linear_16_80)"/>
<path d="M231.996 373.977L247.504 382.905L235.226 390.271L248.12 393.104L251.78 397.937L255.813 392.518L257.372 400.974L266.299 394.829C266.299 394.829 271.265 401.397 272.837 402.132L276.941 393.096L287.025 398.976L289.495 391.466L301.3 397.878L297.503 388.574L311.921 387.956L301.25 385.379L307.218 377.355L294.066 383.084L297.384 368.794L286.072 378.611L280.339 367.582L275.222 378.483L269.331 365.626L263.432 380.93L253.368 369.83L249.593 378.218L231.996 373.977Z" fill="#2A9356"/>
<path d="M647.51 127.03C647.51 122.043 651.552 118 656.539 118C661.496 118 665.526 121.995 665.569 126.951L665.732 145.509C665.752 147.794 667.895 149.465 670.116 148.927C671.693 148.545 672.809 147.144 672.83 145.522L672.999 131.992C673.042 128.548 675.799 125.753 679.242 125.662C682.915 125.566 685.918 128.57 685.82 132.243L685.128 158.232C684.988 163.485 680.689 167.67 675.435 167.67C670.093 167.67 665.757 171.991 665.738 177.333L665.521 241.025C665.504 245.987 661.477 250 656.515 250C651.542 250 647.51 245.968 647.51 240.994V197.106C647.51 191.587 642.985 187.139 637.467 187.233C632.002 187.326 627.501 182.962 627.426 177.496L627.092 153.236C627.041 149.546 629.968 146.502 633.657 146.409C637.413 146.315 640.52 149.311 640.562 153.068L640.723 167.511C640.746 169.572 642.586 171.137 644.624 170.829C646.283 170.577 647.51 169.151 647.51 167.473V127.03Z" fill="url(#paint3_linear_16_80)"/>
<path d="M603.407 230.97L618.775 240.137L606.385 247.312L619.234 250.345L622.818 255.233L626.935 249.877L628.363 258.357L637.384 252.35C637.384 252.35 642.247 258.994 643.808 259.754L648.051 250.782L658.042 256.817L660.628 249.346L672.333 255.94L668.68 246.578L683.106 246.183L672.477 243.441L678.568 235.51L665.329 241.036L668.867 226.799L657.405 236.44L651.843 225.324L646.558 236.144L640.866 223.198L634.732 238.408L624.84 227.154L620.936 235.482L603.407 230.97Z" fill="#4A9D1D"/>
<path fill-rule="evenodd" clip-rule="evenodd" d="M712.32 265.315C746.365 267.447 771.081 273.614 771.058 280.809C771.029 289.653 733.62 296.701 687.503 296.55C641.385 296.399 604.023 289.107 604.052 280.263C604.077 272.592 632.222 266.273 669.778 264.829C669.783 264.828 669.787 264.827 669.791 264.826C676.501 263.28 684.399 261.459 689.921 256.522C696.366 261.382 704.076 263.281 710.434 264.847C711.078 265.006 711.707 265.161 712.32 265.315Z" fill="url(#paint4_angular_16_80)"/>
<path d="M368.041 154C368.041 154 363.541 179.5 448.541 179.5C533.541 179.5 529.041 154 529.041 154V282C529.041 282 533.541 307.5 448.541 307.5C363.541 307.5 368.041 282 368.041 282V154Z" fill="url(#paint5_linear_16_80)"/>
<path d="M529.041 157.5C529.041 170.479 493 181 448.541 181C404.082 181 368.041 170.479 368.041 157.5C368.041 144.521 404.082 134 448.541 134C493 134 529.041 144.521 529.041 157.5Z" fill="url(#paint6_radial_16_80)"/>
<path d="M443.541 277.5H455.541V304.5H443.541V291V277.5Z" fill="url(#paint7_linear_16_80)"/>
<path d="M397.541 272L409.541 275V302L397.541 299V272Z" fill="url(#paint8_linear_16_80)"/>
<path d="M492.041 274L504.041 270.5V297.5L492.041 301V274Z" fill="url(#paint9_linear_16_80)"/>
<path d="M368.041 257L375.541 264V291L368.041 284V257Z" fill="url(#paint10_linear_16_80)"/>
<path d="M521.541 264L529.041 257V284L521.541 291V264Z" fill="url(#paint11_linear_16_80)"/>
<path d="M443.541 184H455.541V211H443.541V197.5V184Z" fill="url(#paint12_linear_16_80)"/>
<path d="M397.541 178.5L409.541 181.5V208.5L397.541 205.5V178.5Z" fill="url(#paint13_linear_16_80)"/>
<path d="M492.041 180.5L504.041 177V204L492.041 207.5V180.5Z" fill="url(#paint14_linear_16_80)"/>
<path d="M368.041 163.5L375.541 170.5V197.5L368.041 190.5V163.5Z" fill="url(#paint15_linear_16_80)"/>
<path d="M521.541 170.5L529.041 163.5V190.5L521.541 197.5V170.5Z" fill="url(#paint16_linear_16_80)"/>
<path d="M368.041 282C368.041 288.63 376.522 294.989 391.619 299.678C406.716 304.366 427.191 307 448.541 307C469.891 307 490.367 304.366 505.463 299.678C520.56 294.989 529.041 288.63 529.041 282" stroke="url(#paint17_radial_16_80)" stroke-width="9"/>
<path d="M368.041 157C368.041 163.63 376.522 169.989 391.619 174.678C406.716 179.366 427.191 182 448.541 182C469.891 182 490.367 179.366 505.463 174.678C520.56 169.989 529.041 163.63 529.041 157" stroke="url(#paint18_radial_16_80)" stroke-width="9"/>
<path d="M423.777 328.46L414.572 313.115L428.883 312.653L418.996 303.904L418.15 297.902L411.99 300.674L414.742 292.527L403.953 293.553C403.953 293.553 402.81 285.399 401.795 283.991L393.813 289.889L387.864 279.846L382.052 285.206L374.858 273.859L373.648 283.836L360.752 277.361L368.82 284.804L359.702 288.91L373.98 290.304L364.129 301.174L378.788 298.101L378.431 310.526L388.204 303.492L387.096 317.591L399.696 307.091L403.088 321.685L410.467 316.194L423.777 328.46Z" fill="#2A9356"/>
<path d="M333.721 274.576L344.343 283.823L333.787 287.812L343.301 291.904L345.402 296.222L349.316 292.562L349.259 299.414L357.051 295.894C357.051 295.894 359.901 301.762 361.003 302.567L365.509 296.082L372.404 302.153L375.424 296.627L383.567 303.366L382.024 295.524L393.225 297.133L385.387 293.564L391.178 288.143L380.193 290.723L384.873 280.008L374.698 286.058L371.92 276.584L366.357 284.382L363.729 273.453L356.909 284.588L350.804 274.429L346.649 280.453L333.721 274.576Z" fill="#37BB6E"/>
<path d="M528.026 196.918C528.026 196.918 525.204 214.664 578.5 214.664C631.796 214.664 628.974 196.918 628.974 196.918V285.995C628.974 285.995 631.796 303.741 578.5 303.741C525.204 303.741 528.026 285.995 528.026 285.995V196.918Z" fill="url(#paint19_linear_16_80)"/>
<path d="M628.974 199.354C628.974 208.386 606.376 215.708 578.5 215.708C550.624 215.708 528.026 208.386 528.026 199.354C528.026 190.322 550.624 183 578.5 183C606.376 183 628.974 190.322 628.974 199.354Z" fill="url(#paint20_radial_16_80)"/>
<path d="M575.365 282.864H582.889V301.653H575.365V292.258V282.864Z" fill="url(#paint21_linear_16_80)"/>
<path d="M546.523 279.036L554.047 281.124V299.913L546.523 297.826V279.036Z" fill="url(#paint22_linear_16_80)"/>
<path d="M605.775 280.428L613.299 277.992V296.782L605.775 299.217V280.428Z" fill="url(#paint23_linear_16_80)"/>
<path d="M528.026 268.597L532.728 273.469V292.258L528.026 287.387V268.597Z" fill="url(#paint24_linear_16_80)"/>
<path d="M624.272 273.469L628.974 268.597V287.387L624.272 292.258V273.469Z" fill="url(#paint25_linear_16_80)"/>
<path d="M575.365 217.796H582.889V236.585H575.365V227.19V217.796Z" fill="url(#paint26_linear_16_80)"/>
<path d="M546.523 213.968L554.047 216.056V234.846L546.523 232.758V213.968Z" fill="url(#paint27_linear_16_80)"/>
<path d="M605.775 215.36L613.299 212.924V231.714L605.775 234.15V215.36Z" fill="url(#paint28_linear_16_80)"/>
<path d="M528.026 203.529L532.728 208.401V227.19L528.026 222.319V203.529Z" fill="url(#paint29_linear_16_80)"/>
<path d="M624.272 208.401L628.974 203.529V222.319L624.272 227.19V208.401Z" fill="url(#paint30_linear_16_80)"/>
<path d="M528.026 285.995C528.026 290.609 533.344 295.035 542.809 298.297C552.275 301.56 565.113 303.393 578.5 303.393C591.887 303.393 604.725 301.56 614.191 298.297C623.656 295.035 628.974 290.609 628.974 285.995" stroke="url(#paint31_radial_16_80)" stroke-width="9"/>
<path d="M528.026 199.006C528.026 203.62 533.344 208.045 542.809 211.308C552.275 214.571 565.113 216.404 578.5 216.404C591.887 216.404 604.725 214.571 614.191 211.308C623.656 208.045 628.974 203.62 628.974 199.006" stroke="url(#paint32_radial_16_80)" stroke-width="9"/>
<path fill-rule="evenodd" clip-rule="evenodd" d="M652.943 259.837C671.337 293.966 680.234 321.518 673.279 325.817C664.728 331.102 635.456 299.242 607.898 254.655C580.34 210.069 564.932 169.639 573.483 164.354C580.899 159.77 603.903 183.129 627.856 218.498C627.86 218.502 627.864 218.506 627.867 218.51C633.39 224.055 639.891 230.581 647.972 232.943C647.155 242.081 649.953 250.66 652.262 257.737C652.495 258.453 652.724 259.153 652.943 259.837Z" fill="url(#paint33_angular_16_80)"/>
<path d="M448.996 291.736L464.504 300.664L452.226 308.03L465.12 310.863L468.78 315.695L472.813 310.277L474.372 318.733L483.299 312.587C483.299 312.587 488.265 319.155 489.837 319.891L493.941 310.854L504.025 316.734L506.495 309.224L518.3 315.637L514.503 306.332L528.921 305.714L518.25 303.137L524.218 295.113L511.066 300.843L514.384 286.552L503.072 296.37L497.339 285.341L492.222 296.241L486.331 283.385L480.432 298.689L470.368 287.589L466.593 295.976L448.996 291.736Z" fill="#388658"/>
<path d="M484.028 215.159C484.028 215.159 480.955 234.486 539 234.486C597.045 234.486 593.972 215.159 593.972 215.159V312.173C593.972 312.173 597.045 331.5 539 331.5C480.955 331.5 484.028 312.173 484.028 312.173V215.159Z" fill="url(#paint34_linear_16_80)"/>
<path d="M593.972 217.811C593.972 227.648 569.36 235.622 539 235.622C508.64 235.622 484.028 227.648 484.028 217.811C484.028 207.974 508.64 200 539 200C569.36 200 593.972 207.974 593.972 217.811Z" fill="url(#paint35_radial_16_80)"/>
<path d="M535.586 308.762H543.78V329.226H535.586V318.994V308.762Z" fill="url(#paint36_linear_16_80)"/>
<path d="M504.173 304.594L512.368 306.867V327.331L504.173 325.058V304.594Z" fill="url(#paint37_linear_16_80)"/>
<path d="M568.705 306.11L576.9 303.457V323.921L568.705 326.573V306.11Z" fill="url(#paint38_linear_16_80)"/>
<path d="M484.028 293.225L489.15 298.53V318.994L484.028 313.689V293.225Z" fill="url(#paint39_linear_16_80)"/>
<path d="M588.85 298.53L593.972 293.225V313.689L588.85 318.994V298.53Z" fill="url(#paint40_linear_16_80)"/>
<path d="M535.586 237.896H543.78V258.36H535.586V248.128V237.896Z" fill="url(#paint41_linear_16_80)"/>
<path d="M504.173 233.728L512.368 236.001V256.465L504.173 254.192V233.728Z" fill="url(#paint42_linear_16_80)"/>
<path d="M568.705 235.243L576.9 232.591V253.055L568.705 255.707V235.243Z" fill="url(#paint43_linear_16_80)"/>
<path d="M484.028 222.359L489.15 227.664V248.128L484.028 242.823V222.359Z" fill="url(#paint44_linear_16_80)"/>
<path d="M588.85 227.664L593.972 222.359V242.823L588.85 248.128V227.664Z" fill="url(#paint45_linear_16_80)"/>
<path d="M484.028 312.173C484.028 317.198 489.82 322.018 500.129 325.571C510.438 329.125 524.421 331.121 539 331.121C553.58 331.121 567.562 329.125 577.871 325.571C588.18 322.018 593.972 317.198 593.972 312.173" stroke="url(#paint46_radial_16_80)" stroke-width="9"/>
<path d="M484.028 217.432C484.028 222.458 489.82 227.277 500.129 230.831C510.438 234.384 524.421 236.38 539 236.38C553.58 236.38 567.562 234.384 577.871 230.831C588.18 227.277 593.972 222.458 593.972 217.432" stroke="url(#paint47_radial_16_80)" stroke-width="9"/>
<path d="M123.908 311.941L131.785 397.636C123.191 405.088 111.509 409.678 98.1257 409.745C84.4673 409.814 69.4793 406.019 63.75 397.636L73.7762 314.735L40.8328 229.972C40.8328 229.972 28.658 216 97.4096 216C166.161 216 155.419 229.972 155.419 229.972L123.908 311.941Z" fill="url(#paint48_linear_16_80)"/>
<path d="M152.138 238.507C139.702 242.946 120.134 245.807 98.1257 245.807C76.142 245.807 56.5935 242.952 44.1558 238.522L40.8328 229.972C40.8328 229.972 28.658 216 97.4096 216C166.161 216 155.419 229.972 155.419 229.972L152.138 238.507Z" fill="#D9D9D9"/>
<path d="M73.7761 314.735C76.9534 315.523 80.3225 316.102 83.8024 316.482M73.7761 314.735L60.169 237.812M73.7761 314.735L41.5488 233.698C44.944 234.837 51.4043 236.461 60.169 237.812M123.191 312.873C122.022 313.235 119.61 313.804 116.03 314.735M123.191 312.873L138.947 236.442M123.191 312.873L154.702 232.766C151.895 233.713 146.505 235.108 138.947 236.442M73.0599 319.393C88.0993 324.05 118.894 321.256 123.907 317.53M72.3438 324.05C88.8155 329.639 120.327 325.913 125.34 323.119M71.6276 329.639C93.1125 334.296 112.449 331.502 125.34 327.776M84.5185 240.218C89.8999 240.48 93.5055 240.376 99.5579 240.218C104.609 240.087 110.108 239.62 114.597 239.287M84.5185 240.218L100.99 316.816M84.5185 240.218L83.8024 316.482M84.5185 240.218C76.1151 239.809 66.472 238.784 60.169 237.812M100.99 316.816L114.597 239.287M100.99 316.816C107.405 316.404 109.692 316.087 116.03 314.735M100.99 316.816C95.1985 317.189 89.3592 317.089 83.8024 316.482M114.597 239.287C114.597 239.287 115.191 285.356 116.03 314.735M114.597 239.287C124.478 238.553 132.214 237.631 138.947 236.442M116.03 314.735C124.979 284.16 138.947 236.442 138.947 236.442M83.8024 316.482L60.169 237.812" stroke="black" stroke-width="2"/>
<path d="M481.127 304.151L493.137 317.417L479.188 320.649L490.585 327.311L492.581 333.035L498.086 329.12L496.968 337.646L507.352 334.544C507.352 334.544 510.057 342.322 511.326 343.505L518.011 336.17L525.797 344.866L530.457 338.48L539.718 348.214L538.967 338.192L552.875 342.04L543.515 336.305L551.662 330.506L537.386 331.912L544.938 319.335L531.156 325.196L529.093 312.938L520.871 321.736L519.22 307.691L508.9 320.438L502.738 306.78L496.566 313.6L481.127 304.151Z" fill="#4A9D1D"/>
<ellipse cx="31.8567" cy="366.917" rx="11.6114" ry="39.7039" transform="rotate(1.0861 31.8567 366.917)" fill="#7EC87A"/>
<ellipse cx="44.0622" cy="378.455" rx="9.0083" ry="29.2318" transform="rotate(2.07781 44.0622 378.455)" fill="#47AD5A"/>
<path d="M174.047 343.538L181.75 412.795C173.347 418.817 161.924 422.527 148.837 422.581C135.481 422.636 120.826 419.57 115.223 412.795L125.027 345.796L92.8143 277.292C92.8143 277.292 80.9096 266 148.136 266C215.363 266 204.859 277.292 204.859 277.292L174.047 343.538Z" fill="url(#paint49_linear_16_80)"/>
<path d="M201.651 284.19C189.491 287.777 170.357 290.089 148.837 290.089C127.34 290.089 108.226 287.782 96.0637 284.202L92.8143 277.292C92.8143 277.292 80.9096 266 148.136 266C215.363 266 204.859 277.292 204.859 277.292L201.651 284.19Z" fill="#D9D9D9"/>
<path d="M125.027 345.796C128.134 346.432 131.428 346.9 134.831 347.208M125.027 345.796L111.722 283.628M125.027 345.796L93.5146 280.303C96.8346 281.224 103.152 282.536 111.722 283.628M173.347 344.291C172.203 344.583 169.845 345.043 166.344 345.796M173.347 344.291L188.753 282.521M173.347 344.291L204.159 279.55C201.413 280.315 196.143 281.443 188.753 282.521M124.327 349.56C139.033 353.324 169.145 351.066 174.047 348.055M123.627 353.324C139.733 357.841 170.545 354.83 175.447 352.571M122.926 357.841C143.935 361.605 162.842 359.346 175.447 356.335M135.531 285.573C140.793 285.785 144.319 285.7 150.237 285.573C155.176 285.466 160.554 285.089 164.943 284.82M135.531 285.573L151.638 347.478M135.531 285.573L134.831 347.208M135.531 285.573C127.314 285.242 117.885 284.413 111.722 283.628M151.638 347.478L164.943 284.82M151.638 347.478C157.91 347.144 160.147 346.889 166.344 345.796M151.638 347.478C145.975 347.779 140.265 347.698 134.831 347.208M164.943 284.82C164.943 284.82 165.523 322.052 166.344 345.796M164.943 284.82C174.604 284.227 182.169 283.481 188.753 282.521M166.344 345.796C175.095 321.086 188.753 282.521 188.753 282.521M134.831 347.208L111.722 283.628" stroke="black" stroke-width="2"/>
<path d="M7.08673 390.935L17.7599 401.946L5.90809 405.121L15.8636 410.494L17.7399 415.338L22.3399 411.824L21.6314 419.159L30.4346 416.199C30.4346 416.199 32.9779 422.781 34.0998 423.758L39.6106 417.28L46.5327 424.5L50.3376 418.895L58.5529 426.961L57.6173 418.4L69.6415 421.289L61.4576 416.651L68.2656 411.446L56.0797 413.067L62.1808 402.075L50.5477 407.498L48.4231 397.06L41.6388 404.835L39.8148 392.854L31.3481 404.072L25.6719 392.555L20.5854 398.576L7.08673 390.935Z" fill="#3CBF73"/>
<g filter="url(#filter0_i_16_80)">
<path d="M350.157 160.111C350.157 160.111 432.596 162.716 463.158 163.877C466.167 160.747 477.417 161.205 477.832 164.434C478.152 165.585 478.135 166.315 477.764 167.451C475.742 170.222 466.182 170.809 463.079 167.37C432.493 167.201 350.02 166.145 350.02 166.145L350.157 160.111Z" fill="#6CD099"/>
</g>
<g filter="url(#filter1_i_16_80)">
<path d="M364.11 176.765C364.11 176.765 446.253 169.328 476.731 166.764C479.337 163.292 490.558 162.379 491.364 165.533C491.821 166.637 491.893 167.364 491.662 168.536C489.992 171.532 480.575 173.277 477.076 170.241C446.697 173.792 364.707 182.771 364.707 182.771L364.11 176.765Z" fill="#6CD099"/>
</g>
<path d="M273.531 418.771C264.051 421.735 227.401 426.798 202.432 418.771C191.371 415.214 208.224 349.411 236.138 350.004C264.052 350.597 283.011 415.807 273.531 418.771Z" fill="url(#paint50_linear_16_80)"/>
<path d="M226.387 396.24C228.494 386.755 232.18 367.192 211.64 368.377C213.747 364.228 216.907 360.671 219.54 357.707C237.447 355.928 239.554 371.342 239.027 380.827C262.727 377.27 273.26 410.468 265.887 420.546C262.2 421.139 258.514 421.731 252.72 422.324C259.567 413.432 251.667 392.683 226.387 396.24Z" fill="#8D8CC4"/>
<path d="M187.371 408.712L198.161 415.356L188.727 418.612L197.981 421.428L200.358 424.604L203.643 421.765L204.26 426.892L211.168 424.058C211.168 424.058 214.394 428.374 215.498 428.947L219.057 423.98L226.068 428.343L228.338 424.131L236.575 428.962L234.373 423.135L244.955 424.05L237.311 421.583L242.171 417.378L232.199 419.592L235.508 411.454L226.63 416.243L223.119 409.227L218.703 415.205L215.19 407.097L209.93 415.603L203.256 408.161L199.978 412.775L187.371 408.712Z" fill="#3AA265"/>
<defs>
<filter id="filter0_i_16_80" x="350.02" y="159.111" width="128.039" height="10.6315" filterUnits="userSpaceOnUse" color-interpolation-filters="sRGB">
<feFlood flood-opacity="0" result="BackgroundImageFix"/>
<feBlend mode="normal" in="SourceGraphic" in2="BackgroundImageFix" result="shape"/>
<feColorMatrix in="SourceAlpha" type="matrix" values="0 0 0 0 0 0 0 0 0 0 0 0 0 0 0 0 0 0 127 0" result="hardAlpha"/>
<feOffset dy="-1"/>
<feGaussianBlur stdDeviation="0.8"/>
<feComposite in2="hardAlpha" operator="arithmetic" k2="-1" k3="1"/>
<feColorMatrix type="matrix" values="0 0 0 0 0 0 0 0 0 0 0 0 0 0 0 0 0 0 0.25 0"/>
<feBlend mode="normal" in2="shape" result="effect1_innerShadow_16_80"/>
</filter>
<filter id="filter1_i_16_80" x="364.11" y="162.599" width="127.68" height="20.1712" filterUnits="userSpaceOnUse" color-interpolation-filters="sRGB">
<feFlood flood-opacity="0" result="BackgroundImageFix"/>
<feBlend mode="normal" in="SourceGraphic" in2="BackgroundImageFix" result="shape"/>
<feColorMatrix in="SourceAlpha" type="matrix" values="0 0 0 0 0 0 0 0 0 0 0 0 0 0 0 0 0 0 127 0" result="hardAlpha"/>
<feOffset dy="-1"/>
<feGaussianBlur stdDeviation="0.8"/>
<feComposite in2="hardAlpha" operator="arithmetic" k2="-1" k3="1"/>
<feColorMatrix type="matrix" values="0 0 0 0 0 0 0 0 0 0 0 0 0 0 0 0 0 0 0.25 0"/>
<feBlend mode="normal" in2="shape" result="effect1_innerShadow_16_80"/>
</filter>
<linearGradient id="paint0_linear_16_80" x1="484" y1="112.825" x2="586.5" y2="112.825" gradientUnits="userSpaceOnUse">
<stop stop-color="#D9D9D9"/>
<stop offset="1" stop-color="#42BE3B"/>
</linearGradient>
<linearGradient id="paint1_linear_16_80" x1="227" y1="309.672" x2="308.024" y2="309.672" gradientUnits="userSpaceOnUse">
<stop stop-color="#D9D9D9"/>
<stop offset="1" stop-color="#42BE3B"/>
</linearGradient>
<linearGradient id="paint2_linear_16_80" x1="669" y1="150" x2="771.5" y2="150" gradientUnits="userSpaceOnUse">
<stop stop-color="#D9D9D9"/>
<stop offset="1" stop-color="#42BE3B"/>
</linearGradient>
<linearGradient id="paint3_linear_16_80" x1="627" y1="176.175" x2="684.595" y2="176.175" gradientUnits="userSpaceOnUse">
<stop stop-color="#D9D9D9"/>
<stop offset="1" stop-color="#42BE3B"/>
</linearGradient>
<radialGradient id="paint4_angular_16_80" cx="0" cy="0" r="1" gradientUnits="userSpaceOnUse" gradientTransform="translate(688.69 270.268) rotate(-86.6139) scale(14.2968 19.4769)">
<stop stop-color="#7F542C"/>
<stop offset="1" stop-color="#C2A059"/>
</radialGradient>
<linearGradient id="paint5_linear_16_80" x1="369.041" y1="226.5" x2="559.041" y2="227.5" gradientUnits="userSpaceOnUse">
<stop offset="0.485" stop-color="#3A3A3A"/>
<stop offset="1" stop-color="#AFAFAF"/>
</linearGradient>
<radialGradient id="paint6_radial_16_80" cx="0" cy="0" r="1" gradientUnits="userSpaceOnUse" gradientTransform="translate(446.541 157) rotate(180) scale(85.5 27.1566)">
<stop offset="0.625" stop-color="#D9D9D9"/>
<stop offset="1" stop-color="#9B9B9B"/>
</radialGradient>
<linearGradient id="paint7_linear_16_80" x1="450.041" y1="277.5" x2="450.041" y2="304.5" gradientUnits="userSpaceOnUse">
<stop stop-color="#C3E820"/>
<stop offset="1" stop-color="#4A541E"/>
</linearGradient>
<linearGradient id="paint8_linear_16_80" x1="450.041" y1="277.5" x2="450.041" y2="304.5" gradientUnits="userSpaceOnUse">
<stop stop-color="#C3E820"/>
<stop offset="1" stop-color="#4A541E"/>
</linearGradient>
<linearGradient id="paint9_linear_16_80" x1="450.041" y1="277.5" x2="450.041" y2="304.5" gradientUnits="userSpaceOnUse">
<stop stop-color="#C3E820"/>
<stop offset="1" stop-color="#4A541E"/>
</linearGradient>
<linearGradient id="paint10_linear_16_80" x1="450.041" y1="277.5" x2="450.041" y2="304.5" gradientUnits="userSpaceOnUse">
<stop stop-color="#C3E820"/>
<stop offset="1" stop-color="#4A541E"/>
</linearGradient>
<linearGradient id="paint11_linear_16_80" x1="450.041" y1="277.5" x2="450.041" y2="304.5" gradientUnits="userSpaceOnUse">
<stop stop-color="#C3E820"/>
<stop offset="1" stop-color="#4A541E"/>
</linearGradient>
<linearGradient id="paint12_linear_16_80" x1="450.041" y1="184" x2="450.041" y2="211" gradientUnits="userSpaceOnUse">
<stop stop-color="#C3E820"/>
<stop offset="1" stop-color="#4A541E"/>
</linearGradient>
<linearGradient id="paint13_linear_16_80" x1="450.041" y1="184" x2="450.041" y2="211" gradientUnits="userSpaceOnUse">
<stop stop-color="#C3E820"/>
<stop offset="1" stop-color="#4A541E"/>
</linearGradient>
<linearGradient id="paint14_linear_16_80" x1="450.041" y1="184" x2="450.041" y2="211" gradientUnits="userSpaceOnUse">
<stop stop-color="#C3E820"/>
<stop offset="1" stop-color="#4A541E"/>
</linearGradient>
<linearGradient id="paint15_linear_16_80" x1="450.041" y1="184" x2="450.041" y2="211" gradientUnits="userSpaceOnUse">
<stop stop-color="#C3E820"/>
<stop offset="1" stop-color="#4A541E"/>
</linearGradient>
<linearGradient id="paint16_linear_16_80" x1="450.041" y1="184" x2="450.041" y2="211" gradientUnits="userSpaceOnUse">
<stop stop-color="#C3E820"/>
<stop offset="1" stop-color="#4A541E"/>
</linearGradient>
<radialGradient id="paint17_radial_16_80" cx="0" cy="0" r="1" gradientUnits="userSpaceOnUse" gradientTransform="translate(453.041 281.5) rotate(91.4321) scale(40.0125 106.146)">
<stop/>
<stop offset="1" stop-color="#E1FF5B"/>
</radialGradient>
<radialGradient id="paint18_radial_16_80" cx="0" cy="0" r="1" gradientUnits="userSpaceOnUse" gradientTransform="translate(453.041 156.5) rotate(91.4321) scale(40.0125 106.146)">
<stop/>
<stop offset="1" stop-color="#E1FF5B"/>
</radialGradient>
<linearGradient id="paint19_linear_16_80" x1="528.653" y1="247.372" x2="647.785" y2="247.937" gradientUnits="userSpaceOnUse">
<stop offset="0.485" stop-color="#3A3A3A"/>
<stop offset="1" stop-color="#AFAFAF"/>
</linearGradient>
<radialGradient id="paint20_radial_16_80" cx="0" cy="0" r="1" gradientUnits="userSpaceOnUse" gradientTransform="translate(577.246 199.006) rotate(180) scale(53.6092 18.8986)">
<stop offset="0.625" stop-color="#D9D9D9"/>
<stop offset="1" stop-color="#9B9B9B"/>
</radialGradient>
<linearGradient id="paint21_linear_16_80" x1="579.44" y1="282.863" x2="579.44" y2="301.653" gradientUnits="userSpaceOnUse">
<stop stop-color="#C3E820"/>
<stop offset="1" stop-color="#4A541E"/>
</linearGradient>
<linearGradient id="paint22_linear_16_80" x1="579.44" y1="282.863" x2="579.44" y2="301.653" gradientUnits="userSpaceOnUse">
<stop stop-color="#C3E820"/>
<stop offset="1" stop-color="#4A541E"/>
</linearGradient>
<linearGradient id="paint23_linear_16_80" x1="579.44" y1="282.863" x2="579.44" y2="301.653" gradientUnits="userSpaceOnUse">
<stop stop-color="#C3E820"/>
<stop offset="1" stop-color="#4A541E"/>
</linearGradient>
<linearGradient id="paint24_linear_16_80" x1="579.44" y1="282.863" x2="579.44" y2="301.653" gradientUnits="userSpaceOnUse">
<stop stop-color="#C3E820"/>
<stop offset="1" stop-color="#4A541E"/>
</linearGradient>
<linearGradient id="paint25_linear_16_80" x1="579.44" y1="282.863" x2="579.44" y2="301.653" gradientUnits="userSpaceOnUse">
<stop stop-color="#C3E820"/>
<stop offset="1" stop-color="#4A541E"/>
</linearGradient>
<linearGradient id="paint26_linear_16_80" x1="579.44" y1="217.796" x2="579.44" y2="236.585" gradientUnits="userSpaceOnUse">
<stop stop-color="#C3E820"/>
<stop offset="1" stop-color="#4A541E"/>
</linearGradient>
<linearGradient id="paint27_linear_16_80" x1="579.44" y1="217.796" x2="579.44" y2="236.585" gradientUnits="userSpaceOnUse">
<stop stop-color="#C3E820"/>
<stop offset="1" stop-color="#4A541E"/>
</linearGradient>
<linearGradient id="paint28_linear_16_80" x1="579.44" y1="217.796" x2="579.44" y2="236.585" gradientUnits="userSpaceOnUse">
<stop stop-color="#C3E820"/>
<stop offset="1" stop-color="#4A541E"/>
</linearGradient>
<linearGradient id="paint29_linear_16_80" x1="579.44" y1="217.796" x2="579.44" y2="236.585" gradientUnits="userSpaceOnUse">
<stop stop-color="#C3E820"/>
<stop offset="1" stop-color="#4A541E"/>
</linearGradient>
<linearGradient id="paint30_linear_16_80" x1="579.44" y1="217.796" x2="579.44" y2="236.585" gradientUnits="userSpaceOnUse">
<stop stop-color="#C3E820"/>
<stop offset="1" stop-color="#4A541E"/>
</linearGradient>
<radialGradient id="paint31_radial_16_80" cx="0" cy="0" r="1" gradientUnits="userSpaceOnUse" gradientTransform="translate(581.322 285.647) rotate(91.2903) scale(27.8436 66.5586)">
<stop/>
<stop offset="1" stop-color="#E1FF5B"/>
</radialGradient>
<radialGradient id="paint32_radial_16_80" cx="0" cy="0" r="1" gradientUnits="userSpaceOnUse" gradientTransform="translate(581.322 198.658) rotate(91.2903) scale(27.8436 66.5586)">
<stop/>
<stop offset="1" stop-color="#E1FF5B"/>
</radialGradient>
<radialGradient id="paint33_angular_16_80" cx="0" cy="0" r="1" gradientUnits="userSpaceOnUse" gradientTransform="translate(633.97 240.013) rotate(-28.5204) scale(16.2494 22.1369)">
<stop stop-color="#7F542C"/>
<stop offset="1" stop-color="#C2A059"/>
</radialGradient>
<linearGradient id="paint34_linear_16_80" x1="484.711" y1="270.108" x2="614.459" y2="270.723" gradientUnits="userSpaceOnUse">
<stop offset="0.485" stop-color="#3A3A3A"/>
<stop offset="1" stop-color="#AFAFAF"/>
</linearGradient>
<radialGradient id="paint35_radial_16_80" cx="0" cy="0" r="1" gradientUnits="userSpaceOnUse" gradientTransform="translate(537.634 217.432) rotate(180) scale(58.3862 20.5826)">
<stop offset="0.625" stop-color="#D9D9D9"/>
<stop offset="1" stop-color="#9B9B9B"/>
</radialGradient>
<linearGradient id="paint36_linear_16_80" x1="540.024" y1="308.762" x2="540.024" y2="329.226" gradientUnits="userSpaceOnUse">
<stop stop-color="#C3E820"/>
<stop offset="1" stop-color="#4A541E"/>
</linearGradient>
<linearGradient id="paint37_linear_16_80" x1="540.024" y1="308.762" x2="540.024" y2="329.226" gradientUnits="userSpaceOnUse">
<stop stop-color="#C3E820"/>
<stop offset="1" stop-color="#4A541E"/>
</linearGradient>
<linearGradient id="paint38_linear_16_80" x1="540.024" y1="308.762" x2="540.024" y2="329.226" gradientUnits="userSpaceOnUse">
<stop stop-color="#C3E820"/>
<stop offset="1" stop-color="#4A541E"/>
</linearGradient>
<linearGradient id="paint39_linear_16_80" x1="540.024" y1="308.762" x2="540.024" y2="329.226" gradientUnits="userSpaceOnUse">
<stop stop-color="#C3E820"/>
<stop offset="1" stop-color="#4A541E"/>
</linearGradient>
<linearGradient id="paint40_linear_16_80" x1="540.024" y1="308.762" x2="540.024" y2="329.226" gradientUnits="userSpaceOnUse">
<stop stop-color="#C3E820"/>
<stop offset="1" stop-color="#4A541E"/>
</linearGradient>
<linearGradient id="paint41_linear_16_80" x1="540.024" y1="237.896" x2="540.024" y2="258.36" gradientUnits="userSpaceOnUse">
<stop stop-color="#C3E820"/>
<stop offset="1" stop-color="#4A541E"/>
</linearGradient>
<linearGradient id="paint42_linear_16_80" x1="540.024" y1="237.896" x2="540.024" y2="258.36" gradientUnits="userSpaceOnUse">
<stop stop-color="#C3E820"/>
<stop offset="1" stop-color="#4A541E"/>
</linearGradient>
<linearGradient id="paint43_linear_16_80" x1="540.024" y1="237.896" x2="540.024" y2="258.36" gradientUnits="userSpaceOnUse">
<stop stop-color="#C3E820"/>
<stop offset="1" stop-color="#4A541E"/>
</linearGradient>
<linearGradient id="paint44_linear_16_80" x1="540.024" y1="237.896" x2="540.024" y2="258.36" gradientUnits="userSpaceOnUse">
<stop stop-color="#C3E820"/>
<stop offset="1" stop-color="#4A541E"/>
</linearGradient>
<linearGradient id="paint45_linear_16_80" x1="540.024" y1="237.896" x2="540.024" y2="258.36" gradientUnits="userSpaceOnUse">
<stop stop-color="#C3E820"/>
<stop offset="1" stop-color="#4A541E"/>
</linearGradient>
<radialGradient id="paint46_radial_16_80" cx="0" cy="0" r="1" gradientUnits="userSpaceOnUse" gradientTransform="translate(542.073 311.794) rotate(91.2903) scale(30.3247 72.4895)">
<stop/>
<stop offset="1" stop-color="#E1FF5B"/>
</radialGradient>
<radialGradient id="paint47_radial_16_80" cx="0" cy="0" r="1" gradientUnits="userSpaceOnUse" gradientTransform="translate(542.073 217.053) rotate(91.2903) scale(30.3247 72.4895)">
<stop/>
<stop offset="1" stop-color="#E1FF5B"/>
</radialGradient>
<linearGradient id="paint48_linear_16_80" x1="70.1954" y1="349.2" x2="129.282" y2="329.14" gradientUnits="userSpaceOnUse">
<stop stop-color="#215847"/>
<stop offset="1" stop-color="#2C8065"/>
</linearGradient>
<linearGradient id="paint49_linear_16_80" x1="121.526" y1="373.65" x2="176.659" y2="351.003" gradientUnits="userSpaceOnUse">
<stop stop-color="#264562"/>
<stop offset="1" stop-color="#0E71AE"/>
</linearGradient>
<linearGradient id="paint50_linear_16_80" x1="262.2" y1="408.097" x2="199.526" y2="407.629" gradientUnits="userSpaceOnUse">
<stop stop-color="#8483B8"/>
<stop offset="1" stop-color="#555483"/>
</linearGradient>
</defs>
</svg>
