<svg width="611" height="981" viewBox="0 0 611 981" fill="none" xmlns="http://www.w3.org/2000/svg">
<path d="M501.775 521.302L486.222 523.111C481.664 508.189 473.548 473.874 477.54 455.991C481.345 438.947 487.982 445.35 491.243 451.355C484.496 438.049 485.41 427.089 488.649 419.565C492.785 409.953 501.745 403.826 509.476 421.407C526.193 412.355 522.126 457.829 522.126 457.829C525.86 444.752 534.049 477.514 537.066 505.96C539.69 530.707 533.896 523.888 527.894 522.479L518.642 520.745L501.775 521.302Z" fill="#28645C"/>
<path d="M509.572 526.966L525.133 528.705L541.693 531.959L550.316 535.73C555.848 538.454 559.958 546.402 562.971 521.7C566.436 493.305 565.831 459.541 559.25 471.442C559.25 471.442 567.727 400.784 557.034 412.928C559.367 381.598 547.818 383.116 541.624 391.55C536.668 398.297 532.385 439.424 530.862 459.144C529.28 452.415 524.136 443.089 516.221 459.614C508.306 476.14 508.49 511.401 509.572 526.966Z" fill="#3C9186"/>
<path d="M584.091 623.308C606.456 607.689 612.051 570.715 610.255 550.885C610.305 528.9 504.058 511.441 428.643 508.208C353.228 504.975 167.768 508.208 123.904 510.148C80.0399 512.087 -0.884155 519.128 0.00708008 547.006C1.55499 595.422 6.62335 620.217 41.1031 620.864C58.4626 644.317 80.3661 641.98 49.9911 666.552C32.5212 682.21 76.6677 777.913 125.652 845.587C146.195 873.968 209.255 923.911 209.255 923.911C209.255 923.911 224.63 871.825 258.512 859.894C264.714 915.674 285.851 952.386 310.326 979.642C334.8 929.58 348.816 859.894 348.816 859.894C348.816 859.894 364.281 895.093 392.326 909.685C405.443 884.524 408.745 832.736 408.745 832.736L467.853 821.096L510.542 781.005C510.542 781.005 535.153 683.156 542.836 677.601C575.926 653.676 546.173 649.789 584.091 623.308Z" fill="#AB576F"/>
<path d="M268.607 735.451C269.72 828.343 288.076 923.09 310.882 980.198C284.182 955.723 259.151 891.199 258.595 859.493C242.464 864.499 236.345 875.624 236.345 875.624C236.345 875.624 233.564 799.975 268.607 735.451Z" fill="black" fill-opacity="0.15"/>
<path d="M39.4346 621.976C84.8612 630.505 190.399 647.119 249.139 645.339C307.878 643.559 273.614 672.78 249.139 687.613C215.493 689.439 153.174 690.568 105.071 685.503C105.071 685.503 102.846 719.319 130.102 804.981C146.949 857.928 209.645 924.017 209.645 924.017C209.645 924.017 151.24 880.63 121.759 838.356C82.3316 781.818 48.8907 713.757 46.6658 678.157C45.5533 666.476 55.0094 665.363 66.6906 650.345C65.5781 638.664 39.4346 621.976 39.4346 621.976Z" fill="black" fill-opacity="0.15"/>
<path d="M595.679 603.064C546.874 608.991 442.426 619.142 281.957 616.97C129.143 614.902 58.1196 600.192 14.9598 591.383C1.28459 584.386 1.11478 581.647 0.00730122 547.006C-0.883967 519.128 80.0398 512.087 123.904 510.148C167.768 508.208 353.228 504.975 428.643 508.208C504.058 511.441 610.305 528.9 610.255 550.885C611.807 568.027 612.505 587.507 595.679 603.064Z" fill="#85C28D"/>
<path d="M319.226 507.39C530.599 517.402 592.898 540.208 557.855 555.227C562.305 582.483 560.636 592.495 557.855 606.958C553.78 607.428 548.955 608.07 543.392 608.627C538.386 628.095 525.036 637.551 519.218 638.886C513.911 643.67 516.206 644.878 516.692 651.457C517.398 661.002 518.226 679.063 514.467 683.163C502.23 696.513 499.641 713.325 494.443 743.238C488.378 778.135 462.703 812.296 449.821 824.647L467.853 821.096L510.543 781.005C510.543 781.005 535.153 683.156 542.836 677.601C558.795 666.062 560.137 659.184 561.502 652.185C562.968 644.671 564.461 637.017 584.091 623.308C606.456 607.689 612.051 570.715 610.255 550.885C610.305 528.9 504.059 511.441 428.643 508.208C423.623 507.992 325.147 507.55 319.226 507.39Z" fill="white" fill-opacity="0.2"/>
<path d="M119.534 700.963C127.878 799.975 183.688 887.491 204.64 908.999C190.177 863.387 182.39 825.562 191.846 775.5C159.584 782.175 133.44 743.238 119.534 700.963Z" fill="white" fill-opacity="0.2"/>
<path d="M403.309 53.1757C403.309 53.1757 405.877 43.643 421.322 45.7929C439.282 48.2927 437.234 57.6663 437.234 57.6663L426.219 141.829L391.597 137.258L403.309 53.1757Z" fill="white"/>
<path d="M449.446 121.136L402.165 99.126L363.726 532.977L381.584 538.003L386.034 530.216L418.355 516.646L460.015 137.267C460.015 137.267 459.974 130.612 457.79 127.255C455.586 123.868 449.446 121.136 449.446 121.136Z" fill="url(#paint0_linear_6_10)"/>
<path d="M156.246 146.387L101.734 521.296L142.955 532.997L241.967 541.897L263.66 531.328L279.235 540.228L294.81 533.553L300.372 544.678L339.31 540.228L346.541 533.553H363.784L409.894 119.687C409.894 119.687 412.675 106.338 404.888 100.775C398.731 96.3776 389.869 98.55 389.869 98.55L171.821 133.037C171.821 133.037 164.303 134.219 161.253 136.931C156.246 141.381 156.246 146.387 156.246 146.387Z" fill="white"/>
<path d="M326.374 423.766C316.304 480.877 270.789 525.218 224.713 522.803C178.638 520.388 149.45 472.133 159.52 415.021C169.59 357.909 215.105 313.569 261.181 315.984C307.256 318.398 336.444 366.654 326.374 423.766Z" fill="black" fill-opacity="0.09"/>
<path d="M271.558 423.187C267.745 444.811 250.512 461.599 233.067 460.685C215.621 459.771 204.57 441.5 208.383 419.876C212.196 398.252 229.429 381.463 246.874 382.377C264.32 383.292 275.371 401.563 271.558 423.187Z" fill="white"/>
<path d="M181.892 154.75L370.459 126.382L368.79 145.85L179.111 170.325L181.892 154.75Z" fill="url(#paint1_linear_6_10)"/>
<path d="M186.898 190.35L255.316 183.675L245.304 248.199L176.33 252.093L186.898 190.35Z" fill="url(#paint2_linear_6_10)"/>
<path d="M174.661 259.324L351.546 249.375L349.321 265.999L171.879 274.899L174.661 259.324Z" fill="url(#paint3_linear_6_10)"/>
<path d="M174.661 259.324L300.372 252.649L298.703 268.224L171.323 274.899L174.661 259.324Z" fill="url(#paint4_linear_6_10)"/>
<path d="M247.529 148.986L296.478 142.868L295.366 151.969L246.416 158.088L247.529 148.986Z" fill="#B5B5B5"/>
<path d="M259.21 188.125L316.503 182.563L315.391 194.244L257.541 199.451L259.21 188.125Z" fill="#B5B5B5"/>
<path d="M256.429 204.515L333.19 198.137L332.078 209.819L254.76 215.381L256.429 204.515Z" fill="#B5B5B5"/>
<path d="M253.647 221.505L325.403 216.493L323.734 228.175L251.979 232.831L253.647 221.505Z" fill="#B5B5B5"/>
<path d="M189.679 174.574L220.273 170.881L218.604 182.006L188.202 185.344L189.679 174.574Z" fill="#B5B5B5"/>
<path d="M170.959 277.68L201.917 276.568L199.692 287.693L168.542 288.805L170.959 277.68Z" fill="#B5B5B5"/>
<path d="M317.616 272.118L348.765 270.449L347.288 282.13L316.503 283.799L317.616 272.118Z" fill="#B5B5B5"/>
<path d="M182.803 155.833C183.041 154.321 184.234 153.138 185.748 152.914L367.094 126.028C369.353 125.693 371.323 127.577 371.089 129.849L354.952 286.527C354.773 288.271 353.331 289.612 351.58 289.667L165.07 295.462C162.878 295.53 161.164 293.588 161.504 291.421L182.803 155.833Z" stroke="#626262" stroke-width="3"/>
<path d="M393.254 531.735H421.627L452.103 532.444L468.391 533.862C478.9 534.925 487.901 538.706 488.358 526.064C488.883 511.532 481.002 494.518 471.544 500.898C471.544 500.898 472.595 464.745 455.781 471.479C453.679 455.529 433.187 456.947 423.729 461.555C416.163 465.241 416.723 486.248 417.949 496.29C413.746 492.982 402.606 488.564 391.677 497.354C380.748 506.144 388.174 523.937 393.254 531.735Z" fill="#3C9186"/>
<path d="M400.953 528.171L389.56 521.976L402.383 524.738L399.706 517.197L409.709 523.374L410.831 517.343L421.137 526.925L427.876 516.811L428.82 524.38L438.951 520.734L434.69 527.48L445.462 526.283L440.185 531.116C442.262 532.921 446.338 536.365 447.494 536.997C447.73 537.063 447.827 537.099 447.753 537.098C447.701 537.097 447.613 537.062 447.494 536.997C445.963 536.569 438.591 534.886 434.586 533.984L432.463 536.897L429.38 533.426L425.532 535.336L421.381 533.811L418.929 535.249C417.777 534.744 415.137 533.647 415.137 533.647L410.936 535.145L407.5 532.158L404.673 536.155L401.936 532.719L392.187 533.724L400.953 528.171Z" fill="#3C875B"/>
<path d="M441.002 527.059L429.609 520.864L442.433 523.626L439.755 516.085L449.758 522.262L450.88 516.231L461.186 525.812L467.925 515.698L468.869 523.268L479.001 519.622L474.74 526.368L485.511 525.171L480.234 530.004C482.312 531.809 486.387 535.253 487.544 535.884C487.779 535.95 487.877 535.986 487.802 535.985C487.751 535.985 487.663 535.949 487.544 535.884C486.012 535.457 478.64 533.774 474.636 532.872L472.512 535.785L469.429 532.313L465.581 534.224L461.43 532.699L458.978 534.137C457.826 533.632 455.187 532.535 455.187 532.535L450.986 534.032L447.549 531.046L444.722 535.043L441.986 531.606L432.237 532.612L441.002 527.059Z" fill="#297C4C"/>
<path d="M310.796 543.807L302.139 538.871L311.358 540.335L308.566 533.263L316.258 538.313L316.283 532.346L324.609 540.675L328.013 530.208L329.609 537.473L336.167 532.967L334.058 539.926L341.364 537.739L338.314 542.936C339.977 544.493 343.226 547.451 344.105 547.955C344.276 547.996 344.348 548.022 344.297 548.028C344.261 548.032 344.196 548.007 344.105 547.955C342.992 547.685 337.681 546.751 334.797 546.255L333.69 549.288L331.124 546.208L328.699 548.43L325.636 547.343L324.119 548.974C323.258 548.592 321.295 547.778 321.295 547.778L318.574 549.632L315.824 547.058L314.365 551.21L312.043 548.131L305.421 550.036L310.796 543.807Z" fill="#38936B"/>
<path d="M188.282 551.56L165.776 546.774L141.209 543.484L112.768 542.33C103.842 543.334 109.338 550.741 101.26 518.6C92.468 483.613 109.223 446.366 143.305 457.83C143.305 457.83 107.526 388.876 148.557 385.925C159.081 344.629 185.272 360.483 189.914 364.037C196.5 369.08 207.569 392.104 195.171 409.811C215.457 402.151 216.846 438.531 200.887 467.954C188.877 490.098 196.641 532.054 188.282 551.56Z" fill="#329B5E"/>
<circle cx="176.388" cy="798.277" r="28.4266" fill="white"/>
<rect x="149.738" y="730.749" width="23.3079" height="88.0956" transform="rotate(-22.3658 149.738 730.749)" fill="white"/>
<g filter="url(#filter0_i_6_10)">
<path d="M440.546 309.703C465.391 313.597 471.289 341.566 447.777 368.665C414.958 406.489 372.128 434.858 264.216 459.333C178.551 478.762 75.6493 477.689 90.6679 467.676" stroke="white" stroke-width="8"/>
<path d="M421.633 46.2828C423.858 29.41 433.426 1.44939 462.795 4.56436C499.508 8.45808 521.757 118.595 511.745 169.769C501.733 220.944 461.683 263.774 354.884 281.574C248.085 299.374 105.998 311.129 112.361 289.918C114.03 284.355 124.042 280.462 137.392 281.018" stroke="white" stroke-width="8"/>
<path d="M441.102 469.901C515.453 491.78 649.583 535.872 591.288 537.207C518.42 538.876 505.07 538.876 480.595 543.326C456.121 547.776 419.408 559.457 409.952 560.013C400.496 560.569 315.449 560.832 289.247 560.013C253.647 558.901 270.891 544.994 287.578 545.551C304.266 546.107 413.29 559.457 462.239 555.563C494.509 552.996 549.014 555.563 527.32 535.538C521.919 530.553 524.539 537.207 516.195 529.976C503.401 521.632 480.595 521.632 452.783 529.976C435.508 535.158 384.751 552.36 323.178 563.183M159.642 727.443C149.63 705.749 140.698 623.227 161.311 598.95C186.342 569.469 195.798 590.05 250.866 580.038C281.499 574.468 240.668 556.305 205.254 558.901C191.904 557.788 140.353 568.071 203.585 571.694C244.046 574.012 285.624 569.784 323.178 563.183M323.178 563.183C307.789 566.762 266.72 573.081 264.772 594.5C263.522 608.251 254.809 631.885 228.616 632.325C162.423 633.437 149.318 600.156 155.748 590.05C159.651 583.917 166.719 578.288 172.436 580.038C189.123 578.925 194.539 600.238 172.436 616.194C88.4429 676.824 181.892 690.174 166.873 728.555C162.15 740.625 156.305 738.011 146.849 753.586" stroke="white" stroke-width="8"/>
</g>
<rect x="139.831" y="747.467" width="23.3079" height="88.0956" transform="rotate(31.7682 139.831 747.467)" fill="white"/>
<circle cx="129.533" cy="820.796" r="28.4266" transform="rotate(18.3431 129.533 820.796)" fill="white"/>
<path d="M423.729 461.315C416.163 465.001 416.724 486.008 417.95 496.051L471.544 500.658C471.544 500.658 472.595 464.505 455.781 471.239C453.679 455.289 433.187 456.707 423.729 461.315Z" fill="#3C9186"/>
<path d="M445.56 563.786C441.102 573.363 361.003 576.144 335.392 561.815C324.429 555.681 344.371 491.375 374.681 493.132C388.191 493.914 400.453 494.106 412.592 530.339C442.622 522.537 448.073 558.388 445.56 563.786Z" fill="url(#paint5_linear_6_10)"/>
<path d="M362.295 539.845C364.952 530.266 369.715 510.483 347.349 510.844C349.799 506.702 353.37 503.208 356.347 500.296C375.874 499.223 377.567 515.016 376.627 524.66C402.519 522.014 416.627 562.794 403.277 571.694C398.312 571.953 394.934 571.694 389.192 571.525C401.609 559.457 391.04 531.645 362.295 539.845Z" fill="#9998DC"/>
<path d="M434.542 545.482C434.566 540.719 429.797 539.936 423.966 539.267C418.827 538.678 425.216 550.795 430.239 552.025C434.479 553.064 434.521 549.816 434.542 545.482Z" fill="#9998DC"/>
<path d="M346.094 551.428L338.307 540.15L348.686 547.335L349.19 536.723L355.743 547.589L359.057 540.011L364.574 555.416L374.464 544.061L372.403 554.227L382.837 552.278L376.45 559.917L386.516 561.351L379.956 566.204C381.117 569.144 383.431 574.784 384.22 575.933C384.405 576.084 384.478 576.159 384.413 576.137C384.367 576.122 384.302 576.051 384.22 575.933C383.019 574.947 377.089 570.693 373.863 568.397L370.852 571.617L369.433 566.217L365.268 567.645L362.151 564.494L359.413 565.693C358.579 564.711 356.645 562.541 356.645 562.541L352.324 563.33L350.404 558.467L346.35 562.909L345.227 557.651L336.146 556.252L346.094 551.428Z" fill="#3DC289"/>
<path d="M331.32 561.295L320.517 553.203L332.536 556.55L329.794 546.321L339.303 554.435L340.145 546.145L350.05 558.908L355.98 544.842L357.11 555.167L366.411 549.836L362.673 559.21L372.651 557.209L367.905 564C369.897 566.4 373.802 570.974 374.899 571.8C375.12 571.882 375.212 571.928 375.143 571.929C375.095 571.93 375.012 571.885 374.899 571.8C373.46 571.266 366.548 569.212 362.793 568.113L360.916 572.171L357.933 567.525L354.418 570.269L350.506 568.322L348.274 570.373C347.186 569.721 344.694 568.309 344.694 568.309L340.837 570.5L337.541 566.53L335.046 572.094L332.386 567.484L323.353 569.189L331.32 561.295Z" fill="#218459"/>
<path d="M112.996 530.824L130.443 525.659C128.991 509.281 123.119 472.668 111.241 457.237C99.9204 442.531 95.522 451.637 94.5767 458.862C96.1588 443.066 90.5229 432.929 83.8542 427.129C75.3349 419.719 63.1243 417.803 62.3024 438.148C40.5302 436.862 64.2087 478.801 64.2087 478.801C54.6496 467.88 38.6568 533.618 68.6343 531.734C75.0929 531.328 79.8233 540.355 85.6615 536.334L94.6716 537.777L112.996 530.824Z" fill="#338479"/>
<path d="M57.5184 529.624L86.4302 538.895L65.7426 550.676L88.6619 546.793L92.6625 552.991L98.8081 548.007L105.651 551.981L112.718 545.924L118.64 550.971L126.362 546.866L131.168 550.497L137.443 545.496L148.192 549.675L153.76 543.734L164.178 548.432L167.132 541.192L177.205 547.919L179.122 540.26L197.989 537.291L179.118 533.751L188.028 525.548L169.171 531.459L178.618 518.317L161.245 530.133L161.431 519.604L149.829 525.513L148.244 511.617L135.802 526.103L127.456 515.737L121.392 528.225L105.859 515.914L107.207 528.502L81.7131 519.01L89.4252 532.342L57.5184 529.624Z" fill="#3C875B"/>
<path d="M121.641 533.432L102.83 540.651L116.175 549.393L101.334 546.632L98.7 551.342L94.745 547.624L90.2817 550.677L85.7357 546.156L81.8635 550.012L76.8807 546.969L73.7407 549.748L69.7015 546.018L62.704 549.254L59.1293 544.81L52.3431 548.435L50.472 542.99L43.8966 548.146L42.7013 542.376L30.4824 540.275L42.7446 537.46L37.0164 531.332L49.2101 535.655L43.1653 525.8L54.3592 534.594L54.3047 526.644L61.793 531.02L62.9075 520.513L70.8871 531.36L76.3651 523.468L80.2202 532.854L90.3723 523.44L89.419 532.957L106.014 525.597L100.929 535.724L121.641 533.432Z" fill="#459566"/>
<path d="M229.552 535.657L210.742 542.876L224.087 551.618L209.245 548.857L206.612 553.567L202.657 549.849L198.193 552.902L193.647 548.381L189.775 552.237L184.792 549.194L181.652 551.973L177.613 548.243L170.616 551.479L167.041 547.034L160.255 550.66L158.384 545.215L151.808 550.371L150.613 544.601L138.394 542.5L150.656 539.685L144.928 533.557L157.122 537.88L151.077 528.025L162.271 536.819L162.216 528.869L169.705 533.245L170.819 522.738L178.799 533.585L184.277 525.693L188.132 535.079L198.284 525.665L197.331 535.182L213.926 527.822L208.84 537.949L229.552 535.657Z" fill="#459566"/>
<path d="M585.447 515.387L565.881 520.194L578.027 530.538L563.648 525.941L560.445 530.285L556.987 526.101L552.176 528.571L548.232 523.516L543.908 526.857L539.345 523.215L535.882 525.579L532.341 521.373L524.994 523.708L522.003 518.851L514.817 521.599L513.642 515.962L506.473 520.255L506.009 514.38L494.149 510.766L506.667 509.508L501.751 502.711L513.308 508.527L508.544 497.993L518.549 508.119L519.49 500.224L526.372 505.502L528.793 495.218L535.352 506.978L541.775 499.834L544.425 509.629L555.675 501.56L553.538 510.882L570.924 505.657L564.611 515.068L585.447 515.387Z" fill="#459566"/>
<path d="M149.777 555.121C144.593 556.612 124.553 559.159 110.9 555.12C104.852 553.331 114.067 520.223 129.331 520.522C144.594 520.82 154.961 553.629 149.777 555.121Z" fill="url(#paint6_linear_6_10)"/>
<path d="M123.998 543.785C125.15 539.012 127.166 529.169 115.935 529.766C117.087 527.678 118.815 525.889 120.255 524.397C130.046 523.502 131.198 531.257 130.91 536.03C143.869 534.24 149.629 550.943 145.597 556.014L145.597 556.014C143.581 556.312 141.565 556.61 138.397 556.908C142.141 552.434 137.822 541.995 123.998 543.785Z" fill="#8D8CC4"/>
<defs>
<filter id="filter0_i_6_10" x="85.1943" y="-2.67578" width="524.38" height="758.338" filterUnits="userSpaceOnUse" color-interpolation-filters="sRGB">
<feFlood flood-opacity="0" result="BackgroundImageFix"/>
<feBlend mode="normal" in="SourceGraphic" in2="BackgroundImageFix" result="shape"/>
<feColorMatrix in="SourceAlpha" type="matrix" values="0 0 0 0 0 0 0 0 0 0 0 0 0 0 0 0 0 0 127 0" result="hardAlpha"/>
<feOffset dy="-3"/>
<feGaussianBlur stdDeviation="2"/>
<feComposite in2="hardAlpha" operator="arithmetic" k2="-1" k3="1"/>
<feColorMatrix type="matrix" values="0 0 0 0 0 0 0 0 0 0 0 0 0 0 0 0 0 0 0.25 0"/>
<feBlend mode="normal" in2="shape" result="effect1_innerShadow_6_10"/>
</filter>
<linearGradient id="paint0_linear_6_10" x1="457.233" y1="319.399" x2="403.834" y2="313.28" gradientUnits="userSpaceOnUse">
<stop stop-color="#D8D8D8"/>
<stop offset="1" stop-color="#C9C9C9"/>
</linearGradient>
<linearGradient id="paint1_linear_6_10" x1="279.791" y1="138.063" x2="282.572" y2="159.757" gradientUnits="userSpaceOnUse">
<stop stop-color="#C7C7C7"/>
<stop offset="0.5" stop-color="white"/>
<stop offset="1" stop-color="#B1B1B1"/>
</linearGradient>
<linearGradient id="paint2_linear_6_10" x1="252.535" y1="185.9" x2="179.229" y2="247.574" gradientUnits="userSpaceOnUse">
<stop stop-color="#FF237B"/>
<stop offset="0.5" stop-color="#E4C722"/>
<stop offset="1" stop-color="#1115FF"/>
</linearGradient>
<linearGradient id="paint3_linear_6_10" x1="258.097" y1="253.762" x2="259.486" y2="273.167" gradientUnits="userSpaceOnUse">
<stop stop-color="#E3E3E3"/>
<stop offset="0.5" stop-color="white"/>
<stop offset="1" stop-color="#CCCCCC"/>
</linearGradient>
<linearGradient id="paint4_linear_6_10" x1="234.735" y1="257.656" x2="235.848" y2="275.455" gradientUnits="userSpaceOnUse">
<stop stop-color="#C9CDFF"/>
<stop offset="0.5" stop-color="#5967FF"/>
<stop offset="1" stop-color="#3A46CD"/>
</linearGradient>
<linearGradient id="paint5_linear_6_10" x1="400.753" y1="553.405" x2="332.669" y2="550.276" gradientUnits="userSpaceOnUse">
<stop stop-color="#8483B8"/>
<stop offset="1" stop-color="#555483"/>
</linearGradient>
<linearGradient id="paint6_linear_6_10" x1="143.581" y1="549.75" x2="109.312" y2="549.472" gradientUnits="userSpaceOnUse">
<stop stop-color="#8483B8"/>
<stop offset="1" stop-color="#555483"/>
</linearGradient>
</defs>
</svg>
