<svg width="701" height="950" viewBox="0 0 701 950" fill="none" xmlns="http://www.w3.org/2000/svg">
<path d="M69.7143 552.272L64.667 632.468L59.0589 638.076L64.6674 555.076L69.7143 552.272Z" fill="white" fill-opacity="0.25"/>
<path d="M79.248 548.346L75.3224 625.177L69.7143 628.542L73.0791 550.59L79.248 548.346Z" fill="white" fill-opacity="0.25"/>
<path d="M91.5858 545.542L89.3418 619.008L78.6872 623.495L81.4913 547.786L91.5858 545.542Z" fill="white" fill-opacity="0.25"/>
<path d="M106.727 543.299L103.363 615.083L92.7082 617.886L94.3898 544.982L106.727 543.299Z" fill="white" fill-opacity="0.25"/>
<path d="M124.113 542.738L120.748 611.718L106.728 614.522L109.731 543.234L124.113 542.738Z" fill="white" fill-opacity="0.25"/>
<path d="M140.376 542.177L138.133 611.718L124.673 612.279L126.917 542.177L140.376 542.177Z" fill="white" fill-opacity="0.25"/>
<path d="M158.122 541.121L156.64 610.596L143.18 611.718L143.741 541.056L158.122 541.121Z" fill="white" fill-opacity="0.25"/>
<path d="M174.025 540.495L175.146 612.279L160.565 610.596L160.765 539.869L174.025 540.495Z" fill="white" fill-opacity="0.25"/>
<path d="M190.849 541.617L191.97 613.961L179.072 612.839L176.632 540.24L190.849 541.617Z" fill="white" fill-opacity="0.25"/>
<path d="M206.551 544.421L207.707 616.89L195.335 614.522L193.653 541.617L206.551 544.421Z" fill="white" fill-opacity="0.25"/>
<path d="M222.254 547.225L223.937 622.373L211.038 618.447L209.355 544.421L222.254 547.225Z" fill="white" fill-opacity="0.25"/>
<path d="M239.08 550.029L239.639 627.42L228.423 624.056L225.82 547.16L239.08 550.029Z" fill="white" fill-opacity="0.25"/>
<path d="M543.983 639.882L555.761 725.686L549.592 716.713L538.936 634.274L543.983 639.882Z" fill="white" fill-opacity="0.25"/>
<path d="M536.693 632.031L546.788 715.591L538.936 707.74L531.646 628.666L536.693 632.031Z" fill="white" fill-opacity="0.25"/>
<path d="M529.963 627.544L536.132 705.497L526.038 700.449L524.916 624.18L529.963 627.544Z" fill="white" fill-opacity="0.25"/>
<path d="M521.551 623.619L522.673 698.206L512.578 693.159L512.579 619.693L521.551 623.619Z" fill="white" fill-opacity="0.25"/>
<path d="M498.521 811.613L359.44 577.756L333.082 380.912L618.534 395.493L572.547 641.127L520.953 555.324L498.521 811.613Z" fill="#964D66"/>
<path d="M25.759 481.734C25.759 481.734 8.56087 378.172 3.32666 327.512C15.8888 265.599 148.541 226.657 385.237 260.9C606.195 292.866 700.411 238.467 700.972 369.135C701.034 383.713 700.972 420.73 700.972 420.73L675.175 452.135L668.444 522.236C668.444 522.236 647.011 555.792 638.161 565.418C630.31 568.783 621.337 570.769 621.337 570.769C612.364 555.885 606.195 534.013 543.946 520.857L450.852 588.288L416.642 849.624L382.994 777.146L337.568 949.314L299.994 814.721L271.954 880.335C271.954 880.335 265.224 889.308 252.325 870.801C244.474 785.558 196.245 532.207 196.245 532.207L131.752 505.288L76.2317 528.842L42.5832 517.626L25.759 481.734Z" fill="#AB576F"/>
<path d="M700.973 369.215C622.897 393.425 520.953 415.122 369.535 415.122C245.998 415.122 58.218 369.612 5.57045 349.641C2.31461 326.842 2.70439 325.249 1.08398 309.566C13.6461 247.653 55.4474 211.952 292.143 246.195C359.514 255.941 508.196 272.364 552.94 273.746C654.942 276.898 700.583 278.308 700.973 369.136C700.973 369.162 700.973 369.188 700.973 369.215Z" fill="#85C28D"/>
<path opacity="0.2" d="M565.161 274.13C649.436 289.142 682.824 306.546 584.885 324.271C613.486 345.021 612.684 362.946 615.729 392.005C622.328 390.99 607.317 392.689 607.317 392.689C607.317 392.689 607.878 408.953 620.216 443.162C618.102 446.686 617.261 448.438 616.51 450.002C614.872 453.415 613.665 455.929 600.588 474.007C629.189 491.392 644.331 497 644.331 497C644.331 497 617.933 527.247 638.659 564.868C647.787 554.579 668.444 522.236 668.444 522.236L675.175 452.135L700.972 420.73C700.972 420.73 701.035 383.713 700.972 369.136C700.598 282.019 658.596 277.163 565.161 274.13Z" fill="white"/>
<path opacity="0.21" d="M363.964 850.185L337.606 948.887L262.458 670.726L305.64 595.017L265.262 547.91L306.762 540.619L325.268 593.896L282.647 655.585L363.964 850.185Z" fill="white"/>
<path d="M290.461 263.695L185.59 34.7701L169.047 44.9651L73.9888 288.255L290.461 263.695Z" fill="#C4C4C4"/>
<path d="M127.917 228.63L237.182 3.80788L255.797 13.0964L368.268 244.981L127.917 228.63Z" fill="#E1E1E1"/>
<path d="M154.746 143.567L136.8 131.229L167.644 45.4254L185.59 34.77L204.097 73.4658L236.063 3.9256L256.252 13.4593L309.529 124.499L307.846 131.229L290.461 116.648L271.955 136.837L238.867 117.77L210.266 141.884L192.32 116.648L176.056 130.668L170.448 122.817L154.746 143.567Z" fill="white" fill-opacity="0.66"/>
<path d="M42.5836 518.187C42.1866 517.591 41.8066 516.917 41.4491 516.164C31.2927 497.587 22.7751 469.157 17.908 432.383C3.71116 325.117 -22.4701 289.377 38.658 252.924C87.5605 223.762 174.186 227.314 204.096 235.539C204.096 235.539 128.948 264.141 93.0563 280.965C64.3429 294.424 36.9755 324.708 53.2389 364.525C54.9213 380.789 65.8934 413.285 52.1173 445.282C35.9627 482.802 36.7563 506.28 41.4491 516.164C41.8251 516.852 42.2032 517.526 42.5836 518.187Z" fill="black" fill-opacity="0.15"/>
<path d="M247.798 618.038L300.556 813.296C288.218 842.831 281.488 858.16 271.954 879.471C285.562 817.421 265.888 686.695 247.798 618.038L246.157 611.965C246.702 613.93 247.249 615.955 247.798 618.038Z" fill="black" fill-opacity="0.15"/>
<path d="M312.893 505.973C444.683 504.29 468.798 504.851 543.946 521.115C523.196 535.696 492.913 559.81 472.724 574.391C486.744 510.459 464.872 507.094 312.893 505.973Z" fill="black" fill-opacity="0.15"/>
<path d="M449.329 271.838C477.343 321.808 491.735 178.08 490.253 157.885C488.472 133.632 459.963 137.431 457.135 146.041C465.791 115.461 457.551 45.4169 449.17 43.1821C437.688 40.1202 427.298 67.2968 428.615 115.865C401.501 132.351 417.772 161.2 417.772 161.2C403.744 156.465 391.407 165.999 394.682 195.183C398.331 227.699 418.715 256.643 424.787 253.615L433.884 246.558L449.329 271.838Z" fill="#3C9186"/>
<path d="M466.457 268.604C480.79 331.672 531.945 172.371 535.723 149.171C540.258 121.332 511.589 118.979 506.581 128.041C522.886 95.7938 531.362 59.6757 526.139 37.4583C519.837 10.6558 477.138 45.3356 486.628 87.2759C466.732 73.5864 464.36 136.057 464.36 136.057C457.544 112.872 430.532 128.87 433.114 169.14C435.517 206.624 440.605 244.285 447.294 242.271L457.968 236.402L466.457 268.604Z" fill="#3F8763"/>
<path d="M579.817 275.351L591.005 286.069L578.964 288.521L589.279 293.955L591.318 298.55L595.935 295.472L595.393 302.277L604.321 299.896C604.321 299.896 607.086 306.139 608.257 307.097L613.732 301.296L620.99 308.322L624.742 303.26L633.344 311.129L632.174 303.11L644.542 306.318L636.058 301.645L642.891 297.086L630.469 298.075L636.435 288.092L624.673 292.647L622.241 282.828L615.497 289.784L613.334 278.54L604.954 288.633L598.863 277.656L593.811 283.05L579.817 275.351Z" fill="#258B4F"/>
<path d="M79.5969 295.122V202.091L365.702 172.292L455.852 206.501V220.625L598.905 248.607V303.117L284.729 353.994L79.5969 295.122Z" fill="#FF3662"/>
<path d="M80.7185 295.908V203.697L158.705 244.075V256.7L285.974 288.647V353.994L80.7185 295.908Z" fill="black" fill-opacity="0.15"/>
<path d="M113.245 208.621L257.934 192.357L310.65 217.594L165.961 233.857L113.245 208.621Z" fill="black" fill-opacity="0.37"/>
<path d="M377.621 178.431C377.621 178.431 382.551 176.892 387.481 177.277C393.033 177.71 397.34 179.97 397.34 179.97L395.423 197.933C395.423 197.933 392.208 199.446 385.563 199.087C378.442 198.702 375.704 196.394 375.704 196.394L377.621 178.431Z" fill="#8D87E4"/>
<path d="M402.296 190.769C402.296 190.769 407.226 189.23 412.156 189.615C417.708 190.048 422.016 192.308 422.016 192.308L420.098 210.27C420.098 210.27 416.883 211.784 410.239 211.425C403.118 211.04 400.379 208.731 400.379 208.731L402.296 190.769Z" fill="#8D87E4"/>
<path d="M352.945 167.215C352.945 167.215 357.875 165.676 362.805 166.061C368.357 166.494 372.665 168.754 372.665 168.754L370.747 186.716C370.747 186.716 367.532 188.23 360.888 187.871C353.767 187.486 351.028 185.177 351.028 185.177L352.945 167.215Z" fill="#8D87E4"/>
<path d="M317.053 170.58C317.053 170.58 321.983 169.041 326.913 169.426C332.465 169.859 336.773 172.119 336.773 172.119L334.856 190.081C334.856 190.081 331.64 191.595 324.996 191.236C317.875 190.851 315.136 188.542 315.136 188.542L317.053 170.58Z" fill="#8EF061"/>
<path d="M280.04 175.067C280.04 175.067 284.97 173.528 289.9 173.912C295.452 174.346 299.76 176.606 299.76 176.606L297.843 194.568C297.843 194.568 294.627 196.081 287.983 195.722C280.862 195.337 278.123 193.029 278.123 193.029L280.04 175.067Z" fill="#E878AE"/>
<path d="M341.729 181.796C341.729 181.796 346.659 180.257 351.588 180.642C357.14 181.075 361.448 183.335 361.448 183.335L359.531 201.297C359.531 201.297 356.316 202.811 349.671 202.452C342.55 202.067 339.812 199.758 339.812 199.758L341.729 181.796Z" fill="#8EF061"/>
<path d="M366.404 194.134C366.404 194.134 371.334 192.595 376.264 192.98C381.816 193.413 386.124 195.673 386.124 195.673L384.207 213.635C384.207 213.635 380.991 215.148 374.347 214.789C367.226 214.405 364.487 212.096 364.487 212.096L366.404 194.134Z" fill="#8EF061"/>
<path d="M304.715 186.283C304.715 186.283 309.645 184.744 314.575 185.128C320.127 185.562 324.435 187.822 324.435 187.822L322.518 205.784C322.518 205.784 319.302 207.297 312.658 206.938C305.537 206.553 302.798 204.245 302.798 204.245L304.715 186.283Z" fill="#E878AE"/>
<path d="M329.391 198.62C329.391 198.62 334.321 197.081 339.251 197.466C344.803 197.9 349.111 200.159 349.111 200.159L347.194 218.122C347.194 218.122 343.978 219.635 337.334 219.276C330.213 218.891 327.474 216.583 327.474 216.583L329.391 198.62Z" fill="#E878AE"/>
<path d="M458.142 219.96L598.569 247.485L287.096 293.861L163.157 253.609L458.142 219.96Z" fill="black" fill-opacity="0.38"/>
<path d="M42.7444 242.317C28.0837 246.922 9.96417 295.622 63.2411 293.94L92.403 293.94L107.545 302.913C117.807 308.214 140.119 304.44 145.68 291.697C152.071 277.048 140.487 267.094 128.295 269.825C128.295 269.825 138.203 241.42 118.384 241.564C122.674 224.412 114.274 214.866 91.2813 215.427C72.1455 215.894 72.6992 241.004 69.8989 251.764C66.956 246.696 57.4051 237.711 42.7444 242.317Z" fill="#1B443F"/>
<path d="M61.1517 285.099L47.046 270.82L64.808 280.654L64.2174 268.283L76.2711 281.912L80.6337 273.479L91.6121 292.288L106.124 280.322L104.134 291.958L120.776 291.093L111.443 299.179L127.937 302.229L117.955 307.026C120.225 310.63 124.721 317.557 126.151 319.01C126.471 319.213 126.599 319.31 126.49 319.276C126.413 319.251 126.299 319.16 126.151 319.01C124.074 317.691 113.906 311.898 108.377 308.768L103.927 312.133L100.914 305.61L94.3576 306.717L88.8909 302.6L84.6145 303.633C83.1341 302.369 79.7145 299.562 79.7145 299.562L72.8202 299.899L69.0659 293.937L63.0889 298.593L60.5731 292.276L45.6794 289.402L61.1517 285.099Z" fill="#3C875B"/>
<path d="M294.104 349.354L275.062 343.008L295.351 343.734L289.224 332.971L306.142 339.666L306.214 330.173L324.519 341.973L332.041 324.733L335.534 336.01L349.981 327.704L345.32 339.139L361.408 334.391L354.68 343.188C358.335 345.374 365.48 349.514 367.414 350.163C367.79 350.199 367.948 350.228 367.835 350.246C367.756 350.259 367.612 350.23 367.414 350.163C364.964 349.927 353.275 349.365 346.928 349.077L344.483 354.093L338.844 349.64L333.499 353.596L326.761 352.399L323.415 355.257C321.523 354.8 317.203 353.845 317.203 353.845L311.209 357.267L305.162 353.651L301.94 360.508L296.837 356.015L282.256 360.195L294.104 349.354Z" fill="#3D9E66"/>
<path d="M219.048 313.391L232.884 327.931L217.335 331.943L230.3 339.095L232.697 345.458L238.76 340.914L237.745 350.505L249.302 346.737C249.302 346.737 252.552 355.382 254.008 356.674L261.299 348.262L270.272 357.796L275.319 350.505L285.974 361.16L284.853 349.944L300.555 353.87L289.9 347.701L298.873 340.971L282.904 342.946L291.021 328.634L275.731 335.591L273.076 321.904L264.103 331.998L261.86 316.296L250.643 330.877L243.353 315.735L236.623 323.554L219.048 313.391Z" fill="#3CBF73"/>
<path d="M77.8893 420.661L213.009 474.347L225.933 516.476L90.8133 462.79L77.8893 420.661Z" fill="white"/>
<path d="M86.8889 457.182L231.577 519.993L233.26 557.567L88.5721 494.756L86.8889 457.182Z" fill="white"/>
<path d="M92.4946 493.635L237.182 563.736L239.426 599.067L94.7386 528.966L92.4946 493.635Z" fill="white"/>
<path d="M100.928 535.696L239.427 613.087L234.792 648.418L96.2921 571.026L100.928 535.696Z" fill="white"/>
<path d="M97.8717 571.379L220.525 660.932L199.611 683.188L80.8833 589.149L97.8717 571.379Z" fill="white"/>
<path d="M506.557 701.416L537.962 813.017L512.726 828.719L485.246 712.632L506.557 701.416Z" fill="white"/>
<path d="M523.942 682.348L561.52 786.098L543.01 807.409L509.357 699.172L523.942 682.348Z" fill="white"/>
<path d="M541.891 660.477L571.61 757.497L563.755 782.172L527.307 677.301L541.891 660.477Z" fill="white"/>
<path d="M545.252 641.409L570.489 738.99L572.732 754.693L541.888 655.43L545.252 641.409Z" fill="white"/>
<path d="M481.322 713.755L507.68 830.964L477.397 841.059L455.525 720.485L481.322 713.755Z" fill="white"/>
<path d="M449.356 723.849L472.349 842.741L445.43 857.882L428.045 737.869L449.356 723.849Z" fill="white"/>
<path d="M424.68 744.599L442.065 862.369L422.437 885.923L410.66 767.032L424.68 744.599Z" fill="white"/>
<path d="M85.8649 582.571L167.743 699.78L145.772 715.715L75.5724 590.887L85.8649 582.571Z" fill="white"/>
<path d="M79.5971 587.29L118.293 711.789L96.9821 702.256L67.2595 578.878L79.5971 587.29Z" fill="white"/>
<path d="M67.8201 578.317L83.9231 692.552L65.0162 674.776L62.752 562.248L67.8201 578.317Z" fill="white"/>
<path d="M62.2119 562.614L57.1648 664.12L52.6784 644.492L61.0903 559.81L62.2119 562.614Z" fill="white"/>
<path d="M88.4148 330.804L214.797 404.626L199.842 440.586L73.4597 366.765L88.4148 330.804Z" fill="white"/>
<path d="M75.6719 379.131L205.219 442.601L206.492 478.955L76.9457 415.485L75.6719 379.131Z" fill="white"/>
<path d="M101.882 302.005L229.241 368.249L216.088 400.889L87.3568 332.357L101.882 302.005Z" fill="white"/>
<path d="M126.753 278.197L249.272 331.254L226.212 361.221L106.516 307.712L126.753 278.197Z" fill="white"/>
<path d="M156.764 255.807L277.002 298.474L248.175 322.543L129.284 277.679L156.764 255.807Z" fill="white"/>
<path d="M188.393 242.395L313.454 281.652L282.049 295.672L159.232 254.733L188.393 242.395Z" fill="white"/>
<path d="M228.772 241.273L363.927 283.334L324.109 284.456L195.123 242.395L228.772 241.273Z" fill="white"/>
<path d="M272.515 240.152L399.257 276.604L363.927 283.334L241.11 244.077L272.515 240.152Z" fill="white"/>
<path d="M308.968 236.785L433.467 272.679L397.575 277.726L274.758 240.152L308.968 236.785Z" fill="white"/>
<path d="M341.495 232.859L465.433 268.753L431.784 273.239L311.211 236.224L341.495 232.859Z" fill="white"/>
<path d="M376.826 229.494L495.717 263.145L465.433 268.753L344.299 233.42L376.826 229.494Z" fill="white"/>
<path d="M408.231 225.569L528.244 258.095L495.717 263.145L379.069 228.933L408.231 225.569Z" fill="white"/>
<path d="M437.394 222.202L560.21 253.048L529.366 257.535L409.915 225.004L437.394 222.202Z" fill="white"/>
<path d="M458.705 219.398L596.662 248.001L562.452 252.491L439.075 221.643L458.705 219.398Z" fill="white"/>
<path d="M125.989 262.842L198.764 294.213L184.312 313.675L113.246 281.964L125.989 262.842Z" fill="#292929"/>
<path d="M201.853 239.048L278.684 264.284L256.786 270.546L181.664 244.97L201.853 239.048Z" fill="#292929"/>
<path d="M241.109 244.095L317.94 269.332L296.629 265.967L221.508 240.391L241.109 244.095Z" fill="#292929"/>
<path d="M255.13 242.413L331.96 267.649L317.94 269.332L234.94 244.41L255.13 242.413Z" fill="#292929"/>
<path d="M303.92 237.612L375.705 260.653L358.319 263.143L289.339 239.048L303.92 237.612Z" fill="#292929"/>
<path d="M329.157 233.981L405.427 256.413L385.799 258.656L311.21 236.244L329.157 233.981Z" fill="#292929"/>
<path d="M388.603 227.812L454.244 249.029L439.075 250.805L370.657 230.055L388.603 227.812Z" fill="#292929"/>
<path d="M418.325 223.886L488.987 244.636L473.285 246.319L402.623 225.903L418.325 223.886Z" fill="#292929"/>
<path d="M441.853 220.32L520.419 241.158L503.007 242.393L429.542 222.204L441.853 220.32Z" fill="#292929"/>
<path d="M101.141 296.779L173.984 328.002L164.902 350.493L93.8083 318.842L101.141 296.779Z" fill="#292929"/>
<path d="M76.7935 366.331L149.636 397.555L143.339 420.233L72.2453 388.582L76.7935 366.331Z" fill="#292929"/>
<path d="M73.7794 410.965L146.622 442.188L149.699 466.155L78.6052 434.504L73.7794 410.965Z" fill="#292929"/>
<path d="M90.2528 459.987L163.096 491.21L162.385 514.931L91.2917 483.279L90.2528 459.987Z" fill="#292929"/>
<path d="M97.999 518.171L164.564 561.183L159.88 584.448L95.1115 541.308L97.999 518.171Z" fill="#292929"/>
<path d="M543.613 651.655L562.491 714.469L557.444 724.003L537.816 666.801L543.613 651.655Z" fill="#292929"/>
<path d="M529.965 674.091L552.397 733.537L541.181 743.071L519.309 685.868L529.965 674.091Z" fill="#292929"/>
<path d="M489.025 711.105L505.289 769.429L490.147 773.354L474.444 716.152L489.025 711.105Z" fill="#292929"/>
<path d="M458.181 719.517L470.519 779.523L458.181 787.374L444.161 726.807L458.181 719.517Z" fill="#292929"/>
<path d="M430.701 734.659L441.357 799.151L432.945 810.368L421.728 744.753L430.701 734.659Z" fill="#292929"/>
<path d="M98.5593 564.102L156.989 605.236L144.09 624.303L91.3741 577.756L98.5593 564.102Z" fill="#292929"/>
<path d="M85.6103 582.972L111.002 657.391L92.0877 647.897L71.1848 578.317L85.6103 582.972Z" fill="#292929"/>
<path d="M70.8292 575.699L80.158 650.661L68.9156 638.142L65.577 573.27L70.8292 575.699Z" fill="#292929"/>
<path d="M63.2175 565.47L64.4552 628.79L58.117 616.56L62.212 561.493L63.2175 565.47Z" fill="#292929"/>
<path d="M501.236 282.175C490.956 292.138 499.78 327.128 527.477 322.172L549.658 312.139L562.871 316.512C571.678 318.643 587.936 306.936 589.757 291.413C591.85 273.57 581.158 266.925 572.401 274.037C572.401 274.037 574.569 240.292 559.522 247.265C559.537 233.614 556.016 222.311 547.896 221.632C528.365 221.955 522.641 236.312 526.082 245.987C518.622 245.747 517.751 249.495 513.066 255.45C507.045 263.103 517.839 272.087 524.571 274.839C516.778 274.841 511.517 272.212 501.236 282.175Z" fill="#6DCB86"/>
<path d="M502.148 299.044C495.557 309.162 492.404 331.408 525.422 326.238L545.493 321.171L554.836 323.758C560.983 324.742 570.707 311.785 570.322 296.911C569.88 279.813 561.997 274.785 556.842 282.525C556.842 282.525 554.801 250.399 545.4 258.743C543.994 245.847 540.453 235.582 534.92 235.889C521.813 238.475 519.45 252.705 522.769 261.442C517.725 262.086 517.528 265.728 514.993 271.9C511.736 279.832 510.679 294.258 515.493 296.072C510.25 296.984 507.046 291.525 502.148 299.044Z" fill="#4CA864"/>
<path d="M499.603 319.916L517.337 325.616L504.659 332.876L518.97 333.871L523.412 337.439L527.294 332.609L529.79 339.347L538.933 333.424C538.933 333.424 544.961 338.274 546.743 338.714L550.36 330.926L561.898 334.693L563.879 328.316L577.343 332.342L572.329 325.141L587.974 323.167L576.109 322.153L581.852 315L568.068 321.014L570.333 309.021L558.939 318.181L551.654 309.771L547.11 319.183L539.48 309.299L534.499 322.381L522.489 314.355L519.169 321.58L499.603 319.916Z" fill="#2F8854"/>
</svg>
