<svg width="706" height="728" viewBox="0 0 706 728" fill="none" xmlns="http://www.w3.org/2000/svg">
<path d="M642.261 194.417L637.297 175.284L647.819 191.584L653.783 179.524L657.276 197.238L665.548 190.867L665.376 213.118L684.458 207.308L676.601 217.665L691.742 223.298L679.266 227.408L692.225 236.729L680.9 237.441C681.014 241.77 681.351 250.14 681.851 252.085C682.026 252.403 682.089 252.546 682.01 252.47C681.955 252.417 681.902 252.285 681.851 252.085C680.709 250.017 674.772 240.528 671.533 235.389L665.841 236.879L666.602 229.471L660.235 227.984L657.568 221.924L653.252 221.251C652.609 219.468 651.062 215.456 651.062 215.456L644.8 213.102L644.613 205.941L636.896 208.074L637.987 201.056L626.349 192.524L642.261 194.417Z" fill="#1B831F"/>
<path d="M622.443 203.003L606.936 188.516L625.19 195.876L622.703 179.542L636.177 193.829L638.967 181.146L652.237 202.702L664.029 181.997L663.972 198.189L679.502 191.622L671.98 205.458L687.981 204.168L679.335 213.822C682.034 217.899 687.347 225.69 688.92 227.167C689.253 227.334 689.389 227.422 689.28 227.411C689.204 227.404 689.082 227.319 688.92 227.167C686.759 226.08 676.284 221.647 670.591 219.264L666.927 225.207L663.073 217.472L657.074 221.084L651.285 217.361L647.421 220.132C645.83 218.924 642.173 216.287 642.173 216.287L635.736 218.98L631.272 212.236L626.372 220.399L623.018 212.779L608.55 213.782L622.443 203.003Z" fill="#2E9532"/>
<path d="M165.6 532.741C208.83 473.048 279.964 443.876 303.045 446.404L98.6337 307.342C93.801 328.394 56.3723 410.021 95.2173 501.175C114.302 459.192 114.103 456.251 143.536 437.471C136.514 463.282 147.983 497.204 165.6 532.741Z" fill="#964D66"/>
<path d="M47.5127 343.165C20.7131 330.092 17.8262 276.711 19.7327 251.654C19.6796 223.874 132.487 201.814 212.559 197.728C292.63 193.643 489.542 197.728 536.114 200.18C582.687 202.631 665.21 223.057 667.661 246.752C670.112 270.447 626.694 288.408 615.369 308.848C581.87 369.311 610.5 413.5 603 467C596.477 513.532 580 592.5 580 592.5L558.5 665.5C558.5 665.5 537.5 642.5 518 620C498 652.5 428.262 728 428.262 728C428.262 728 399.745 643.712 357.26 591.571C312.2 605.733 258.772 644.999 258.772 644.999L231.092 635.987C231.092 635.987 168.914 402.973 137.389 375.847C123.684 364.054 112.092 358.976 101.062 356.197C83.8169 351.853 67.9443 353.132 47.5127 343.165Z" fill="#AB576F"/>
<path d="M256.841 485.359C271.003 563.892 308.338 536.212 357.904 592.05C337.015 596.448 320.043 603.359 305.029 611.527C312.862 595.443 256.197 552.305 256.841 485.359Z" fill="black" fill-opacity="0.15"/>
<path d="M382.421 411.798C358.236 412.452 323.321 398.997 308.886 392.189C299.898 414.249 317.057 497.589 351.373 495.138C385.689 492.687 403.665 523.735 423.274 549.881C438.962 570.798 438.526 601.628 436.347 614.429C436.347 614.429 451.871 581.746 463.31 567.039C474.749 552.332 477.2 513.113 469.03 471.443C460.859 429.773 440.432 412.615 431.445 408.53C422.457 404.444 412.652 410.981 382.421 411.798Z" fill="black" fill-opacity="0.15"/>
<path d="M17.2818 241.85C20.55 229.43 38.253 223.057 46.6959 221.423C110.427 192.826 255.863 178.119 411.922 180.57C567.98 183.021 646.418 198.545 664.393 205.899C682.368 213.253 674.198 255.74 670.112 266.361C666.844 274.859 649.141 272.626 640.698 270.447C578.057 265.272 455.389 259.008 465.847 275.349C478.92 295.776 560.728 290.369 553.273 309.666C539.383 345.616 492.81 352.153 467.482 357.055C429.237 364.457 402.117 361.14 369.434 348.884C303.624 324.205 219.095 324.373 173.34 321.104C127.585 317.836 70.3907 299.044 43.4277 298.227C21.8573 297.573 16.4647 288.15 16.4647 283.52C15.3753 274.804 14.0136 254.269 17.2818 241.85Z" fill="#85C28D"/>
<path d="M565.529 353.787C559.809 343.165 553.273 303.946 553.273 303.946C546.736 296.593 540.2 294.958 520.591 293.324C492.811 291.69 465.848 283.52 461.762 272.898C449.704 241.548 374.337 230.411 374.337 230.411C407.502 240.563 407.019 266.361 409.47 272.898C411.922 279.434 419.275 294.141 447.055 308.031C474.835 321.921 499.347 321.921 508.335 327.641C515.525 332.216 516.778 340.441 516.505 344.799C516.505 344.799 523.081 360.242 525.493 372.579C528.887 389.942 523.586 406.623 523.859 419.151C524.131 431.68 529.936 462.972 542.651 491.87C551.639 512.296 548.371 542.527 543.468 552.332C551.639 545.796 562.261 518.833 563.895 493.504C565.807 463.864 559.319 429.283 560.626 417.517C561.934 405.752 571.248 364.409 565.529 353.787Z" fill="white" fill-opacity="0.2"/>
<path fill-rule="evenodd" clip-rule="evenodd" d="M293.921 182.067C413.275 187.382 594.132 198.185 631.711 214.887C645.045 220.813 648.305 255.62 647.579 271.809C656.415 273.087 667.584 272.936 670.113 266.361C674.198 255.74 682.368 213.253 664.393 205.899C646.418 198.545 567.98 183.021 411.922 180.57C371.461 179.935 331.715 180.452 293.921 182.067Z" fill="white" fill-opacity="0.2"/>
<path d="M205.947 287.51L219.655 300.737L202.579 291.811L203.42 303.535L191.674 290.878L187.726 298.978L176.882 281.381L163.384 293.065L165.008 281.978L149.238 283.177L157.909 275.293L142.19 272.774L151.552 267.996C149.316 264.627 144.893 258.158 143.503 256.811C143.195 256.626 143.071 256.536 143.176 256.567C143.249 256.588 143.36 256.672 143.503 256.811C145.504 258.015 155.283 263.281 160.6 266.125L164.746 262.831L167.753 268.952L173.949 267.753L179.229 271.535L183.264 270.458C184.697 271.623 188.005 274.209 188.005 274.209L194.539 273.732L198.237 279.304L203.802 274.751L206.333 280.687L220.53 283.076L205.947 287.51Z" fill="#2F8151"/>
<path d="M27.2972 231.202L15.7758 235.093L24.2185 223.969L13.3246 221.203L28.0317 218.752L17.4099 208.947L29.6658 208.947L28.0317 198.325L46.4581 207.218L50.5801 194.297L55.3849 209.391L63.1284 200.618L64.6619 212.786C68.7093 214.867 76.5267 218.769 78.3119 219.236C78.5964 219.215 78.7253 219.223 78.6605 219.266C78.6152 219.296 78.4954 219.284 78.3119 219.236C76.4609 219.376 68.0232 220.743 63.4542 221.508L65.2862 228.199L58.2855 223.641L57.379 229.523L51.9036 229.222L51.6038 233.38C49.9813 233.145 46.3401 232.719 46.3401 232.719L44.6126 238.05L37.9173 234.607L40.5051 243.734L33.8454 239.03L26.7399 246.827L27.2972 231.202Z" fill="#246C42"/>
<path d="M263.888 152.201H245.767C242.523 134.439 237.781 93.9092 244.761 73.8864C251.413 54.8034 258.187 63.0502 261.132 70.3899C255.156 54.192 257.672 41.7154 262.4 33.4994C268.44 23.0036 279.558 17.1582 286.095 38.4018C306.521 30.2312 295.767 81.9601 295.767 81.9601C301.807 67.4274 306.841 106.181 306.505 139.283C306.213 168.081 300.465 159.468 293.754 157.046L283.351 153.816L263.888 152.201Z" fill="#338479"/>
<path d="M280.084 166.908H298.204L317.667 168.523L328.07 171.753C334.781 174.175 340.53 182.788 340.822 153.991C341.157 120.888 336.124 82.1345 330.083 96.6672C330.083 96.6672 330.754 14.3154 320.016 29.6554C318.674 -6.67628 305.587 -3.44676 299.547 7.04906C294.714 15.4457 295.072 63.2959 295.855 86.1714C293.171 78.6359 286.057 68.5707 279.077 88.5935C272.097 108.616 276.84 149.146 280.084 166.908Z" fill="#3C9186"/>
<path d="M38.6226 221.423L39.4396 161.778L278.824 101.706L465.128 140.534V187.924L433.262 199.363L430.811 203.448L253.509 265.544L246.973 262.573L188.144 282.703L38.6226 221.423Z" fill="#C4C4C4"/>
<path d="M248.607 262.276L242.07 264.727V202.631L233.765 191.826V185.29L248.607 200.18V262.276Z" fill="black" fill-opacity="0.11"/>
<path d="M382.462 142.904L234.199 184.785L236.13 186.717L381.818 145.479L382.462 142.904Z" fill="black" fill-opacity="0.11"/>
<path d="M99.2285 164.147L277.537 116.512L373.45 137.111L180.336 189.251L99.2285 164.147Z" fill="#FF5353"/>
<ellipse cx="193.261" cy="162.191" rx="24.5118" ry="8.98765" fill="white"/>
<ellipse cx="283.505" cy="139.488" rx="22.0606" ry="8.17059" fill="white"/>
<path d="M254.326 209.27L429.177 158.51L428.36 197.728L254.326 258.191L254.326 209.27Z" fill="black" fill-opacity="0.31"/>
<path d="M291.911 209.984L429.178 169.131L428.36 190.991L287.009 236.13C287.009 236.13 287.009 223.874 287.009 215.704C287.009 211.618 291.911 209.984 291.911 209.984Z" fill="black" fill-opacity="0.45"/>
<path d="M292.728 195.277L305.801 190.375V244.301L292.728 249.33V195.277Z" fill="#C3C3C3"/>
<path d="M320.508 185.473L333.581 181.387V235.313L320.508 239.398V185.473Z" fill="#C3C3C3"/>
<path d="M364.629 172.4L377.702 168.314V218.972L364.629 223.874V172.4Z" fill="#C3C3C3"/>
<path d="M390.775 165.863L403.848 161.778V209.984L390.775 214.07V165.863Z" fill="#C3C3C3"/>
<path d="M254.326 218.972C269.033 214.887 288.643 221.423 287.009 243.484C286.717 247.428 286.031 250.769 285.055 253.639C288.525 264.235 284.898 279.23 280.472 284.337C275.103 290.532 263.889 299.65 257.698 310.213C258.162 310.873 258.672 311.509 259.229 312.117C268.216 321.921 291.094 334.177 290.277 357.055C290.118 361.509 289.311 366.311 288.097 371.17C299.04 394.77 285.311 414.376 282.923 419.152C280.722 423.555 269.835 441.787 266.318 461.388C267.059 463.202 267.958 464.929 269.033 466.541C283.295 487.934 301.399 490.118 318.874 490.231C318.874 490.231 323.292 499.556 327.862 504.126C336.032 512.296 340.118 512.407 340.118 512.407C316.801 521.469 279.048 515.82 268.216 489.419C264.639 480.698 264.614 470.882 266.318 461.388C258.94 443.353 267.105 416.771 272.302 409.347C276.629 401.928 284.325 386.276 288.097 371.17C284.063 362.469 276.676 353.226 264.131 343.982C250.393 332.265 251.641 320.547 257.698 310.213C250.671 300.217 254.117 284.597 263.314 276.166C269.969 270.066 280.571 266.822 285.055 253.639C281.957 244.182 273.207 238.229 254.326 245.935V218.972Z" fill="black" fill-opacity="0.45"/>
<path d="M329.496 429.773C353.191 424.871 358.91 458.37 358.91 467.358C358.91 468.38 358.646 469.466 358.151 470.587C360.429 476.801 361.16 483.961 359.88 490.572C359.88 490.572 352.771 490.192 348.288 489.419C343.96 488.672 337.364 486.746 337.364 486.746C347.282 482.819 355.653 476.248 358.151 470.587C353.578 458.112 342.771 449.456 329.496 456.736C321.757 460.98 317.985 466.368 316.85 472.107C326.665 486.443 343.544 492.35 362.995 491.053C382.399 489.759 399.546 481.801 406.42 465.983C401.421 441.199 382.338 415.21 366.264 406.896C342.569 394.64 316.447 355.838 313.972 334.177C313.215 327.554 313.493 321.574 314.473 316.176C313.703 313.168 313.25 310.175 313.155 307.214C312.57 289.082 319.691 272.898 332.764 263.093C334.964 261.444 336.585 259.447 337.686 257.275C335.024 253.08 329.734 250.222 320.508 250.837C300.899 252.145 287.009 243.484 287.009 237.764V215.704C287.009 223.874 307.435 234.496 322.959 232.862C335.872 231.503 343.131 246.536 337.686 257.275C342.097 264.225 339.292 274.849 335.215 279.434C328.7 286.764 317.725 298.267 314.473 316.176C320.296 338.903 344.277 362.424 369.532 378.299C398.129 396.274 410.385 433.859 409.568 451.834C409.328 457.11 408.23 461.819 406.42 465.983C408.79 477.732 407.995 489.21 402.214 498.406C384.239 527.003 347.471 518.016 334.398 507.394C325.319 500.017 314.27 485.154 316.85 472.107C314.297 468.378 312.222 464.079 310.704 459.187C309.172 454.252 305.801 434.676 329.496 429.773Z" fill="black" fill-opacity="0.45"/>
<path d="M39.2668 162.215L189.252 215L187.964 282.59L38.623 221.437L39.2668 162.215Z" fill="black" fill-opacity="0.12"/>
<path d="M446.378 197.36H475.824L507.451 198.099L524.355 199.578C535.261 200.687 544.602 204.631 545.077 191.444C545.622 176.285 537.443 158.538 527.627 165.193C527.627 165.193 528.718 127.48 511.268 134.505C509.087 117.867 487.82 119.346 478.005 124.153C470.153 127.998 470.734 149.911 472.007 160.386C467.644 156.936 456.084 152.326 444.742 161.496C433.4 170.665 441.106 189.225 446.378 197.36Z" fill="#3C9186"/>
<path d="M468.97 189.006L452.234 179.907L471.071 183.964L467.138 172.886L481.831 181.96L483.479 173.101L498.617 187.175L508.517 172.319L509.903 183.438L524.785 178.082L518.526 187.991L534.348 186.233L526.597 193.332C529.649 195.984 535.635 201.042 537.334 201.97C537.68 202.067 537.823 202.12 537.714 202.118C537.638 202.117 537.508 202.065 537.334 201.97C535.084 201.342 524.256 198.87 518.373 197.544L515.254 201.824L510.726 196.724L505.073 199.53L498.976 197.29L495.375 199.403C493.683 198.661 489.805 197.05 489.805 197.05L483.634 199.249L478.586 194.863L474.434 200.734L470.414 195.686L456.094 197.163L468.97 189.006Z" fill="#3C875B"/>
<path d="M379.878 278.972C376.587 279.919 363.861 281.536 355.192 278.971C351.351 277.835 357.203 256.812 366.895 257.001C376.587 257.191 383.17 278.025 379.878 278.972Z" fill="url(#paint0_linear_6_7)"/>
<path d="M363.509 271.773C364.24 268.743 365.52 262.493 358.389 262.871C359.12 261.546 360.217 260.409 361.132 259.462C367.349 258.894 368.081 263.818 367.898 266.849C376.127 265.712 379.784 276.319 377.224 279.539C375.944 279.728 374.664 279.917 372.652 280.107C375.03 277.266 372.287 270.637 363.509 271.773Z" fill="#8D8CC4"/>
<path d="M413.637 316.656L402.457 318.586C401.167 313.6 396.007 303.628 382.678 300.733C364.316 296.745 378.061 273.045 389.517 285.218C380.943 274.106 400.803 258.12 402.887 283.845C411.487 265.509 420.517 280.467 414.067 290.6C409.373 297.975 412.49 310.705 413.637 316.656Z" fill="#4B8F69"/>
<path opacity="0.17" d="M405.063 308.453C400.737 302.782 397.323 296.771 385.941 293.47M405.063 308.453C400.965 297.448 395.775 282.753 395.957 279.502M405.063 308.453C404.759 303.628 405.017 292.149 408.477 284.835" stroke="black" stroke-width="3" stroke-linecap="round"/>
<path d="M479.308 318.915C469.433 321.756 431.256 326.608 405.247 318.914C393.726 315.506 411.281 252.436 440.357 253.004C469.433 253.572 489.182 316.074 479.308 318.915Z" fill="url(#paint1_linear_6_7)"/>
<path d="M430.2 297.32C432.395 288.228 436.235 269.478 414.839 270.614C417.034 266.637 420.325 263.228 423.068 260.387C441.721 258.682 443.915 273.455 443.367 282.546C468.054 279.137 479.026 310.956 471.345 320.616C467.505 321.184 463.665 321.752 457.63 322.32C464.762 313.797 456.533 293.91 430.2 297.32Z" fill="#8D8CC4"/>
<path d="M497.633 324.501C492.383 326.011 472.087 328.591 458.259 324.5C452.134 322.688 461.467 289.157 476.925 289.46C492.383 289.762 502.882 322.99 497.633 324.501Z" fill="url(#paint2_linear_6_7)"/>
<path d="M471.525 313.02C472.692 308.186 474.734 298.218 463.359 298.822C464.526 296.707 466.275 294.895 467.734 293.385C477.65 292.478 478.817 300.332 478.525 305.166C491.65 303.353 497.483 320.269 493.4 325.405L493.399 325.405C491.358 325.707 489.316 326.009 486.108 326.311C489.9 321.78 485.525 311.207 471.525 313.02Z" fill="#8D8CC4"/>
<defs>
<linearGradient id="paint0_linear_6_7" x1="375.944" y1="275.561" x2="354.183" y2="275.385" gradientUnits="userSpaceOnUse">
<stop stop-color="#8483B8"/>
<stop offset="1" stop-color="#555483"/>
</linearGradient>
<linearGradient id="paint1_linear_6_7" x1="467.505" y1="308.684" x2="402.221" y2="308.154" gradientUnits="userSpaceOnUse">
<stop stop-color="#8483B8"/>
<stop offset="1" stop-color="#555483"/>
</linearGradient>
<linearGradient id="paint2_linear_6_7" x1="491.358" y1="319.061" x2="456.65" y2="318.78" gradientUnits="userSpaceOnUse">
<stop stop-color="#8483B8"/>
<stop offset="1" stop-color="#555483"/>
</linearGradient>
</defs>
</svg>
